Sudo.pr.glyphspackage
{
glyphname = exclam;
layers = (
{
hints = (
{
horizontal = 1;
origin = (1,11);
stem = -1;
target = (1,5);
type = TTStem;
},
{
horizontal = 1;
origin = (0,2);
type = TTSnap;
},
{
horizontal = 1;
origin = (1,5);
stem = -1;
target = (0,3);
type = TTStem;
}
);
layerId = "95FB0C11-C828-4064-8966-34220AA4D426";
shapes = (
{
closed = 1;
nodes = (
(256,192,l),
(270,640,l),
(178,640,l),
(192,192,l)
);
},
{
closed = 1;
nodes = (
(259,-10,o),
(288,12,o),
(288,54,cs),
(288,95,o),
(259,118,o),
(224,118,cs),
(189,118,o),
(160,95,o),
(160,54,cs),
(160,12,o),
(189,-10,o),
(224,-10,cs)
);
}
);
width = 448;
},
{
layerId = "92967D72-867E-4A8B-929F-F44D834DD4C9";
shapes = (
{
closed = 1;
nodes = (
(274,212,l),
(290,640,l),
(158,640,l),
(174,212,l)
);
},
{
closed = 1;
nodes = (
(270,-10,o),
(308,15,o),
(308,64,cs),
(308,111,o),
(270,138,o),
(224,138,cs),
(178,138,o),
(140,111,o),
(140,64,cs),
(140,15,o),
(178,-10,o),
(224,-10,cs)
);
}
);
width = 448;
},
{
layerId = "7DDCEF54-C770-4FAD-B154-EE8058BAA7E5";
shapes = (
{
closed = 1;
nodes = (
(245,192,l),
(258,640,l),
(190,640,l),
(203,192,l)
);
},
{
closed = 1;
nodes = (
(252,-10,o),
(276,8,o),
(276,42,cs),
(276,75,o),
(252,94,o),
(224,94,cs),
(196,94,o),
(172,75,o),
(172,42,cs),
(172,8,o),
(196,-10,o),
(224,-10,cs)
);
}
);
width = 448;
}
);
unicode = 33;
}
{
glyphname = quotedbl;
kernLeft = quotesingle;
kernRight = quotesingle;
layers = (
{
hints = (
{
horizontal = 1;
options = 4;
origin = (0,0);
target = (1,1);
type = TTShift;
},
{
horizontal = 1;
origin = (0,3);
type = TTSnap;
},
{
horizontal = 1;
options = 4;
origin = (0,3);
target = (1,2);
type = TTShift;
}
);
layerId = "95FB0C11-C828-4064-8966-34220AA4D426";
shapes = (
{
closed = 1;
nodes = (
(190,640,l),
(98,640,l),
(108,384,l),
(180,384,l)
);
},
{
closed = 1;
nodes = (
(350,640,l),
(258,640,l),
(268,384,l),
(340,384,l)
);
}
);
width = 448;
},
{
layerId = "92967D72-867E-4A8B-929F-F44D834DD4C9";
shapes = (
{
closed = 1;
nodes = (
(193,640,l),
(61,640,l),
(71,384,l),
(183,384,l)
);
},
{
closed = 1;
nodes = (
(387,640,l),
(255,640,l),
(265,384,l),
(377,384,l)
);
}
);
width = 448;
},
{
layerId = "7DDCEF54-C770-4FAD-B154-EE8058BAA7E5";
shapes = (
{
closed = 1;
nodes = (
(182,640,l),
(114,640,l),
(124,384,l),
(172,384,l)
);
},
{
closed = 1;
nodes = (
(334,640,l),
(266,640,l),
(276,384,l),
(324,384,l)
);
}
);
width = 448;
}
);
unicode = 34;
}
{
glyphname = numbersign;
layers = (
{
hints = (
{
horizontal = 1;
options = 8;
origin = (0,0);
other1 = (0,1);
target = (0,17);
type = TTInterpolate;
},
{
horizontal = 1;
options = 8;
origin = (0,0);
other1 = (0,16);
target = (0,17);
type = TTInterpolate;
},
{
horizontal = 1;
options = 4;
origin = (0,1);
target = (0,26);
type = TTShift;
},
{
horizontal = 1;
options = 4;
origin = (1,3);
target = (0,23);
type = TTShift;
},
{
horizontal = 1;
options = 4;
origin = (1,0);
target = (0,22);
type = TTShift;
},
{
horizontal = 1;
options = 4;
origin = (0,16);
target = (0,12);
type = TTShift;
},
{
horizontal = 1;
options = 4;
origin = (1,0);
target = (0,9);
type = TTShift;
},
{
horizontal = 1;
options = 4;
origin = (1,3);
target = (0,8);
type = TTShift;
},
{
horizontal = 1;
options = 4;
origin = (0,1);
target = (0,5);
type = TTShift;
},
{
horizontal = 1;
options = 4;
origin = (0,17);
target = (0,14);
type = TTShift;
},
{
horizontal = 1;
options = 4;
origin = (0,0);
target = (0,3);
type = TTShift;
},
{
horizontal = 1;
options = 4;
origin = (0,16);
target = (0,19);
type = TTShift;
},
{
horizontal = 1;
options = 4;
origin = (0,1);
target = (1,3);
type = TTStem;
},
{
horizontal = 1;
options = 4;
origin = (0,16);
target = (1,0);
type = TTStem;
},
{
horizontal = 1;
origin = (0,17);
type = TTSnap;
}
);
layerId = "95FB0C11-C828-4064-8966-34220AA4D426";
shapes = (
{
closed = 1;
nodes = (
(176,0,l),
(181,128,l),
(257,128,l),
(252,0,l),
(320,0,l),
(325,128,l),
(389,128,l),
(389,192,l),
(328,192,l),
(333,320,l),
(399,320,l),
(399,384,l),
(335,384,l),
(340,512,l),
(272,512,l),
(267,384,l),
(191,384,l),
(196,512,l),
(128,512,l),
(123,384,l),
(59,384,l),
(59,320,l),
(121,320,l),
(116,192,l),
(49,192,l),
(49,128,l),
(113,128,l),
(108,0,l)
);
},
{
closed = 1;
nodes = (
(189,320,l),
(265,320,l),
(260,192,l),
(184,192,l)
);
}
);
width = 448;
},
{
layerId = "92967D72-867E-4A8B-929F-F44D834DD4C9";
shapes = (
{
closed = 1;
nodes = (
(186,0,l),
(191,120,l),
(247,120,l),
(242,0,l),
(350,0,l),
(355,120,l),
(409,120,l),
(409,200,l),
(358,200,l),
(362,312,l),
(419,312,l),
(419,392,l),
(365,392,l),
(370,512,l),
(262,512,l),
(257,392,l),
(201,392,l),
(206,512,l),
(98,512,l),
(93,392,l),
(39,392,l),
(39,312,l),
(90,312,l),
(86,200,l),
(29,200,l),
(29,120,l),
(83,120,l),
(78,0,l)
);
},
{
closed = 1;
nodes = (
(198,312,l),
(254,312,l),
(250,200,l),
(194,200,l)
);
}
);
width = 448;
},
{
layerId = "7DDCEF54-C770-4FAD-B154-EE8058BAA7E5";
shapes = (
{
closed = 1;
nodes = (
(170,0,l),
(175,138,l),
(263,138,l),
(258,0,l),
(304,0,l),
(309,138,l),
(377,138,l),
(377,182,l),
(311,182,l),
(317,330,l),
(387,330,l),
(387,374,l),
(319,374,l),
(324,512,l),
(278,512,l),
(273,374,l),
(185,374,l),
(190,512,l),
(144,512,l),
(139,374,l),
(71,374,l),
(71,330,l),
(137,330,l),
(131,182,l),
(61,182,l),
(61,138,l),
(129,138,l),
(124,0,l)
);
},
{
closed = 1;
nodes = (
(183,330,l),
(271,330,l),
(265,182,l),
(177,182,l)
);
}
);
width = 448;
}
);
unicode = 35;
}
{
glyphname = parenright;
kernLeft = parenright;
layers = (
{
hints = (
{
horizontal = 1;
origin = (0,7);
type = TTSnap;
},
{
horizontal = 1;
origin = (0,13);
type = TTSnap;
},
{
options = 8;
origin = (0,10);
type = TTSnap;
},
{
options = 4;
origin = (0,10);
target = (0,3);
type = TTStem;
}
);
layerId = "95FB0C11-C828-4064-8966-34220AA4D426";
shapes = (
{
closed = 1;
nodes = (
(97,684,l),
(180,585,o),
(220,458,o),
(220,320,cs),
(220,182,o),
(180,56,o),
(97,-43,c),
(146,-84,l),
(238,26,o),
(294,159,o),
(294,320,cs),
(294,481,o),
(239,613,o),
(147,723,c)
);
}
);
width = 448;
},
{
layerId = "92967D72-867E-4A8B-929F-F44D834DD4C9";
shapes = (
{
closed = 1;
nodes = (
(76,684,l),
(159,585,o),
(199,458,o),
(199,320,cs),
(199,182,o),
(159,56,o),
(76,-43,c),
(165,-84,l),
(257,26,o),
(313,159,o),
(313,320,cs),
(313,481,o),
(258,613,o),
(166,723,c)
);
}
);
width = 448;
},
{
layerId = "7DDCEF54-C770-4FAD-B154-EE8058BAA7E5";
shapes = (
{
closed = 1;
nodes = (
(108,692,l),
(191,591,o),
(233,461,o),
(233,320,cs),
(233,179,o),
(191,49,o),
(108,-52,c),
(140,-77,l),
(231,31,o),
(283,162,o),
(283,320,cs),
(283,478,o),
(231,609,o),
(140,717,c)
);
}
);
width = 448;
}
);
unicode = 41;
}
{
glyphname = asterisk;
layers = (
{
hints = (
{
horizontal = 1;
origin = (0,11);
type = TTSnap;
},
{
horizontal = 1;
origin = (0,3);
type = TTSnap;
},
{
horizontal = 1;
options = 4;
origin = (0,11);
other1 = (0,4);
target = (0,3);
type = TTInterpolate;
},
{
horizontal = 1;
options = 4;
origin = (0,11);
other1 = (0,10);
target = (0,3);
type = TTInterpolate;
},
{
horizontal = 1;
options = 4;
origin = (0,10);
target = (0,13);
type = TTShift;
},
{
horizontal = 1;
options = 4;
origin = (0,4);
target = (0,1);
type = TTShift;
}
);
layerId = "95FB0C11-C828-4064-8966-34220AA4D426";
shapes = (
{
closed = 1;
nodes = (
(364,453,l),
(254,353,l),
(260,502,l),
(188,502,l),
(194,353,l),
(84,453,l),
(37,398,l),
(178,288,l),
(37,178,l),
(84,123,l),
(194,223,l),
(188,74,l),
(260,74,l),
(254,223,l),
(364,123,l),
(411,178,l),
(270,288,l),
(411,398,l)
);
}
);
width = 448;
},
{
layerId = "92967D72-867E-4A8B-929F-F44D834DD4C9";
shapes = (
{
closed = 1;
nodes = (
(359,474,l),
(270,387,l),
(280,512,l),
(168,512,l),
(178,387,l),
(89,475,l),
(17,389,l),
(159,288,l),
(17,187,l),
(89,102,l),
(178,189,l),
(168,64,l),
(280,64,l),
(270,189,l),
(359,101,l),
(431,187,l),
(289,288,l),
(431,389,l)
);
}
);
width = 448;
},
{
layerId = "7DDCEF54-C770-4FAD-B154-EE8058BAA7E5";
shapes = (
{
closed = 1;
nodes = (
(368,440,l),
(246,336,l),
(248,496,l),
(200,496,l),
(202,337,l),
(80,440,l),
(50,403,l),
(189,288,l),
(50,173,l),
(80,136,l),
(202,240,l),
(200,80,l),
(248,80,l),
(246,239,l),
(368,136,l),
(398,173,l),
(259,288,l),
(398,403,l)
);
}
);
width = 448;
}
);
unicode = 42;
}
{
glyphname = three;
layers = (
{
background = {
hints = (
{
horizontal = 1;
options = 4;
place = (0,57);
target = (0,6);
type = TTStem;
},
{
horizontal = 1;
options = 4;
place = (0,519);
target = (1,3);
type = TTStem;
},
{
horizontal = 1;
other1 = (0,0);
place = (0,582);
target = (1,16);
type = TTInterpolate;
},
{
horizontal = 1;
options = 4;
place = (0,329);
stem = 0;
target = (0,13);
type = TTStem;
},
{
horizontal = 1;
options = 4;
other1 = (0,13,1,13);
place = (0,329);
target = (0,13);
type = TTInterpolate;
},
{
options = 4;
place = (0,315);
target = (0,3);
type = TTStem;
},
{
options = 4;
place = (0,300);
target = (1,6);
type = TTStem;
},
{
options = 8;
place = (0,0);
type = TTSnap;
},
{
options = 4;
place = (0,87);
target = (1,19);
type = TTShift;
},
{
options = 8;
place = (0,0);
type = TTSnap;
},
{
place = (0,374);
target = (1,13);
type = TTShift;
},
{
horizontal = 1;
options = 4;
other1 = (0,13,1,9);
place = (0,279);
target = (0,13,1,13);
type = TTInterpolate;
}
);
shapes = (
{
closed = 1;
nodes = (
(122,266,l),
(273,249,o),
(315,223,o),
(315,167,cs),
(315,112,o),
(283,79,o),
(56,57,c),
(62,-9,l),
(281,6,o),
(391,53,o),
(391,166,cs),
(391,265,o),
(300,314,o),
(129,329,c)
);
},
{
closed = 1;
nodes = (
(96,512,l),
(123,516,o),
(148,519,o),
(173,519,cs),
(288,519,o),
(300,471,o),
(300,432,cs),
(300,384,o),
(281,336,o),
(254,291,c),
(316,267,l),
(346,316,o),
(374,376,o),
(374,440,cs),
(374,536,o),
(311,582,o),
(188,582,cs),
(153,582,o),
(111,577,o),
(87,572,c)
);
}
);
};
hints = (
{
horizontal = 1;
options = 4;
origin = (0,7);
target = (0,6);
type = TTStem;
},
{
horizontal = 1;
options = 4;
origin = (0,19);
target = (0,26);
type = TTStem;
},
{
horizontal = 1;
origin = (0,7);
other1 = (0,0);
target = (0,19);
type = TTInterpolate;
},
{
horizontal = 1;
options = 4;
origin = (0,0);
stem = 0;
target = (0,35);
type = TTStem;
},
{
horizontal = 1;
options = 4;
origin = (0,7);
other1 = (0,13);
target = (0,35);
type = TTInterpolate;
},
{
options = 4;
origin = (0,10);
target = (0,3);
type = TTStem;
},
{
options = 4;
origin = (0,16);
target = (0,29);
type = TTStem;
},
{
options = 8;
origin = (0,6);
type = TTSnap;
},
{
options = 4;
origin = (0,6);
target = (0,22);
type = TTShift;
},
{
options = 8;
origin = (0,10);
type = TTSnap;
},
{
origin = (0,10);
target = (0,16);
type = TTShift;
},
{
horizontal = 1;
options = 4;
origin = (0,35);
other1 = (0,32);
target = (0,13);
type = TTInterpolate;
}
);
layerId = "95FB0C11-C828-4064-8966-34220AA4D426";
shapes = (
{
closed = 1;
nodes = (
(122,266,l),
(273,249,o),
(315,223,o),
(315,167,cs),
(315,112,o),
(283,79,o),
(56,57,c),
(62,-9,l),
(281,6,o),
(391,53,o),
(391,166,cs),
(391,216,o),
(367,253,o),
(323,279,c),
(351,327,o),
(374,381,o),
(374,440,cs),
(374,536,o),
(311,582,o),
(188,582,cs),
(153,582,o),
(111,577,o),
(87,572,c),
(96,512,l),
(123,516,o),
(148,519,o),
(173,519,cs),
(288,519,o),
(300,471,o),
(300,432,cs),
(300,389,o),
(285,347,o),
(262,305,c),
(225,317,o),
(182,324,o),
(129,329,c)
);
}
);
width = 448;
},
{
background = {
shapes = (
{
closed = 1;
nodes = (
(102,258,l),
(253,243,o),
(295,219,o),
(295,168,cs),
(295,122,o),
(263,92,o),
(36,73,c),
(42,-9,l),
(288,6,o),
(411,55,o),
(411,173,cs),
(411,273,o),
(306,322,o),
(109,337,c)
);
},
{
closed = 1;
nodes = (
(76,496,l),
(103,500,o),
(128,503,o),
(153,503,cs),
(268,503,o),
(280,458,o),
(280,422,cs),
(280,377,o),
(265,333,o),
(244,293,c),
(326,262,l),
(361,312,o),
(394,374,o),
(394,440,cs),
(394,536,o),
(322,582,o),
(182,582,cs),
(142,582,o),
(94,575,o),
(67,569,c)
);
}
);
};
layerId = "92967D72-867E-4A8B-929F-F44D834DD4C9";
shapes = (
{
closed = 1;
nodes = (
(102,258,l),
(253,243,o),
(295,219,o),
(295,168,cs),
(295,122,o),
(263,92,o),
(36,73,c),
(42,-9,l),
(288,6,o),
(411,55,o),
(411,173,cs),
(411,221,o),
(386,257,o),
(340,283,c),
(370,330,o),
(394,383,o),
(394,440,cs),
(394,536,o),
(322,582,o),
(182,582,cs),
(142,582,o),
(94,575,o),
(67,569,c),
(76,496,l),
(103,500,o),
(128,503,o),
(153,503,cs),
(268,503,o),
(280,458,o),
(280,422,cs),
(280,385,o),
(270,349,o),
(255,315,c),
(215,325,o),
(164,333,o),
(109,337,c)
);
}
);
width = 448;
},
{
background = {
shapes = (
{
closed = 1;
nodes = (
(136,277,l),
(285,258,o),
(327,226,o),
(327,166,cs),
(327,98,o),
(278,51,o),
(70,33,c),
(74,-9,l),
(275,8,o),
(379,55,o),
(379,162,cs),
(379,260,o),
(296,301,o),
(141,318,c)
);
},
{
closed = 1;
nodes = (
(107,533,l),
(132,537,o),
(162,540,o),
(187,540,cs),
(293,540,o),
(312,488,o),
(312,439,cs),
(312,390,o),
(298,339,o),
(264,290,c),
(304,270,l),
(338,321,o),
(362,373,o),
(362,436,cs),
(362,536,o),
(304,582,o),
(192,582,cs),
(159,582,o),
(120,576,o),
(101,572,c)
);
}
);
};
layerId = "7DDCEF54-C770-4FAD-B154-EE8058BAA7E5";
shapes = (
{
closed = 1;
nodes = (
(136,277,l),
(285,258,o),
(327,226,o),
(327,166,cs),
(327,98,o),
(278,51,o),
(70,33,c),
(74,-9,l),
(275,8,o),
(379,55,o),
(379,162,cs),
(379,215,o),
(355,251,o),
(308,276,c),
(340,325,o),
(362,376,o),
(362,436,cs),
(362,536,o),
(304,582,o),
(192,582,cs),
(159,582,o),
(120,576,o),
(101,572,c),
(107,533,l),
(132,537,o),
(162,540,o),
(187,540,cs),
(293,540,o),
(312,488,o),
(312,439,cs),
(312,391,o),
(298,341,o),
(266,294,c),
(233,305,o),
(189,313,o),
(141,318,c)
);
}
);
width = 448;
}
);
unicode = 51;
}
{
glyphname = five;
layers = (
{
background = {
hints = (
{
horizontal = 1;
options = 4;
place = (0,54);
target = (0,29);
type = TTStem;
},
{
horizontal = 1;
options = 4;
place = (0,261);
target = (0,23);
type = TTStem;
},
{
options = 4;
place = (0,320);
target = (0,26);
type = TTStem;
},
{
options = 4;
place = (0,374);
target = (0,17);
type = TTShift;
},
{
options = 4;
place = (0,142);
target = (0,12,0,14);
type = TTStem;
},
{
options = 4;
place = (0,53);
target = (0,0);
type = TTShift;
},
{
place = (0,81);
target = (0,18);
type = TTShift;
},
{
options = 4;
place = (0,151);
target = (0,14,0,16);
type = TTStem;
},
{
options = 8;
place = (0,0);
type = TTSnap;
},
{
options = 8;
place = (0,0);
type = TTSnap;
},
{
horizontal = 1;
options = 4;
place = (0,512);
stem = 0;
target = (0,16);
type = TTStem;
},
{
horizontal = 1;
other1 = (0,9);
place = (0,576);
target = (0,17);
type = TTInterpolate;
}
);
shapes = (
{
closed = 1;
nodes = (
(53,12,l),
(107,-2,o),
(155,-10,o),
(213,-10,cs),
(320,-10,o),
(396,34,o),
(396,163,cs),
(396,284,o),
(320,325,o),
(236,325,cs),
(192,325,o),
(161,320,o),
(138,315,c),
(140,262,l),
(153,571,l),
(140,512,l),
(374,512,l),
(374,576,l),
(81,576,l),
(68,271,l),
(92,248,l),
(140,256,o),
(175,261,o),
(216,261,cs),
(297,261,o),
(320,235,o),
(320,159,cs),
(320,86,o),
(288,54,o),
(209,54,cs),
(164,54,o),
(123,61,o),
(68,74,c)
);
}
);
};
hints = (
{
horizontal = 1;
options = 4;
origin = (0,3);
target = (0,27);
type = TTStem;
},
{
horizontal = 1;
options = 4;
origin = (0,9);
target = (0,21);
type = TTStem;
},
{
options = 4;
origin = (0,6);
target = (0,24);
type = TTStem;
},
{
options = 4;
origin = (0,6);
target = (0,15);
type = TTShift;
},
{
options = 4;
origin = (0,17);
target = (0,12);
type = TTStem;
},
{
options = 4;
origin = (0,17);
target = (0,0);
type = TTShift;
},
{
origin = (0,17);
target = (0,16);
type = TTShift;
},
{
options = 4;
origin = (0,16);
target = (0,13);
type = TTStem;
},
{
options = 8;
origin = (0,17);
type = TTSnap;
},
{
options = 8;
origin = (0,6);
type = TTSnap;
},
{
horizontal = 1;
options = 4;
origin = (0,15);
stem = 0;
target = (0,14);
type = TTStem;
},
{
horizontal = 1;
origin = (0,3);
other1 = (0,9);
target = (0,15);
type = TTInterpolate;
}
);
layerId = "95FB0C11-C828-4064-8966-34220AA4D426";
shapes = (
{
closed = 1;
nodes = (
(53,12,l),
(107,-2,o),
(155,-10,o),
(213,-10,cs),
(320,-10,o),
(396,34,o),
(396,163,cs),
(396,284,o),
(320,325,o),
(236,325,cs),
(195,325,o),
(166,321,o),
(142,316,c),
(151,512,l),
(374,512,l),
(374,576,l),
(81,576,l),
(68,271,l),
(92,248,l),
(140,256,o),
(175,261,o),
(216,261,cs),
(297,261,o),
(320,235,o),
(320,159,cs),
(320,86,o),
(288,54,o),
(209,54,cs),
(164,54,o),
(123,61,o),
(68,74,c)
);
}
);
width = 448;
},
{
background = {
shapes = (
{
closed = 1;
nodes = (
(43,27,l),
(99,9,o),
(151,0,o),
(212,0,cs),
(326,0,o),
(406,44,o),
(406,175,cs),
(406,292,o),
(327,333,o),
(236,333,cs),
(194,333,o),
(162,329,o),
(138,323,c),
(170,270,l),
(183,571,l),
(140,496,l),
(384,496,l),
(384,576,l),
(71,576,l),
(58,271,l),
(106,240,l),
(145,248,o),
(173,253,o),
(206,253,cs),
(271,253,o),
(290,231,o),
(290,172,cs),
(290,106,o),
(260,80,o),
(187,80,cs),
(146,80,o),
(101,89,o),
(61,99,c)
);
}
);
};
layerId = "92967D72-867E-4A8B-929F-F44D834DD4C9";
shapes = (
{
closed = 1;
nodes = (
(43,27,l),
(99,9,o),
(151,0,o),
(212,0,cs),
(326,0,o),
(406,44,o),
(406,175,cs),
(406,292,o),
(327,333,o),
(236,333,cs),
(212,333,o),
(191,332,o),
(173,329,c),
(180,496,l),
(384,496,l),
(384,576,l),
(71,576,l),
(58,271,l),
(106,240,l),
(145,248,o),
(173,253,o),
(206,253,cs),
(271,253,o),
(290,231,o),
(290,172,cs),
(290,106,o),
(260,80,o),
(187,80,cs),
(146,80,o),
(101,89,o),
(61,99,c)
);
}
);
width = 448;
},
{
background = {
shapes = (
{
closed = 1;
nodes = (
(60,21,l),
(109,8,o),
(154,0,o),
(210,0,cs),
(315,0,o),
(390,48,o),
(390,160,cs),
(390,281,o),
(313,315,o),
(221,315,cs),
(177,315,o),
(140,307,o),
(111,300,c),
(123,271,l),
(135,571,l),
(122,532,l),
(368,532,l),
(368,576,l),
(87,576,l),
(74,271,l),
(87,256,l),
(137,265,o),
(174,271,o),
(217,271,cs),
(300,271,o),
(338,239,o),
(338,161,cs),
(338,80,o),
(301,44,o),
(209,44,cs),
(165,44,o),
(129,49,o),
(69,62,c)
);
}
);
};
layerId = "7DDCEF54-C770-4FAD-B154-EE8058BAA7E5";
shapes = (
{
closed = 1;
nodes = (
(60,21,l),
(109,8,o),
(154,0,o),
(210,0,cs),
(315,0,o),
(390,48,o),
(390,160,cs),
(390,281,o),
(313,315,o),
(221,315,cs),
(183,315,o),
(150,309,o),
(124,303,c),
(133,532,l),
(368,532,l),
(368,576,l),
(87,576,l),
(74,271,l),
(87,256,l),
(137,265,o),
(174,271,o),
(217,271,cs),
(300,271,o),
(338,239,o),
(338,161,cs),
(338,80,o),
(301,44,o),
(209,44,cs),
(165,44,o),
(129,49,o),
(69,62,c)
);
}
);
width = 448;
}
);
unicode = 53;
}
{
glyphname = eight;
layers = (
{
background = {
hints = (
{
horizontal = 1;
options = 4;
place = (0,53);
target = (0,36);
type = TTStem;
},
{
horizontal = 1;
options = 4;
place = (0,522);
target = (0,11);
type = TTStem;
},
{
horizontal = 1;
options = 4;
other1 = (0,42);
place = (0,522);
target = (0,11);
type = TTInterpolate;
},
{
horizontal = 1;
options = 4;
other1 = (0,17);
place = (0,586);
target = (0,24);
type = TTInterpolate;
},
{
horizontal = 1;
options = 4;
other1 = (0,43);
place = (0,280);
target = (0,42);
type = TTInterpolate;
},
{
horizontal = 1;
options = 4;
other1 = (0,18);
place = (0,298);
target = (0,17);
type = TTInterpolate;
},
{
options = 8;
place = (0,0);
type = TTSnap;
},
{
options = 8;
place = (0,0);
type = TTSnap;
},
{
options = 4;
place = (0,108);
target = (0,39);
type = TTStem;
},
{
options = 4;
place = (0,341);
target = (0,33);
type = TTStem;
},
{
options = 8;
place = (0,58);
target = (0,27);
type = TTShift;
},
{
options = 4;
place = (0,132);
target = (0,8);
type = TTStem;
},
{
options = 8;
place = (0,390);
target = (0,21);
type = TTShift;
},
{
options = 4;
place = (0,316);
target = (0,14);
type = TTStem;
}
);
shapes = (
{
closed = 1;
nodes = (
(346,-11,o),
(415,60,o),
(415,137,cs),
(415,214,o),
(363,254,o),
(264,301,cs),
(148,356,o),
(132,389,o),
(132,434,cs),
(132,477,o),
(155,522,o),
(224,522,cs),
(290,522,o),
(316,478,o),
(316,429,cs),
(316,384,o),
(300,340,o),
(249,298,c),
(304,270,l),
(367,316,o),
(390,377,o),
(390,427,cs),
(390,525,o),
(320,586,o),
(224,586,cs),
(128,586,o),
(58,523,o),
(58,435,cs),
(58,372,o),
(89,315,o),
(211,256,cs),
(320,203,o),
(341,176,o),
(341,137,cs),
(341,101,o),
(309,53,o),
(224,53,cs),
(140,53,o),
(108,101,o),
(108,152,cs),
(108,196,o),
(121,242,o),
(188,280,c),
(133,312,l),
(78,277,o),
(34,223,o),
(34,152,cs),
(34,60,o),
(101,-11,o),
(224,-11,cs)
);
}
);
};
hints = (
{
horizontal = 1;
options = 4;
origin = (0,23);
target = (1,11);
type = TTStem;
},
{
horizontal = 1;
options = 4;
origin = (0,11);
target = (2,2);
type = TTStem;
},
{
horizontal = 1;
options = 4;
origin = (0,23);
other1 = (1,2);
target = (2,2);
type = TTInterpolate;
},
{
horizontal = 1;
options = 4;
origin = (1,11);
other1 = (2,8);
target = (0,11);
type = TTInterpolate;
},
{
horizontal = 1;
options = 4;
origin = (0,11);
other1 = (0,17);
target = (1,2);
type = TTInterpolate;
},
{
horizontal = 1;
options = 4;
origin = (0,23);
other1 = (0,5);
target = (2,8);
type = TTInterpolate;
},
{
options = 8;
origin = (0,20);
type = TTSnap;
},
{
options = 8;
origin = (0,2);
type = TTSnap;
},
{
options = 4;
origin = (0,20);
target = (1,14);
type = TTStem;
},
{
options = 4;
origin = (0,2);
target = (1,8);
type = TTStem;
},
{
options = 8;
origin = (0,20);
target = (0,14);
type = TTShift;
},
{
options = 4;
origin = (0,14);
target = (2,11);
type = TTStem;
},
{
options = 8;
origin = (0,2);
target = (0,8);
type = TTShift;
},
{
options = 4;
origin = (0,8);
target = (2,5);
type = TTStem;
}
);
layerId = "95FB0C11-C828-4064-8966-34220AA4D426";
shapes = (
{
closed = 1;
nodes = (
(346,-11,o),
(415,60,o),
(415,137,cs),
(415,200,o),
(379,239,o),
(312,276,c),
(370,322,o),
(390,379,o),
(390,427,cs),
(390,525,o),
(320,586,o),
(224,586,cs),
(128,586,o),
(58,523,o),
(58,435,cs),
(58,390,o),
(73,349,o),
(126,307,c),
(74,272,o),
(34,220,o),
(34,152,cs),
(34,60,o),
(101,-11,o),
(224,-11,cs)
);
},
{
closed = 1;
nodes = (
(108,194,o),
(120,237,o),
(177,274,c),
(188,268,o),
(199,262,o),
(211,256,cs),
(320,203,o),
(341,176,o),
(341,137,cs),
(341,101,o),
(309,53,o),
(224,53,cs),
(140,53,o),
(108,101,o),
(108,152,cs)
);
},
{
closed = 1;
nodes = (
(132,477,o),
(155,522,o),
(224,522,cs),
(290,522,o),
(316,478,o),
(316,429,cs),
(316,386,o),
(302,345,o),
(257,305,c),
(147,358,o),
(132,390,o),
(132,434,cs)
);
}
);
width = 448;
},
{
background = {
shapes = (
{
closed = 1;
nodes = (
(352,-11,o),
(425,62,o),
(425,141,cs),
(425,220,o),
(378,264,o),
(285,309,cs),
(178,361,o),
(162,387,o),
(162,429,cs),
(162,466,o),
(177,506,o),
(224,506,cs),
(268,506,o),
(286,465,o),
(286,425,cs),
(286,380,o),
(274,342,o),
(237,305,c),
(316,263,l),
(378,311,o),
(400,375,o),
(400,427,cs),
(400,525,o),
(326,586,o),
(224,586,cs),
(122,586,o),
(48,521,o),
(48,431,cs),
(48,367,o),
(75,305,o),
(190,248,cs),
(290,198,o),
(311,177,o),
(311,142,cs),
(311,111,o),
(287,69,o),
(224,69,cs),
(161,69,o),
(136,114,o),
(136,159,cs),
(136,200,o),
(145,240,o),
(197,273,c),
(124,320,l),
(67,283,o),
(22,227,o),
(22,152,cs),
(22,60,o),
(94,-11,o),
(224,-11,cs)
);
}
);
};
layerId = "92967D72-867E-4A8B-929F-F44D834DD4C9";
shapes = (
{
closed = 1;
nodes = (
(352,-11,o),
(425,62,o),
(425,141,cs),
(425,204,o),
(395,245,o),
(337,281,c),
(383,326,o),
(400,381,o),
(400,427,cs),
(400,525,o),
(326,586,o),
(224,586,cs),
(122,586,o),
(48,521,o),
(48,431,cs),
(48,388,o),
(61,345,o),
(103,305,c),
(57,269,o),
(22,218,o),
(22,152,cs),
(22,60,o),
(94,-11,o),
(224,-11,cs)
);
},
{
closed = 1;
nodes = (
(136,193,o),
(142,227,o),
(174,256,c),
(180,253,o),
(184,251,o),
(190,248,cs),
(290,198,o),
(311,177,o),
(311,142,cs),
(311,111,o),
(287,69,o),
(224,69,cs),
(161,69,o),
(136,114,o),
(136,159,cs)
);
},
{
closed = 1;
nodes = (
(162,466,o),
(177,506,o),
(224,506,cs),
(268,506,o),
(286,465,o),
(286,425,cs),
(286,388,o),
(277,355,o),
(254,325,c),
(175,367,o),
(162,391,o),
(162,429,cs)
);
}
);
width = 448;
},
{
background = {
shapes = (
{
closed = 1;
nodes = (
(342,-11,o),
(409,59,o),
(409,133,cs),
(409,210,o),
(353,249,o),
(260,293,cs),
(128,355,o),
(114,396,o),
(114,442,cs),
(114,491,o),
(142,542,o),
(222,542,cs),
(299,542,o),
(334,490,o),
(334,436,cs),
(334,388,o),
(316,338,o),
(256,290,c),
(276,266,l),
(354,313,o),
(384,375,o),
(384,431,cs),
(384,525,o),
(316,586,o),
(224,586,cs),
(132,586,o),
(64,524,o),
(64,440,cs),
(64,375,o),
(98,323,o),
(216,264,cs),
(337,204,o),
(359,178,o),
(359,134,cs),
(359,85,o),
(322,33,o),
(224,33,cs),
(130,33,o),
(88,83,o),
(88,149,cs),
(88,195,o),
(103,245,o),
(181,286,c),
(164,317,l),
(92,280,o),
(38,224,o),
(38,147,cs),
(38,59,o),
(104,-11,o),
(224,-11,cs)
);
}
);
};
layerId = "7DDCEF54-C770-4FAD-B154-EE8058BAA7E5";
shapes = (
{
closed = 1;
nodes = (
(342,-11,o),
(409,59,o),
(409,133,cs),
(409,200,o),
(366,239,o),
(293,277,c),
(358,322,o),
(384,379,o),
(384,431,cs),
(384,525,o),
(316,586,o),
(224,586,cs),
(132,586,o),
(64,524,o),
(64,440,cs),
(64,391,o),
(83,349,o),
(144,306,c),
(82,269,o),
(38,217,o),
(38,147,cs),
(38,59,o),
(104,-11,o),
(224,-11,cs)
);
},
{
closed = 1;
nodes = (
(88,194,o),
(102,243,o),
(178,284,c),
(190,277,o),
(202,271,o),
(216,264,cs),
(337,204,o),
(359,178,o),
(359,134,cs),
(359,85,o),
(322,33,o),
(224,33,cs),
(130,33,o),
(88,83,o),
(88,149,cs)
);
},
{
closed = 1;
nodes = (
(114,491,o),
(142,542,o),
(222,542,cs),
(299,542,o),
(334,490,o),
(334,436,cs),
(334,389,o),
(317,340,o),
(260,293,c),
(128,355,o),
(114,396,o),
(114,442,cs)
);
}
);
width = 448;
}
);
unicode = 56;
}
{
glyphname = less;
layers = (
{
hints = (
{
horizontal = 1;
origin = (0,3);
type = TTSnap;
},
{
horizontal = 1;
origin = (0,1);
type = TTSnap;
}
);
layerId = "95FB0C11-C828-4064-8966-34220AA4D426";
shapes = (
{
closed = 1;
nodes = (
(339,481,l),
(289,525,l),
(44,288,l),
(289,51,l),
(339,95,l),
(139,288,l)
);
}
);
width = 448;
},
{
layerId = "92967D72-867E-4A8B-929F-F44D834DD4C9";
shapes = (
{
closed = 1;
nodes = (
(364,468,l),
(284,538,l),
(26,288,l),
(284,38,l),
(364,108,l),
(177,288,l)
);
}
);
width = 448;
},
{
layerId = "7DDCEF54-C770-4FAD-B154-EE8058BAA7E5";
shapes = (
{
closed = 1;
nodes = (
(324,489,l),
(292,517,l),
(55,288,l),
(292,59,l),
(324,87,l),
(116,288,l)
);
}
);
width = 448;
}
);
unicode = 60;
}
{
glyphname = equal;
layers = (
{
hints = (
{
horizontal = 1;
origin = (0,1);
type = TTSnap;
},
{
horizontal = 1;
origin = (0,1);
stem = -1;
target = (1,2);
type = TTStem;
},
{
horizontal = 1;
options = 4;
origin = (1,2);
stem = 0;
target = (1,1);
type = TTStem;
},
{
horizontal = 1;
options = 4;
origin = (0,1);
stem = 0;
target = (0,2);
type = TTStem;
},
{
options = 8;
origin = (0,1);
type = TTSnap;
},
{
options = 4;
origin = (0,1);
target = (1,2);
type = TTShift;
},
{
options = 8;
origin = (0,0);
type = TTSnap;
},
{
options = 4;
origin = (0,0);
target = (1,3);
type = TTShift;
}
);
layerId = "95FB0C11-C828-4064-8966-34220AA4D426";
shapes = (
{
closed = 1;
nodes = (
(416,240,l),
(32,240,l),
(32,176,l),
(416,176,l)
);
},
{
closed = 1;
nodes = (
(416,400,l),
(32,400,l),
(32,336,l),
(416,336,l)
);
}
);
width = 448;
},
{
layerId = "92967D72-867E-4A8B-929F-F44D834DD4C9";
shapes = (
{
closed = 1;
nodes = (
(416,248,l),
(32,248,l),
(32,152,l),
(416,152,l)
);
},
{
closed = 1;
nodes = (
(416,424,l),
(32,424,l),
(32,328,l),
(416,328,l)
);
}
);
width = 448;
},
{
layerId = "7DDCEF54-C770-4FAD-B154-EE8058BAA7E5";
shapes = (
{
closed = 1;
nodes = (
(416,233,l),
(32,233,l),
(32,193,l),
(416,193,l)
);
},
{
closed = 1;
nodes = (
(416,383,l),
(32,383,l),
(32,343,l),
(416,343,l)
);
}
);
width = 448;
}
);
unicode = 61;
}
{
glyphname = greater;
layers = (
{
hints = (
{
horizontal = 1;
origin = (0,1);
type = TTSnap;
},
{
horizontal = 1;
origin = (0,5);
type = TTSnap;
}
);
layerId = "95FB0C11-C828-4064-8966-34220AA4D426";
shapes = (
{
closed = 1;
nodes = (
(404,288,l),
(159,525,l),
(109,481,l),
(309,288,l),
(109,95,l),
(159,51,l)
);
}
);
width = 448;
},
{
layerId = "92967D72-867E-4A8B-929F-F44D834DD4C9";
shapes = (
{
closed = 1;
nodes = (
(422,288,l),
(164,538,l),
(84,468,l),
(271,288,l),
(84,108,l),
(164,38,l)
);
}
);
width = 448;
},
{
layerId = "7DDCEF54-C770-4FAD-B154-EE8058BAA7E5";
shapes = (
{
closed = 1;
nodes = (
(393,288,l),
(156,517,l),
(124,489,l),
(332,288,l),
(124,87,l),
(156,59,l)
);
}
);
width = 448;
}
);
unicode = 62;
}
{
glyphname = at;
layers = (
{
background = {
hints = (
{
horizontal = 1;
options = 4;
place = (0,522);
target = (0,22);
type = TTStem;
},
{
horizontal = 1;
place = (0,0);
type = TTSnap;
},
{
horizontal = 1;
options = 4;
place = (0,-64);
target = (0,16);
type = TTStem;
},
{
horizontal = 1;
place = (0,0);
type = TTSnap;
},
{
horizontal = 1;
options = 4;
place = (0,130);
target = (0,26);
type = TTStem;
},
{
horizontal = 1;
other1 = (0,25,0,36);
place = (0,64);
target = (0,39);
type = TTInterpolate;
},
{
horizontal = 1;
options = 4;
place = (0,324);
target = (0,26,0,32);
type = TTStem;
},
{
options = 8;
place = (0,0);
type = TTSnap;
},
{
options = 4;
place = (0,120);
target = (0,19);
type = TTStem;
},
{
options = 8;
place = (0,0);
type = TTSnap;
},
{
options = 4;
place = (0,316);
target = (0,26);
type = TTStem;
},
{
other1 = (0,36);
place = (0,388);
target = (0,42);
type = TTInterpolate;
},
{
options = 4;
place = (0,243);
target = (0,29);
type = TTStem;
},
{
place = (0,345);
target = (0,12);
type = TTShift;
},
{
options = 4;
place = (0,316);
target = (0,26);
type = TTShift;
}
);
shapes = (
{
closed = 1;
nodes = (
(388,382,ls),
(388,504,o),
(340,586,o),
(233,586,cs),
(97,586,o),
(48,465,o),
(48,223,cs),
(48,-21,o),
(105,-128,o),
(244,-128,cs),
(274,-128,o),
(313,-121,o),
(345,-108,c),
(329,-49,l),
(305,-57,o),
(277,-64,o),
(244,-64,cs),
(163,-64,o),
(120,5,o),
(120,223,cs),
(120,439,o),
(148,522,o),
(231,522,cs),
(296,522,o),
(316,475,o),
(316,380,cs),
(316,130,l),
(259,124,o),
(243,160,o),
(243,220,cs),
(243,284,o),
(259,317,o),
(332,327,c),
(332,391,l),
(215,376,o),
(169,315,o),
(169,219,cs),
(169,120,o),
(219,64,o),
(306,64,cs),
(330,64,o),
(365,67,o),
(388,74,c)
);
}
);
};
hints = (
{
horizontal = 1;
options = 4;
origin = (0,3);
target = (0,22);
type = TTStem;
},
{
horizontal = 1;
origin = (0,9);
type = TTSnap;
},
{
horizontal = 1;
options = 4;
origin = (0,9);
target = (0,16);
type = TTStem;
},
{
horizontal = 1;
origin = (0,32);
type = TTSnap;
},
{
horizontal = 1;
options = 4;
origin = (0,32);
target = (1,3);
type = TTStem;
},
{
horizontal = 1;
origin = (0,3);
other1 = (0,25);
target = (0,32);
type = TTInterpolate;
},
{
horizontal = 1;
options = 4;
origin = (0,25);
target = (1,2);
type = TTStem;
},
{
options = 8;
origin = (0,6);
type = TTSnap;
},
{
options = 4;
origin = (0,6);
target = (0,19);
type = TTStem;
},
{
options = 8;
origin = (0,35);
type = TTSnap;
},
{
options = 4;
origin = (0,35);
target = (1,3);
type = TTStem;
},
{
origin = (0,6);
other1 = (0,29);
target = (0,35);
type = TTInterpolate;
},
{
options = 4;
origin = (0,29);
target = (1,6);
type = TTStem;
},
{
origin = (0,35);
target = (0,12);
type = TTShift;
},
{
options = 4;
origin = (0,25);
target = (1,3);
type = TTShift;
}
);
layerId = "95FB0C11-C828-4064-8966-34220AA4D426";
shapes = (
{
closed = 1;
nodes = (
(388,382,ls),
(388,504,o),
(340,586,o),
(233,586,cs),
(97,586,o),
(48,465,o),
(48,223,cs),
(48,-21,o),
(105,-128,o),
(244,-128,cs),
(274,-128,o),
(313,-121,o),
(345,-108,c),
(329,-49,l),
(305,-57,o),
(277,-64,o),
(244,-64,cs),
(163,-64,o),
(120,5,o),
(120,223,cs),
(120,439,o),
(148,522,o),
(231,522,cs),
(294,522,o),
(316,475,o),
(316,389,c),
(316,389,l),
(210,370,o),
(169,310,o),
(169,219,cs),
(169,120,o),
(219,64,o),
(306,64,cs),
(330,64,o),
(365,67,o),
(388,74,c)
);
},
{
closed = 1;
nodes = (
(243,279,o),
(257,312,o),
(316,324,c),
(316,130,l),
(259,124,o),
(243,160,o),
(243,220,cs)
);
}
);
width = 448;
},
{
background = {
shapes = (
{
closed = 1;
nodes = (
(408,379,ls),
(408,502,o),
(354,586,o),
(233,586,cs),
(83,586,o),
(28,465,o),
(28,223,cs),
(28,-21,o),
(93,-128,o),
(244,-128,cs),
(284,-128,o),
(330,-119,o),
(366,-103,c),
(347,-38,l),
(317,-45,o),
(288,-48,o),
(264,-48,cs),
(169,-48,o),
(140,17,o),
(140,223,cs),
(140,429,o),
(162,507,o),
(231,507,cs),
(280,507,o),
(296,463,o),
(296,373,cs),
(296,138,l),
(278,140,o),
(271,166,o),
(271,220,cs),
(271,279,o),
(283,305,o),
(332,319,c),
(332,399,l),
(208,383,o),
(157,319,o),
(157,218,cs),
(157,114,o),
(214,56,o),
(315,56,cs),
(339,56,o),
(381,59,o),
(408,66,c)
);
}
);
};
layerId = "92967D72-867E-4A8B-929F-F44D834DD4C9";
shapes = (
{
closed = 1;
nodes = (
(408,379,ls),
(408,502,o),
(354,586,o),
(233,586,cs),
(83,586,o),
(28,465,o),
(28,223,cs),
(28,-21,o),
(93,-128,o),
(244,-128,cs),
(284,-128,o),
(330,-119,o),
(366,-103,c),
(347,-38,l),
(317,-45,o),
(288,-48,o),
(264,-48,cs),
(169,-48,o),
(140,17,o),
(140,223,cs),
(140,429,o),
(162,507,o),
(231,507,cs),
(276,507,o),
(293,470,o),
(296,392,c),
(296,392,l),
(199,369,o),
(157,309,o),
(157,218,cs),
(157,114,o),
(214,56,o),
(315,56,cs),
(339,56,o),
(381,59,o),
(408,66,c)
);
},
{
closed = 1;
nodes = (
(271,260,o),
(277,286,o),
(296,302,c),
(296,138,l),
(278,140,o),
(271,166,o),
(271,220,cs)
);
}
);
width = 448;
},
{
background = {
shapes = (
{
closed = 1;
nodes = (
(376,384,ls),
(376,505,o),
(332,586,o),
(233,586,cs),
(105,586,o),
(60,465,o),
(60,223,cs),
(60,-21,o),
(112,-128,o),
(244,-128,cs),
(268,-128,o),
(303,-122,o),
(332,-111,c),
(322,-74,l),
(301,-80,o),
(275,-85,o),
(247,-85,cs),
(158,-85,o),
(108,-9,o),
(108,223,cs),
(108,450,o),
(142,541,o),
(231,541,cs),
(304,541,o),
(328,486,o),
(328,384,cs),
(328,115,l),
(248,103,o),
(226,149,o),
(226,220,cs),
(226,290,o),
(245,329,o),
(332,337,c),
(332,381,l),
(219,367,o),
(176,310,o),
(176,220,cs),
(176,124,o),
(222,69,o),
(301,69,cs),
(325,69,o),
(355,72,o),
(376,79,c)
);
}
);
};
layerId = "7DDCEF54-C770-4FAD-B154-EE8058BAA7E5";
shapes = (
{
closed = 1;
nodes = (
(376,384,ls),
(376,505,o),
(332,586,o),
(233,586,cs),
(105,586,o),
(60,465,o),
(60,223,cs),
(60,-21,o),
(112,-128,o),
(244,-128,cs),
(268,-128,o),
(303,-122,o),
(332,-111,c),
(322,-74,l),
(301,-80,o),
(275,-85,o),
(247,-85,cs),
(158,-85,o),
(108,-9,o),
(108,223,cs),
(108,450,o),
(142,541,o),
(231,541,cs),
(304,541,o),
(328,486,o),
(328,384,cs),
(328,380,l),
(219,366,o),
(176,309,o),
(176,220,cs),
(176,124,o),
(222,69,o),
(301,69,cs),
(325,69,o),
(355,72,o),
(376,79,c)
);
},
{
closed = 1;
nodes = (
(226,289,o),
(244,328,o),
(328,337,c),
(328,115,l),
(248,103,o),
(226,149,o),
(226,220,cs)
);
}
);
width = 448;
}
);
unicode = 64;
}
{
color = 8;
glyphname = D;
kernRight = O;
layers = (
{
anchors = (
{
name = bottom;
pos = (240,0);
},
{
name = center;
pos = (240,320);
},
{
name = origin.hook;
pos = (60,640);
},
{
name = stemUC;
pos = (243,362);
},
{
name = top;
pos = (228,640);
}
);
hints = (
{
horizontal = 1;
options = 4;
origin = (0,8);
target = (1,2);
type = TTStem;
},
{
horizontal = 1;
options = 4;
origin = (0,2);
target = (1,8);
type = TTStem;
},
{
options = 4;
origin = (0,1);
target = (1,0);
type = TTStem;
},
{
options = 4;
origin = (0,5);
target = (1,5);
type = TTStem;
},
{
origin = (0,1);
type = TTSnap;
},
{
origin = (0,5);
type = TTSnap;
}
);
layerId = "95FB0C11-C828-4064-8966-34220AA4D426";
shapes = (
{
closed = 1;
nodes = (
(60,640,l),
(60,0,l),
(213,0,ls),
(365,0,o),
(426,86,o),
(426,317,cs),
(426,547,o),
(365,640,o),
(212,640,cs)
);
},
{
closed = 1;
nodes = (
(132,64,l),
(132,576,l),
(206,576,ls),
(333,576,o),
(348,500,o),
(348,317,cs),
(348,140,o),
(335,64,o),
(206,64,cs)
);
}
);
width = 480;
},
{
anchors = (
{
name = bottom;
pos = (240,0);
},
{
name = center;
pos = (240,320);
},
{
name = origin.hook;
pos = (60,640);
},
{
name = stemUC;
pos = (243,362);
},
{
name = top;
pos = (228,640);
}
);
layerId = "92967D72-867E-4A8B-929F-F44D834DD4C9";
shapes = (
{
closed = 1;
nodes = (
(50,640,l),
(50,0,l),
(215,0,ls),
(373,0,o),
(436,86,o),
(436,317,cs),
(436,547,o),
(373,640,o),
(214,640,cs)
);
},
{
closed = 1;
nodes = (
(162,80,l),
(162,560,l),
(208,560,ls),
(305,560,o),
(318,489,o),
(318,317,cs),
(318,151,o),
(307,80,o),
(208,80,cs)
);
}
);
width = 480;
},
{
anchors = (
{
name = bottom;
pos = (240,0);
},
{
name = center;
pos = (240,320);
},
{
name = origin.hook;
pos = (60,640);
},
{
name = stemUC;
pos = (243,362);
},
{
name = top;
pos = (228,640);
}
);
layerId = "7DDCEF54-C770-4FAD-B154-EE8058BAA7E5";
shapes = (
{
closed = 1;
nodes = (
(66,640,l),
(66,0,l),
(212,0,ls),
(360,0,o),
(420,86,o),
(420,317,cs),
(420,547,o),
(360,640,o),
(211,640,cs)
);
},
{
closed = 1;
nodes = (
(114,44,l),
(114,596,l),
(205,596,ls),
(346,596,o),
(366,507,o),
(366,317,cs),
(366,133,o),
(348,44,o),
(205,44,cs)
);
}
);
width = 480;
}
);
metricWidth = "=_pixel*7.5";
unicode = 68;
}
{
color = 8;
glyphname = F;
kernRight = F;
layers = (
{
anchors = (
{
name = bottom;
pos = (96,0);
},
{
name = top;
pos = (209,640);
}
);
hints = (
{
horizontal = 1;
origin = (0,0);
type = TTSnap;
},
{
horizontal = 1;
options = 4;
origin = (0,8);
target = (0,5);
type = TTStem;
},
{
horizontal = 1;
options = 4;
origin = (0,1);
target = (0,4);
type = TTStem;
},
{
options = 4;
origin = (0,9);
target = (0,0);
type = TTStem;
},
{
options = 4;
origin = (0,0);
target = (0,4);
type = TTShift;
},
{
options = 8;
origin = (0,6);
type = TTSnap;
},
{
options = 8;
origin = (0,2);
type = TTSnap;
},
{
options = 8;
origin = (0,9);
type = TTSnap;
},
{
horizontal = 1;
origin = (0,0);
other1 = (0,1);
target = (0,8);
type = TTInterpolate;
}
);
layerId = "95FB0C11-C828-4064-8966-34220AA4D426";
shapes = (
{
closed = 1;
nodes = (
(132,0,l),
(132,256,l),
(305,256,l),
(305,320,l),
(132,320,l),
(132,576,l),
(354,576,l),
(354,640,l),
(60,640,l),
(60,0,l)
);
}
);
width = 384;
},
{
anchors = (
{
name = bottom;
pos = (98,0);
},
{
name = top;
pos = (209,640);
}
);
layerId = "92967D72-867E-4A8B-929F-F44D834DD4C9";
shapes = (
{
closed = 1;
nodes = (
(162,0,l),
(162,248,l),
(312,248,l),
(312,328,l),
(162,328,l),
(162,560,l),
(360,560,l),
(360,640,l),
(50,640,l),
(50,0,l)
);
}
);
width = 384;
},
{
anchors = (
{
name = bottom;
pos = (95,0);
},
{
name = top;
pos = (209,640);
}
);
layerId = "7DDCEF54-C770-4FAD-B154-EE8058BAA7E5";
shapes = (
{
closed = 1;
nodes = (
(114,0,l),
(114,266,l),
(307,266,l),
(307,310,l),
(114,310,l),
(114,596,l),
(356,596,l),
(356,640,l),
(66,640,l),
(66,0,l)
);
}
);
width = 384;
}
);
metricWidth = "=_pixel*6";
unicode = 70;
}
{
color = 8;
glyphname = G;
kernLeft = O;
kernRight = G;
layers = (
{
anchors = (
{
name = "#center";
pos = (328,160);
},
{
name = bottom;
pos = (228,0);
},
{
name = top;
pos = (244,640);
}
);
background = {
anchors = (
{
name = bottom;
pos = (228,0);
},
{
name = top;
pos = (244,640);
}
);
hints = (
{
horizontal = 1;
options = 4;
origin = (0,25);
target = (0,6);
type = TTStem;
},
{
horizontal = 1;
options = 4;
origin = (0,19);
target = (0,12);
type = TTStem;
},
{
horizontal = 1;
origin = (0,25);
other1 = (1,1);
target = (0,19);
type = TTInterpolate;
},
{
horizontal = 1;
options = 4;
origin = (1,1);
target = (1,4);
type = TTStem;
},
{
options = 4;
origin = (0,22);
target = (0,9);
type = TTStem;
},
{
options = 4;
origin = (1,1);
target = (1,4);
type = TTStem;
},
{
options = 8;
origin = (1,3);
type = TTSnap;
},
{
options = 4;
origin = (1,1);
target = (0,16);
type = TTShift;
},
{
options = 8;
origin = (0,22);
type = TTSnap;
},
{
options = 8;
origin = (1,1);
type = TTSnap;
}
);
shapes = (
{
closed = 1;
nodes = (
(303,-9,o),
(355,-4,o),
(396,7,c),
(379,67,l),
(338,58,o),
(298,55,o),
(274,55,cs),
(136,55,o),
(124,131,o),
(124,319,cs),
(124,507,o),
(136,583,o),
(274,583,cs),
(298,583,o),
(338,580,o),
(379,571,c),
(393,632,l),
(352,642,o),
(303,647,o),
(268,647,cs),
(106,647,o),
(46,560,o),
(46,319,cs),
(46,78,o),
(106,-9,o),
(268,-9,cs)
);
},
{
closed = 1;
nodes = (
(396,7,l),
(396,320,l),
(218,320,l),
(218,256,l),
(324,256,l),
(324,7,l)
);
}
);
};
hints = (
{
horizontal = 1;
options = 4;
origin = (0,29);
target = (0,10);
type = TTStem;
},
{
horizontal = 1;
options = 4;
origin = (0,23);
target = (0,16);
type = TTStem;
},
{
horizontal = 1;
origin = (0,29);
other1 = (0,3);
target = (0,23);
type = TTInterpolate;
},
{
horizontal = 1;
options = 4;
origin = (0,3);
target = (0,6);
type = TTStem;
},
{
options = 4;
origin = (0,26);
target = (0,13);
type = TTStem;
},
{
options = 4;
origin = (0,3);
target = (0,6);
type = TTStem;
},
{
options = 8;
origin = (0,5);
type = TTSnap;
},
{
options = 4;
origin = (0,3);
target = (0,20);
type = TTShift;
},
{
options = 8;
origin = (0,26);
type = TTSnap;
},
{
options = 8;
origin = (0,3);
type = TTSnap;
}
);
layerId = "95FB0C11-C828-4064-8966-34220AA4D426";
shapes = (
{
closed = 1;
nodes = (
(303,-9,o),
(355,-4,o),
(396,7,c),
(396,320,l),
(218,320,l),
(218,256,l),
(324,256,l),
(324,58,l),
(307,56,o),
(291,55,o),
(274,55,cs),
(136,55,o),
(124,131,o),
(124,319,cs),
(124,507,o),
(136,583,o),
(274,583,cs),
(298,583,o),
(338,580,o),
(379,571,c),
(393,632,l),
(352,642,o),
(303,647,o),
(268,647,cs),
(106,647,o),
(46,560,o),
(46,319,cs),
(46,78,o),
(106,-9,o),
(268,-9,cs)
);
}
);
width = 456;
},
{
anchors = (
{
name = "#center";
pos = (328,160);
},
{
name = bottom;
pos = (228,0);
},
{
name = top;
pos = (244,640);
}
);
background = {
anchors = (
{
name = bottom;
pos = (228,0);
},
{
name = top;
pos = (244,640);
}
);
shapes = (
{
closed = 1;
nodes = (
(308,-9,o),
(364,-4,o),
(406,7,c),
(389,83,l),
(351,77,o),
(310,71,o),
(273,71,cs),
(163,71,o),
(152,142,o),
(152,319,cs),
(152,496,o),
(163,567,o),
(290,567,cs),
(312,567,o),
(350,564,o),
(389,555,c),
(403,629,l),
(360,641,o),
(307,647,o),
(269,647,cs),
(98,647,o),
(34,560,o),
(34,319,cs),
(34,78,o),
(98,-9,o),
(270,-9,cs)
);
},
{
closed = 1;
nodes = (
(406,7,l),
(406,328,l),
(209,328,l),
(209,248,l),
(294,248,l),
(294,7,l)
);
}
);
};
layerId = "92967D72-867E-4A8B-929F-F44D834DD4C9";
shapes = (
{
closed = 1;
nodes = (
(308,-9,o),
(364,-4,o),
(406,7,c),
(406,328,l),
(209,328,l),
(209,248,l),
(294,248,l),
(294,72,l),
(286,71,o),
(280,71,o),
(273,71,cs),
(163,71,o),
(152,142,o),
(152,319,cs),
(152,496,o),
(163,567,o),
(290,567,cs),
(312,567,o),
(350,564,o),
(389,555,c),
(403,629,l),
(360,641,o),
(307,647,o),
(269,647,cs),
(98,647,o),
(34,560,o),
(34,319,cs),
(34,78,o),
(98,-9,o),
(270,-9,cs)
);
}
);
width = 456;
},
{
anchors = (
{
name = "#center";
pos = (328,160);
},
{
name = bottom;
pos = (228,0);
},
{
name = top;
pos = (244,640);
}
);
background = {
anchors = (
{
name = bottom;
pos = (228,0);
},
{
name = top;
pos = (244,640);
}
);
shapes = (
{
closed = 1;
nodes = (
(302,-9,o),
(352,-3,o),
(390,7,c),
(372,44,l),
(335,38,o),
(302,35,o),
(275,35,cs),
(137,35,o),
(104,117,o),
(104,319,cs),
(104,521,o),
(133,603,o),
(273,603,cs),
(304,603,o),
(340,600,o),
(376,594,c),
(382,634,l),
(350,642,o),
(305,647,o),
(270,647,cs),
(110,647,o),
(50,560,o),
(50,319,cs),
(50,78,o),
(110,-9,o),
(270,-9,cs)
);
},
{
closed = 1;
nodes = (
(390,7,l),
(390,310,l),
(243,310,l),
(243,266,l),
(342,266,l),
(342,7,l)
);
}
);
};
layerId = "7DDCEF54-C770-4FAD-B154-EE8058BAA7E5";
shapes = (
{
closed = 1;
nodes = (
(302,-9,o),
(352,-3,o),
(390,7,c),
(390,310,l),
(243,310,l),
(243,266,l),
(342,266,l),
(342,40,l),
(320,37,o),
(297,35,o),
(275,35,cs),
(137,35,o),
(104,117,o),
(104,319,cs),
(104,521,o),
(133,603,o),
(273,603,cs),
(304,603,o),
(340,600,o),
(376,594,c),
(382,634,l),
(350,642,o),
(305,647,o),
(270,647,cs),
(110,647,o),
(50,560,o),
(50,319,cs),
(50,78,o),
(110,-9,o),
(270,-9,cs)
);
}
);
width = 456;
}
);
metricLeft = C.ss20;
metricRight = H.ss20;
unicode = 71;
}
{
color = 8;
glyphname = H;
layers = (
{
anchors = (
{
name = bottom;
pos = (240,0);
},
{
name = top;
pos = (240,640);
}
);
hints = (
{
horizontal = 1;
options = 4;
origin = (0,1);
target = (0,8);
type = TTStem;
},
{
horizontal = 1;
options = 4;
origin = (0,0);
target = (0,3);
type = TTShift;
},
{
horizontal = 1;
options = 4;
origin = (0,9);
target = (0,6);
type = TTShift;
},
{
options = 4;
origin = (0,11);
target = (0,0);
type = TTStem;
},
{
options = 4;
origin = (0,4);
target = (0,3);
type = TTStem;
},
{
options = 4;
origin = (0,0);
target = (0,8);
type = TTShift;
},
{
options = 4;
origin = (0,3);
target = (0,7);
type = TTShift;
},
{
options = 8;
origin = (0,11);
type = TTSnap;
},
{
options = 8;
origin = (0,4);
type = TTSnap;
},
{
horizontal = 1;
origin = (0,0);
other1 = (0,1);
target = (0,9);
type = TTInterpolate;
}
);
layerId = "95FB0C11-C828-4064-8966-34220AA4D426";
shapes = (
{
closed = 1;
nodes = (
(132,0,l),
(132,256,l),
(348,256,l),
(348,0,l),
(420,0,l),
(420,640,l),
(348,640,l),
(348,320,l),
(132,320,l),
(132,640,l),
(60,640,l),
(60,0,l)
);
}
);
width = 480;
},
{
anchors = (
{
name = bottom;
pos = (240,0);
},
{
name = top;
pos = (240,640);
}
);
layerId = "92967D72-867E-4A8B-929F-F44D834DD4C9";
shapes = (
{
closed = 1;
nodes = (
(162,0,l),
(162,248,l),
(318,248,l),
(318,0,l),
(430,0,l),
(430,640,l),
(318,640,l),
(318,328,l),
(162,328,l),
(162,640,l),
(50,640,l),
(50,0,l)
);
}
);
width = 480;
},
{
anchors = (
{
name = bottom;
pos = (240,0);
},
{
name = top;
pos = (240,640);
}
);
layerId = "7DDCEF54-C770-4FAD-B154-EE8058BAA7E5";
shapes = (
{
closed = 1;
nodes = (
(114,0,l),
(114,266,l),
(366,266,l),
(366,0,l),
(414,0,l),
(414,640,l),
(366,640,l),
(366,310,l),
(114,310,l),
(114,640,l),
(66,640,l),
(66,0,l)
);
}
);
width = 480;
}
);
metricWidth = "=_pixel*7.5";
unicode = 72;
}
{
color = 8;
glyphname = L;
kernRight = L;
layers = (
{
anchors = (
{
name = "#center";
pos = (128,352);
},
{
name = "#slash";
pos = (112,271);
},
{
name = bottom;
pos = (192,0);
},
{
name = top;
pos = (96,640);
}
);
hints = (
{
horizontal = 1;
options = 4;
origin = (0,5);
target = (0,2);
type = TTStem;
},
{
horizontal = 1;
origin = (0,3);
type = TTSnap;
},
{
options = 8;
origin = (0,5);
type = TTSnap;
},
{
options = 4;
origin = (0,5);
target = (0,2);
type = TTStem;
},
{
options = 8;
origin = (0,0);
type = TTSnap;
}
);
layerId = "95FB0C11-C828-4064-8966-34220AA4D426";
shapes = (
{
closed = 1;
nodes = (
(354,0,l),
(354,64,l),
(132,64,l),
(132,640,l),
(60,640,l),
(60,0,l)
);
}
);
width = 384;
},
{
anchors = (
{
name = "#center";
pos = (128,352);
},
{
name = "#slash";
pos = (112,271);
},
{
name = bottom;
pos = (192,0);
},
{
name = top;
pos = (106,640);
}
);
layerId = "92967D72-867E-4A8B-929F-F44D834DD4C9";
shapes = (
{
closed = 1;
nodes = (
(342,0,l),
(342,88,l),
(162,88,l),
(162,640,l),
(50,640,l),
(50,0,l)
);
}
);
width = 384;
},
{
anchors = (
{
name = "#center";
pos = (128,352);
},
{
name = "#slash";
pos = (112,271);
},
{
name = bottom;
pos = (192,0);
},
{
name = top;
pos = (90,640);
}
);
layerId = "7DDCEF54-C770-4FAD-B154-EE8058BAA7E5";
shapes = (
{
closed = 1;
nodes = (
(332,0,l),
(332,44,l),
(114,44,l),
(114,640,l),
(66,640,l),
(66,0,l)
);
}
);
width = 384;
}
);
metricWidth = "=_pixel*6";
unicode = 76;
}
{
color = 8;
glyphname = N;
layers = (
{
anchors = (
{
name = bottom;
pos = (240,0);
},
{
name = top;
pos = (240,640);
}
);
background = {
anchors = (
{
name = bottom;
pos = (240,0);
},
{
name = top;
pos = (240,640);
}
);
hints = (
{
horizontal = 1;
options = 4;
origin = (1,3);
target = (2,2);
type = TTShift;
},
{
horizontal = 1;
options = 4;
origin = (1,0);
target = (2,0);
type = TTShift;
},
{
options = 8;
origin = (1,4);
type = TTSnap;
},
{
options = 4;
origin = (1,4);
target = (1,0);
type = TTStem;
},
{
options = 8;
origin = (2,1);
type = TTSnap;
},
{
options = 4;
origin = (2,1);
target = (2,2);
type = TTStem;
},
{
options = 4;
origin = (2,2);
target = (0,3);
type = TTShift;
},
{
options = 4;
origin = (1,0);
target = (0,1);
type = TTShift;
},
{
horizontal = 1;
options = 4;
origin = (1,3);
other1 = (0,3,1,1);
target = (1,0);
type = TTInterpolate;
},
{
horizontal = 1;
options = 4;
origin = (1,3);
other1 = (0,1,2,3);
target = (1,0);
type = TTInterpolate;
}
);
shapes = (
{
closed = 1;
nodes = (
(401,25,l),
(150,640,l),
(82,615,l),
(334,0,l)
);
},
{
closed = 1;
nodes = (
(132,0,l),
(132,608,l),
(150,640,l),
(60,640,l),
(60,0,l)
);
},
{
closed = 1;
nodes = (
(420,0,l),
(420,640,l),
(348,640,l),
(348,31,l),
(334,0,l)
);
}
);
};
hints = (
{
horizontal = 1;
options = 4;
origin = (0,5);
target = (0,2);
type = TTShift;
},
{
horizontal = 1;
options = 4;
origin = (0,7);
target = (0,0);
type = TTShift;
},
{
options = 8;
origin = (0,6);
type = TTSnap;
},
{
options = 4;
origin = (0,6);
target = (0,7);
type = TTStem;
},
{
options = 8;
origin = (0,1);
type = TTSnap;
},
{
options = 4;
origin = (0,1);
target = (0,2);
type = TTStem;
},
{
options = 4;
origin = (0,2);
target = (0,9);
type = TTShift;
},
{
options = 4;
origin = (0,7);
target = (0,4);
type = TTShift;
},
{
horizontal = 1;
options = 4;
origin = (0,5);
other1 = (0,8);
target = (0,7);
type = TTInterpolate;
},
{
horizontal = 1;
options = 4;
origin = (0,5);
other1 = (0,3);
target = (0,7);
type = TTInterpolate;
}
);
layerId = "95FB0C11-C828-4064-8966-34220AA4D426";
shapes = (
{
closed = 1;
nodes = (
(420,0,l),
(420,640,l),
(348,640,l),
(348,155,l),
(150,640,l),
(60,640,l),
(60,0,l),
(132,0,l),
(132,493,l),
(334,0,l)
);
}
);
width = 480;
},
{
anchors = (
{
name = bottom;
pos = (240,0);
},
{
name = top;
pos = (240,640);
}
);
background = {
anchors = (
{
name = bottom;
pos = (240,0);
},
{
name = top;
pos = (240,640);
}
);
shapes = (
{
closed = 1;
nodes = (
(410,0,l),
(186,640,l),
(76,640,l),
(300,0,l)
);
},
{
closed = 1;
nodes = (
(140,0,l),
(140,608,l),
(186,640,l),
(52,640,l),
(52,0,l)
);
},
{
closed = 1;
nodes = (
(428,0,l),
(428,640,l),
(340,640,l),
(340,31,l),
(299,0,l)
);
}
);
};
layerId = "92967D72-867E-4A8B-929F-F44D834DD4C9";
shapes = (
{
closed = 1;
nodes = (
(428,0,l),
(428,640,l),
(340,640,l),
(340,200,l),
(186,640,l),
(52,640,l),
(52,0,l),
(140,0,l),
(140,457,l),
(300,0,l)
);
}
);
width = 480;
},
{
anchors = (
{
name = bottom;
pos = (240,0);
},
{
name = top;
pos = (240,640);
}
);
background = {
anchors = (
{
name = bottom;
pos = (240,0);
},
{
name = top;
pos = (240,640);
}
);
shapes = (
{
closed = 1;
nodes = (
(404,0,l),
(135,640,l),
(81,640,l),
(350,0,l)
);
},
{
closed = 1;
nodes = (
(114,0,l),
(114,608,l),
(135,640,l),
(66,640,l),
(66,0,l)
);
},
{
closed = 1;
nodes = (
(414,0,l),
(414,640,l),
(366,640,l),
(366,31,l),
(350,0,l)
);
}
);
};
layerId = "7DDCEF54-C770-4FAD-B154-EE8058BAA7E5";
shapes = (
{
closed = 1;
nodes = (
(414,0,l),
(414,640,l),
(366,640,l),
(366,90,l),
(135,640,l),
(66,640,l),
(66,0,l),
(114,0,l),
(114,561,l),
(350,0,l)
);
}
);
width = 480;
}
);
metricWidth = "=_pixel*7.5";
unicode = 78;
}
{
color = 8;
glyphname = O;
kernLeft = O;
kernRight = O;
layers = (
{
anchors = (
{
name = "#center";
pos = (240,319);
},
{
name = bottom;
pos = (240,0);
},
{
name = bottomAttach;
pos = (305,0);
},
{
name = top;
pos = (240,640);
}
);
hints = (
{
horizontal = 1;
options = 4;
origin = (0,11);
target = (1,11);
type = TTStem;
},
{
horizontal = 1;
options = 4;
origin = (0,5);
target = (1,5);
type = TTStem;
},
{
options = 4;
origin = (0,8);
target = (1,2);
type = TTStem;
},
{
options = 4;
origin = (0,2);
target = (1,8);
type = TTStem;
},
{
options = 8;
origin = (0,8);
type = TTSnap;
},
{
options = 8;
origin = (0,2);
type = TTSnap;
}
);
layerId = "95FB0C11-C828-4064-8966-34220AA4D426";
shapes = (
{
closed = 1;
nodes = (
(379,-10,o),
(442,102,o),
(442,319,cs),
(442,541,o),
(379,650,o),
(240,650,cs),
(104,650,o),
(38,541,o),
(38,319,cs),
(38,102,o),
(104,-10,o),
(240,-10,cs)
);
},
{
closed = 1;
nodes = (
(148,56,o),
(114,128,o),
(114,319,cs),
(114,512,o),
(148,584,o),
(240,584,cs),
(332,584,o),
(366,512,o),
(366,319,cs),
(366,128,o),
(332,56,o),
(240,56,cs)
);
}
);
width = 480;
},
{
anchors = (
{
name = "#center";
pos = (240,319);
},
{
name = bottom;
pos = (240,0);
},
{
name = bottomAttach;
pos = (303,0);
},
{
name = top;
pos = (240,640);
}
);
layerId = "92967D72-867E-4A8B-929F-F44D834DD4C9";
shapes = (
{
closed = 1;
nodes = (
(387,-10,o),
(453,102,o),
(453,319,cs),
(453,541,o),
(387,650,o),
(240,650,cs),
(97,650,o),
(27,541,o),
(27,319,cs),
(27,102,o),
(97,-10,o),
(240,-10,cs)
);
},
{
closed = 1;
nodes = (
(169,72,o),
(143,140,o),
(143,319,cs),
(143,500,o),
(169,568,o),
(240,568,cs),
(311,568,o),
(337,500,o),
(337,319,cs),
(337,140,o),
(311,72,o),
(240,72,cs)
);
}
);
width = 480;
},
{
anchors = (
{
name = "#center";
pos = (240,319);
},
{
name = bottom;
pos = (240,0);
},
{
name = bottomAttach;
pos = (298,0);
},
{
name = top;
pos = (240,640);
}
);
layerId = "7DDCEF54-C770-4FAD-B154-EE8058BAA7E5";
shapes = (
{
closed = 1;
nodes = (
(376,-10,o),
(437,102,o),
(437,319,cs),
(437,541,o),
(376,650,o),
(240,650,cs),
(107,650,o),
(43,541,o),
(43,319,cs),
(43,102,o),
(107,-10,o),
(240,-10,cs)
);
},
{
closed = 1;
nodes = (
(137,34,o),
(95,121,o),
(95,319,cs),
(95,519,o),
(137,606,o),
(240,606,cs),
(343,606,o),
(385,519,o),
(385,319,cs),
(385,121,o),
(343,34,o),
(240,34,cs)
);
}
);
width = 480;
}
);
metricWidth = "=_pixel*7.5";
unicode = 79;
}
{
color = 8;
glyphname = Q;
kernLeft = O;
kernRight = Q;
layers = (
{
anchors = (
{
name = bottom;
pos = (240,-128);
},
{
name = top;
pos = (240,640);
}
);
background = {
shapes = (
{
closed = 1;
nodes = (
(431,-78,l),
(345,-72,o),
(307,-60,o),
(297,0,c),
(222,0,l),
(238,-101,o),
(321,-137,o),
(421,-145,c)
);
},
{
closed = 1;
nodes = (
(379,-10,o),
(442,102,o),
(442,319,cs),
(442,541,o),
(379,650,o),
(240,650,cs),
(104,650,o),
(38,541,o),
(38,319,cs),
(38,102,o),
(104,-10,o),
(240,-10,cs)
);
},
{
closed = 1;
nodes = (
(148,56,o),
(114,128,o),
(114,319,cs),
(114,512,o),
(148,584,o),
(240,584,cs),
(332,584,o),
(366,512,o),
(366,319,cs),
(366,128,o),
(332,56,o),
(240,56,cs)
);
}
);
};
hints = (
{
horizontal = 1;
origin = (0,18);
type = TTSnap;
},
{
horizontal = 1;
options = 4;
origin = (0,18);
target = (0,0);
type = TTStem;
},
{
horizontal = 1;
options = 4;
origin = (0,15);
target = (1,11);
type = TTStem;
},
{
horizontal = 1;
options = 4;
origin = (0,9);
target = (1,5);
type = TTStem;
},
{
options = 4;
origin = (0,12);
target = (1,2);
type = TTStem;
},
{
options = 4;
origin = (0,6);
target = (1,8);
type = TTStem;
},
{
horizontal = 1;
options = 4;
origin = (0,15);
other1 = (0,3);
target = (0,9);
type = TTInterpolate;
},
{
origin = (0,6);
target = (0,0);
type = TTShift;
},
{
options = 8;
origin = (0,12);
type = TTSnap;
},
{
options = 8;
origin = (0,6);
type = TTSnap;
},
{
origin = (0,12);
other1 = (0,15);
target = (0,6);
type = TTInterpolate;
},
{
options = 4;
origin = (0,15);
target = (0,3);
type = TTStem;
}
);
layerId = "95FB0C11-C828-4064-8966-34220AA4D426";
shapes = (
{
closed = 1;
nodes = (
(431,-78,l),
(345,-72,o),
(308,-61,o),
(297,-2,c),
(396,26,o),
(442,135,o),
(442,319,cs),
(442,541,o),
(379,650,o),
(240,650,cs),
(104,650,o),
(38,541,o),
(38,319,cs),
(38,111,o),
(100,-1,o),
(224,-9,c),
(243,-102,o),
(323,-137,o),
(421,-145,c)
);
},
{
closed = 1;
nodes = (
(148,56,o),
(114,128,o),
(114,319,cs),
(114,512,o),
(148,584,o),
(240,584,cs),
(332,584,o),
(366,512,o),
(366,319,cs),
(366,128,o),
(332,56,o),
(240,56,cs)
);
}
);
width = 480;
},
{
anchors = (
{
name = bottom;
pos = (240,-128);
},
{
name = top;
pos = (240,640);
}
);
background = {
shapes = (
{
closed = 1;
nodes = (
(437,-60,l),
(350,-58,o),
(302,-41,o),
(294,20,c),
(201,20,l),
(219,-95,o),
(291,-147,o),
(428,-152,c)
);
},
{
closed = 1;
nodes = (
(387,-10,o),
(453,102,o),
(453,319,cs),
(453,541,o),
(387,650,o),
(240,650,cs),
(97,650,o),
(27,541,o),
(27,319,cs),
(27,102,o),
(97,-10,o),
(240,-10,cs)
);
},
{
closed = 1;
nodes = (
(169,72,o),
(143,140,o),
(143,319,cs),
(143,500,o),
(169,568,o),
(240,568,cs),
(311,568,o),
(337,500,o),
(337,319,cs),
(337,140,o),
(311,72,o),
(240,72,cs)
);
}
);
};
layerId = "92967D72-867E-4A8B-929F-F44D834DD4C9";
shapes = (
{
closed = 1;
nodes = (
(437,-60,l),
(361,-58,o),
(316,-45,o),
(300,-3,c),
(406,25,o),
(453,134,o),
(453,319,cs),
(453,541,o),
(387,650,o),
(240,650,cs),
(97,650,o),
(27,541,o),
(27,319,cs),
(27,120,o),
(85,9,o),
(207,-8,c),
(232,-104,o),
(302,-147,o),
(428,-152,c)
);
},
{
closed = 1;
nodes = (
(169,72,o),
(143,140,o),
(143,319,cs),
(143,500,o),
(169,568,o),
(240,568,cs),
(311,568,o),
(337,500,o),
(337,319,cs),
(337,140,o),
(311,72,o),
(240,72,cs)
);
}
);
width = 480;
},
{
anchors = (
{
name = bottom;
pos = (240,-128);
},
{
name = top;
pos = (240,640);
}
);
background = {
shapes = (
{
closed = 1;
nodes = (
(419,-82,l),
(327,-81,o),
(291,-63,o),
(281,0,c),
(236,0,l),
(249,-90,o),
(302,-128,o),
(417,-128,c)
);
},
{
closed = 1;
nodes = (
(376,-10,o),
(437,102,o),
(437,319,cs),
(437,541,o),
(376,650,o),
(240,650,cs),
(107,650,o),
(43,541,o),
(43,319,cs),
(43,102,o),
(107,-10,o),
(240,-10,cs)
);
},
{
closed = 1;
nodes = (
(137,34,o),
(95,121,o),
(95,319,cs),
(95,519,o),
(137,606,o),
(240,606,cs),
(343,606,o),
(385,519,o),
(385,319,cs),
(385,121,o),
(343,34,o),
(240,34,cs)
);
}
);
};
layerId = "7DDCEF54-C770-4FAD-B154-EE8058BAA7E5";
shapes = (
{
closed = 1;
nodes = (
(419,-82,l),
(329,-81,o),
(293,-63,o),
(282,-6,c),
(389,16,o),
(437,126,o),
(437,319,cs),
(437,541,o),
(376,650,o),
(240,650,cs),
(107,650,o),
(43,541,o),
(43,319,cs),
(43,103,o),
(107,-9,o),
(238,-10,c),
(253,-92,o),
(306,-128,o),
(417,-128,c)
);
},
{
closed = 1;
nodes = (
(137,34,o),
(95,121,o),
(95,319,cs),
(95,519,o),
(137,606,o),
(240,606,cs),
(343,606,o),
(385,519,o),
(385,319,cs),
(385,121,o),
(343,34,o),
(240,34,cs)
);
}
);
width = 480;
},
{
anchors = (
{
name = bottom;
pos = (240,-64);
},
{
name = top;
pos = (240,640);
}
);
associatedMasterId = "95FB0C11-C828-4064-8966-34220AA4D426";
attr = {
coordinates = (
400,
-64,
0
);
};
background = {
shapes = (
{
closed = 1;
nodes = (
(431,-14,l),
(351,-13,o),
(320,-10,o),
(312,13,c),
(227,0,l),
(259,-70,o),
(318,-79,o),
(428,-81,c)
);
},
{
closed = 1;
nodes = (
(379,-10,o),
(442,102,o),
(442,319,cs),
(442,541,o),
(379,650,o),
(240,650,cs),
(104,650,o),
(38,541,o),
(38,319,cs),
(38,102,o),
(104,-10,o),
(240,-10,cs)
);
},
{
closed = 1;
nodes = (
(148,56,o),
(114,128,o),
(114,319,cs),
(114,512,o),
(148,584,o),
(240,584,cs),
(332,584,o),
(366,512,o),
(366,319,cs),
(366,128,o),
(332,56,o),
(240,56,cs)
);
}
);
};
hints = (
{
horizontal = 1;
origin = (0,18);
type = TTSnap;
},
{
horizontal = 1;
options = 4;
origin = (0,18);
target = (0,0);
type = TTStem;
},
{
horizontal = 1;
options = 4;
origin = (0,15);
target = (1,11);
type = TTStem;
},
{
horizontal = 1;
options = 4;
origin = (0,9);
target = (1,5);
type = TTStem;
},
{
options = 4;
origin = (0,12);
target = (1,2);
type = TTStem;
},
{
options = 4;
origin = (0,6);
target = (1,8);
type = TTStem;
},
{
horizontal = 1;
options = 4;
origin = (0,15);
other1 = (0,3);
target = (0,9);
type = TTInterpolate;
},
{
origin = (0,6);
target = (0,0);
type = TTShift;
},
{
options = 8;
origin = (0,12);
type = TTSnap;
},
{
options = 8;
origin = (0,6);
type = TTSnap;
},
{
origin = (0,12);
other1 = (0,15);
target = (0,6);
type = TTInterpolate;
},
{
options = 4;
origin = (0,15);
target = (0,3);
type = TTStem;
}
);
layerId = "FFFD30AC-D6CA-430A-B431-250D0CD7C132";
name = "5. Mar 25 at 09:20";
shapes = (
{
closed = 1;
nodes = (
(431,-14,l),
(361,-13,o),
(329,-10,o),
(317,4,c),
(403,41,o),
(442,147,o),
(442,319,cs),
(442,541,o),
(379,650,o),
(240,650,cs),
(104,650,o),
(38,541,o),
(38,319,cs),
(38,106,o),
(101,-5,o),
(232,-10,c),
(265,-71,o),
(323,-79,o),
(428,-81,c)
);
},
{
closed = 1;
nodes = (
(148,56,o),
(114,128,o),
(114,319,cs),
(114,512,o),
(148,584,o),
(240,584,cs),
(332,584,o),
(366,512,o),
(366,319,cs),
(366,128,o),
(332,56,o),
(240,56,cs)
);
}
);
width = 480;
},
{
anchors = (
{
name = bottom;
pos = (240,-64);
},
{
name = top;
pos = (240,640);
}
);
associatedMasterId = "92967D72-867E-4A8B-929F-F44D834DD4C9";
attr = {
coordinates = (
700,
-64,
0
);
};
background = {
shapes = (
{
closed = 1;
nodes = (
(387,-10,o),
(453,102,o),
(453,319,cs),
(453,541,o),
(387,650,o),
(240,650,cs),
(97,650,o),
(27,541,o),
(27,319,cs),
(27,102,o),
(97,-10,o),
(240,-10,cs)
);
},
{
closed = 1;
nodes = (
(169,72,o),
(143,140,o),
(143,319,cs),
(143,500,o),
(169,568,o),
(240,568,cs),
(311,568,o),
(337,500,o),
(337,319,cs),
(337,140,o),
(311,72,o),
(240,72,cs)
);
},
{
closed = 1;
nodes = (
(437,4,l),
(350,4,o),
(302,8,o),
(294,20,c),
(201,20,l),
(219,-52,o),
(291,-85,o),
(428,-88,c)
);
}
);
};
hints = (
{
horizontal = 1;
options = 4;
origin = (0,15);
target = (1,11);
type = TTStem;
},
{
horizontal = 1;
options = 4;
origin = (0,9);
target = (1,5);
type = TTStem;
},
{
options = 4;
origin = (0,12);
target = (1,2);
type = TTStem;
},
{
options = 4;
origin = (0,6);
target = (1,8);
type = TTStem;
},
{
options = 8;
origin = (0,12);
type = TTSnap;
},
{
options = 8;
origin = (0,6);
type = TTSnap;
}
);
layerId = "82FC737A-2882-45E1-AEC1-0AF021B07BE3";
name = "5. Mar 25 at 19:01";
shapes = (
{
closed = 1;
nodes = (
(437,4,l),
(390,4,o),
(354,5,o),
(330,8,c),
(415,48,o),
(453,153,o),
(453,319,cs),
(453,541,o),
(387,650,o),
(240,650,cs),
(97,650,o),
(27,541,o),
(27,319,cs),
(27,117,o),
(88,6,o),
(212,-8,c),
(241,-61,o),
(310,-85,o),
(428,-88,c)
);
},
{
closed = 1;
nodes = (
(169,72,o),
(143,140,o),
(143,319,cs),
(143,500,o),
(169,568,o),
(240,568,cs),
(311,568,o),
(337,500,o),
(337,319,cs),
(337,140,o),
(311,72,o),
(240,72,cs)
);
}
);
width = 480;
},
{
anchors = (
{
name = bottom;
pos = (240,-64);
},
{
name = top;
pos = (240,640);
}
);
associatedMasterId = "7DDCEF54-C770-4FAD-B154-EE8058BAA7E5";
attr = {
coordinates = (
200,
-64,
0
);
};
background = {
shapes = (
{
closed = 1;
nodes = (
(376,-10,o),
(437,102,o),
(437,319,cs),
(437,541,o),
(376,650,o),
(240,650,cs),
(107,650,o),
(43,541,o),
(43,319,cs),
(43,102,o),
(107,-10,o),
(240,-10,cs)
);
},
{
closed = 1;
nodes = (
(137,34,o),
(95,121,o),
(95,319,cs),
(95,519,o),
(137,606,o),
(240,606,cs),
(343,606,o),
(385,519,o),
(385,319,cs),
(385,121,o),
(343,34,o),
(240,34,cs)
);
},
{
closed = 1;
nodes = (
(419,-18,l),
(329,-18,o),
(294,-14,o),
(284,0,c),
(236,0,l),
(249,-45,o),
(302,-64,o),
(417,-64,c)
);
}
);
};
hints = (
{
horizontal = 1;
options = 4;
origin = (0,15);
target = (1,11);
type = TTStem;
},
{
horizontal = 1;
options = 4;
origin = (0,9);
target = (1,5);
type = TTStem;
},
{
options = 4;
origin = (0,12);
target = (1,2);
type = TTStem;
},
{
options = 4;
origin = (0,6);
target = (1,8);
type = TTStem;
},
{
options = 8;
origin = (0,12);
type = TTSnap;
},
{
options = 8;
origin = (0,6);
type = TTSnap;
}
);
layerId = "90701929-A82A-4D4F-BE8C-DB5BBC584AEB";
name = "5. Mar 25 at 19:02";
shapes = (
{
closed = 1;
nodes = (
(419,-18,l),
(340,-18,o),
(303,-15,o),
(289,-5,c),
(391,20,o),
(437,130,o),
(437,319,cs),
(437,541,o),
(376,650,o),
(240,650,cs),
(107,650,o),
(43,541,o),
(43,319,cs),
(43,102,o),
(108,-10,o),
(240,-10,c),
(258,-48,o),
(311,-64,o),
(417,-64,c)
);
},
{
closed = 1;
nodes = (
(137,34,o),
(95,121,o),
(95,319,cs),
(95,519,o),
(137,606,o),
(240,606,cs),
(343,606,o),
(385,519,o),
(385,319,cs),
(385,121,o),
(343,34,o),
(240,34,cs)
);
}
);
width = 480;
}
);
metricWidth = "=_pixel*7.5";
unicode = 81;
}
{
glyphname = R;
kernRight = R;
layers = (
{
anchors = (
{
name = bottom;
pos = (224,0);
},
{
name = top;
pos = (224,640);
}
);
background = {
anchors = (
{
name = bottom;
pos = (224,0);
},
{
name = top;
pos = (224,640);
}
);
hints = (
{
horizontal = 1;
options = 4;
origin = (0,2);
target = (2,7);
type = TTShift;
},
{
horizontal = 1;
options = 4;
origin = (0,12);
target = (1,2);
type = TTStem;
},
{
horizontal = 1;
origin = (0,3);
type = TTSnap;
},
{
horizontal = 1;
options = 4;
origin = (0,3);
target = (1,0);
type = TTStem;
},
{
horizontal = 1;
options = 4;
origin = (0,12);
other1 = (0,9,2,3);
target = (0,3);
type = TTInterpolate;
},
{
options = 4;
origin = (0,1);
target = (0,2);
type = TTStem;
},
{
options = 4;
origin = (0,9);
target = (1,5);
type = TTStem;
},
{
options = 4;
origin = (2,0);
target = (2,7);
type = TTStem;
},
{
options = 4;
origin = (0,2);
target = (1,0);
type = TTShift;
},
{
options = 8;
origin = (0,1);
type = TTSnap;
},
{
options = 8;
origin = (2,0);
type = TTSnap;
},
{
options = 8;
origin = (0,9);
type = TTSnap;
},
{
options = 4;
origin = (0,1);
other1 = (0,9,2,3);
target = (0,9);
type = TTInterpolate;
}
);
shapes = (
{
closed = 1;
nodes = (
(60,640,l),
(60,0,l),
(132,0,l),
(132,241,l),
(196,241,l),
(204,251,l),
(215,251,ls),
(327,251,o),
(401,312,o),
(401,440,cs),
(401,568,o),
(327,640,o),
(215,640,cs)
);
},
{
closed = 1;
nodes = (
(132,305,l),
(132,576,l),
(208,576,ls),
(301,576,o),
(325,522,o),
(325,440,cs),
(325,359,o),
(303,305,o),
(208,305,cs)
);
},
{
closed = 1;
nodes = (
(411,0,l),
(396,165,o),
(311,271,o),
(176,271,c),
(176,244,l),
(271,201,o),
(323,135,o),
(337,0,c)
);
}
);
};
hints = (
{
horizontal = 1;
options = 4;
origin = (0,2);
target = (0,7);
type = TTShift;
},
{
horizontal = 1;
options = 4;
origin = (0,17);
target = (1,2);
type = TTStem;
},
{
horizontal = 1;
origin = (0,3);
type = TTSnap;
},
{
horizontal = 1;
options = 4;
origin = (0,3);
target = (1,0);
type = TTStem;
},
{
horizontal = 1;
options = 4;
origin = (0,17);
other1 = (0,11);
target = (0,3);
type = TTInterpolate;
},
{
options = 4;
origin = (0,1);
target = (0,2);
type = TTStem;
},
{
options = 4;
origin = (0,14);
target = (1,5);
type = TTStem;
},
{
options = 4;
origin = (0,8);
target = (0,7);
type = TTStem;
},
{
options = 4;
origin = (0,2);
target = (1,0);
type = TTShift;
},
{
options = 8;
origin = (0,1);
type = TTSnap;
},
{
options = 8;
origin = (0,8);
type = TTSnap;
},
{
options = 8;
origin = (0,14);
type = TTSnap;
},
{
options = 4;
origin = (0,1);
other1 = (0,11);
target = (0,14);
type = TTInterpolate;
}
);
layerId = "95FB0C11-C828-4064-8966-34220AA4D426";
shapes = (
{
closed = 1;
nodes = (
(60,640,l),
(60,0,l),
(132,0,l),
(132,241,l),
(182,241,l),
(273,198,o),
(323,133,o),
(337,0,c),
(411,0,l),
(399,128,o),
(347,219,o),
(261,255,c),
(346,270,o),
(401,330,o),
(401,440,cs),
(401,568,o),
(327,640,o),
(215,640,cs)
);
},
{
closed = 1;
nodes = (
(132,305,l),
(132,576,l),
(208,576,ls),
(301,576,o),
(325,522,o),
(325,440,cs),
(325,359,o),
(303,305,o),
(208,305,cs)
);
}
);
width = 448;
},
{
anchors = (
{
name = bottom;
pos = (224,0);
},
{
name = top;
pos = (224,640);
}
);
background = {
anchors = (
{
name = bottom;
pos = (224,0);
},
{
name = top;
pos = (224,640);
}
);
shapes = (
{
closed = 1;
nodes = (
(50,640,l),
(50,0,l),
(162,0,l),
(162,233,l),
(196,233,l),
(204,243,l),
(215,243,ls),
(333,243,o),
(411,305,o),
(411,433,cs),
(411,566,o),
(335,640,o),
(218,640,cs)
);
},
{
closed = 1;
nodes = (
(162,313,l),
(162,560,l),
(194,560,ls),
(274,560,o),
(295,509,o),
(295,437,cs),
(295,365,o),
(276,313,o),
(194,313,cs)
);
},
{
closed = 1;
nodes = (
(421,0,l),
(407,172,o),
(316,279,o),
(176,279,c),
(176,236,l),
(253,195,o),
(296,129,o),
(307,0,c)
);
}
);
};
layerId = "92967D72-867E-4A8B-929F-F44D834DD4C9";
shapes = (
{
closed = 1;
nodes = (
(50,640,l),
(50,0,l),
(162,0,l),
(162,233,l),
(181,233,l),
(256,191,o),
(296,127,o),
(307,0,c),
(421,0,l),
(411,122,o),
(364,210,o),
(287,252,c),
(363,273,o),
(411,333,o),
(411,433,cs),
(411,566,o),
(335,640,o),
(218,640,cs)
);
},
{
closed = 1;
nodes = (
(162,313,l),
(162,560,l),
(194,560,ls),
(274,560,o),
(295,509,o),
(295,437,cs),
(295,365,o),
(276,313,o),
(194,313,cs)
);
}
);
width = 448;
},
{
anchors = (
{
name = bottom;
pos = (224,0);
},
{
name = top;
pos = (224,640);
}
);
background = {
anchors = (
{
name = bottom;
pos = (224,0);
},
{
name = top;
pos = (224,640);
}
);
shapes = (
{
closed = 1;
nodes = (
(66,640,l),
(66,0,l),
(114,0,l),
(114,251,l),
(196,251,l),
(204,253,l),
(215,253,ls),
(323,253,o),
(395,314,o),
(395,446,cs),
(395,570,o),
(326,640,o),
(215,640,cs)
);
},
{
closed = 1;
nodes = (
(114,295,l),
(114,596,l),
(214,596,ls),
(312,596,o),
(343,535,o),
(343,445,cs),
(343,355,o),
(312,295,o),
(214,295,cs)
);
},
{
closed = 1;
nodes = (
(405,0,l),
(389,161,o),
(302,270,o),
(176,270,c),
(176,254,l),
(292,209,o),
(338,137,o),
(355,0,c)
);
}
);
};
layerId = "7DDCEF54-C770-4FAD-B154-EE8058BAA7E5";
shapes = (
{
closed = 1;
nodes = (
(66,640,l),
(66,0,l),
(114,0,l),
(114,251,l),
(184,251,l),
(294,206,o),
(338,135,o),
(355,0,c),
(405,0,l),
(392,127,o),
(336,221,o),
(251,256,c),
(338,268,o),
(395,329,o),
(395,446,cs),
(395,570,o),
(326,640,o),
(215,640,cs)
);
},
{
closed = 1;
nodes = (
(114,295,l),
(114,596,l),
(214,596,ls),
(312,596,o),
(343,535,o),
(343,445,cs),
(343,355,o),
(312,295,o),
(214,295,cs)
);
}
);
width = 448;
}
);
unicode = 82;
}
{
color = 8;
glyphname = U;
kernLeft = U;
kernRight = U;
layers = (
{
anchors = (
{
name = bottom;
pos = (240,0);
},
{
name = bottomAttach;
pos = (299,0);
},
{
name = top;
pos = (240,640);
}
);
hints = (
{
horizontal = 1;
options = 4;
origin = (0,3);
target = (0,12);
type = TTStem;
},
{
horizontal = 1;
options = 4;
origin = (0,8);
target = (0,16);
type = TTShift;
},
{
options = 8;
origin = (0,0);
type = TTSnap;
},
{
options = 4;
origin = (0,0);
target = (0,15);
type = TTStem;
},
{
options = 8;
origin = (0,6);
type = TTSnap;
},
{
options = 4;
origin = (0,6);
target = (0,9);
type = TTStem;
}
);
layerId = "95FB0C11-C828-4064-8966-34220AA4D426";
shapes = (
{
closed = 1;
nodes = (
(60,180,ls),
(60,48,o),
(139,-10,o),
(240,-10,cs),
(341,-10,o),
(420,48,o),
(420,181,cs),
(420,640,l),
(348,640,l),
(348,177,ls),
(348,105,o),
(321,54,o),
(240,54,cs),
(157,54,o),
(132,106,o),
(132,178,cs),
(132,640,l),
(60,640,l)
);
}
);
width = 480;
},
{
anchors = (
{
name = bottom;
pos = (240,-8);
},
{
name = bottomAttach;
pos = (302,0);
},
{
name = top;
pos = (240,640);
}
);
layerId = "92967D72-867E-4A8B-929F-F44D834DD4C9";
shapes = (
{
closed = 1;
nodes = (
(50,191,ls),
(50,47,o),
(129,-10,o),
(240,-10,cs),
(351,-10,o),
(430,47,o),
(430,191,cs),
(430,640,l),
(318,640,l),
(318,186,ls),
(318,117,o),
(299,76,o),
(240,76,cs),
(178,76,o),
(162,117,o),
(162,186,cs),
(162,640,l),
(50,640,l)
);
}
);
width = 480;
},
{
anchors = (
{
name = bottom;
pos = (240,5);
},
{
name = bottomAttach;
pos = (297,0);
},
{
name = top;
pos = (240,640);
}
);
layerId = "7DDCEF54-C770-4FAD-B154-EE8058BAA7E5";
shapes = (
{
closed = 1;
nodes = (
(66,173,ls),
(66,49,o),
(145,-10,o),
(240,-10,cs),
(335,-10,o),
(414,49,o),
(414,175,cs),
(414,640,l),
(366,640,l),
(366,172,ls),
(366,93,o),
(334,32,o),
(240,32,cs),
(144,32,o),
(114,94,o),
(114,173,cs),
(114,640,l),
(66,640,l)
);
}
);
width = 480;
}
);
metricWidth = "=_pixel*7.5";
unicode = 85;
}
{
color = 8;
glyphname = W;
kernLeft = W;
kernRight = W;
layers = (
{
anchors = (
{
name = bottom;
pos = (288,0);
},
{
name = top;
pos = (288,640);
}
);
background = {
anchors = (
{
name = bottom;
pos = (288,0);
},
{
name = top;
pos = (288,640);
}
);
shapes = (
{
closed = 1;
nodes = (
(191,0,l),
(130,211,o),
(96,409,o),
(94,640,c),
(45,640,l),
(50,408,o),
(79,210,o),
(151,0,c)
);
},
{
closed = 1;
nodes = (
(271,190,o),
(300,384,o),
(299,576,c),
(264,576,l),
(261,384,o),
(230,190,o),
(167,0,c),
(207,0,l)
);
},
{
closed = 1;
nodes = (
(497,210,o),
(526,408,o),
(531,640,c),
(482,640,l),
(480,409,o),
(448,211,o),
(387,0,c),
(425,0,l)
);
},
{
closed = 1;
nodes = (
(411,0,l),
(347,190,o),
(315,384,o),
(312,576,c),
(277,576,l),
(276,384,o),
(303,190,o),
(369,0,c)
);
}
);
};
layerId = "7DDCEF54-C770-4FAD-B154-EE8058BAA7E5";
shapes = (
{
closed = 1;
nodes = (
(207,0,l),
(248,121,o),
(274,241,o),
(288,364,c),
(301,243,o),
(327,121,o),
(369,0,c),
(425,0,l),
(497,210,o),
(526,408,o),
(531,640,c),
(482,640,l),
(480,423,o),
(452,237,o),
(398,40,c),
(343,216,o),
(315,397,o),
(312,576,c),
(264,576,l),
(261,397,o),
(234,216,o),
(180,40,c),
(126,237,o),
(96,423,o),
(94,640,c),
(45,640,l),
(50,408,o),
(79,210,o),
(151,0,c)
);
}
);
width = 576;
},
{
anchors = (
{
name = bottom;
pos = (288,0);
},
{
name = top;
pos = (288,640);
}
);
background = {
anchors = (
{
name = bottom;
pos = (288,0);
},
{
name = top;
pos = (288,640);
}
);
hints = (
{
horizontal = 1;
options = 4;
origin = (1,7);
target = (3,7);
type = TTShift;
},
{
horizontal = 1;
options = 4;
origin = (0,3);
target = (2,3);
type = TTShift;
},
{
horizontal = 1;
options = 4;
origin = (1,7);
other1 = (0,3,1,6);
target = (0,3);
type = TTInterpolate;
},
{
horizontal = 1;
options = 4;
origin = (0,3,1,6);
target = (2,6,3,3);
type = TTShift;
},
{
horizontal = 1;
origin = (1,7);
other1 = (1,3);
target = (0,3);
type = TTInterpolate;
},
{
horizontal = 1;
options = 4;
origin = (1,7);
other1 = (1,2,3,7);
target = (1,3);
type = TTInterpolate;
}
);
shapes = (
{
closed = 1;
nodes = (
(195,0,l),
(144,211,o),
(114,409,o),
(110,640,c),
(38,640,l),
(43,408,o),
(69,210,o),
(136,0,c)
);
},
{
closed = 1;
nodes = (
(280,190,o),
(301,373,o),
(300,576,c),
(252,576,l),
(250,384,o),
(221,190,o),
(165,0,c),
(220,0,l)
);
},
{
closed = 1;
nodes = (
(507,210,o),
(533,408,o),
(538,640,c),
(466,640,l),
(462,409,o),
(434,211,o),
(383,0,c),
(440,0,l)
);
},
{
closed = 1;
nodes = (
(415,0,l),
(359,190,o),
(326,384,o),
(324,576,c),
(276,576,l),
(275,373,o),
(295,190,o),
(356,0,c)
);
}
);
};
hints = (
{
horizontal = 1;
options = 4;
origin = (0,0);
target = (0,6);
type = TTShift;
},
{
horizontal = 1;
options = 4;
origin = (0,24);
target = (0,11);
type = TTShift;
},
{
horizontal = 1;
options = 4;
origin = (0,0);
other1 = (0,21);
target = (0,24);
type = TTInterpolate;
},
{
horizontal = 1;
options = 4;
origin = (0,21);
target = (0,14);
type = TTShift;
},
{
horizontal = 1;
origin = (0,0);
other1 = (0,18);
target = (0,24);
type = TTInterpolate;
},
{
horizontal = 1;
options = 4;
origin = (0,0);
other1 = (0,3);
target = (0,18);
type = TTInterpolate;
}
);
layerId = "95FB0C11-C828-4064-8966-34220AA4D426";
shapes = (
{
closed = 1;
nodes = (
(220,0,l),
(254,108,o),
(276,215,o),
(288,324,c),
(300,214,o),
(321,109,o),
(356,0,c),
(440,0,l),
(507,210,o),
(533,408,o),
(538,640,c),
(466,640,l),
(462,431,o),
(439,251,o),
(397,62,c),
(352,232,o),
(326,404,o),
(324,576,c),
(252,576,l),
(250,403,o),
(226,229,o),
(181,58,c),
(138,249,o),
(114,430,o),
(110,640,c),
(38,640,l),
(43,408,o),
(69,210,o),
(136,0,c)
);
}
);
width = 576;
},
{
anchors = (
{
name = bottom;
pos = (288,0);
},
{
name = top;
pos = (288,640);
}
);
background = {
anchors = (
{
name = bottom;
pos = (288,0);
},
{
name = top;
pos = (288,640);
}
);
shapes = (
{
closed = 1;
nodes = (
(215,0,l),
(164,211,o),
(134,409,o),
(130,640,c),
(17,640,l),
(23,408,o),
(49,210,o),
(116,0,c)
);
},
{
closed = 1;
nodes = (
(286,190,o),
(306,356,o),
(305,576,c),
(237,576,l),
(235,384,o),
(208,190,o),
(155,0,c),
(230,0,l)
);
},
{
closed = 1;
nodes = (
(527,210,o),
(553,408,o),
(559,640,c),
(446,640,l),
(442,409,o),
(414,211,o),
(363,0,c),
(460,0,l)
);
},
{
closed = 1;
nodes = (
(425,0,l),
(372,190,o),
(341,384,o),
(339,576,c),
(271,576,l),
(270,356,o),
(289,190,o),
(346,0,c)
);
}
);
};
layerId = "92967D72-867E-4A8B-929F-F44D834DD4C9";
shapes = (
{
closed = 1;
nodes = (
(230,0,l),
(257,92,o),
(276,179,o),
(288,269,c),
(300,178,o),
(318,93,o),
(346,0,c),
(460,0,l),
(527,210,o),
(553,408,o),
(559,640,c),
(446,640,l),
(443,458,o),
(425,296,o),
(392,131,c),
(359,280,o),
(341,427,o),
(339,576,c),
(237,576,l),
(235,426,o),
(219,276,o),
(187,127,c),
(153,294,o),
(133,457,o),
(130,640,c),
(17,640,l),
(23,408,o),
(49,210,o),
(116,0,c)
);
}
);
width = 576;
}
);
metricWidth = "=_pixel*9";
unicode = 87;
}
{
glyphname = X;
kernLeft = X;
kernRight = X;
layers = (
{
anchors = (
{
name = bottom;
pos = (224,0);
},
{
name = top;
pos = (224,640);
}
);
background = {
anchors = (
{
name = bottom;
pos = (224,0);
},
{
name = top;
pos = (224,640);
}
);
hints = (
{
horizontal = 1;
options = 4;
place = (0,0);
type = TTShift;
},
{
horizontal = 1;
options = 4;
place = (640,0);
type = TTShift;
},
{
options = 8;
place = (0,0);
type = TTSnap;
},
{
options = 8;
place = (0,0);
type = TTSnap;
},
{
options = 4;
place = (47,74);
type = TTStem;
},
{
options = 4;
place = (400,74);
type = TTStem;
},
{
options = 4;
place = (400,8);
type = TTShift;
},
{
options = 4;
place = (47,9);
type = TTShift;
},
{
options = 4;
place = (56,72);
type = TTStem;
},
{
options = 4;
place = (392,72);
type = TTStem;
},
{
horizontal = 1;
options = 4;
place = (0,150);
type = TTInterpolate;
},
{
horizontal = 1;
options = 4;
place = (0,150);
type = TTInterpolate;
}
);
shapes = (
{
closed = 1;
nodes = (
(217,264,l),
(279,184,o),
(302,122,o),
(326,0,c),
(400,0,l),
(376,129,o),
(345,209,o),
(265,312,c),
(230,335,l),
(166,409,o),
(142,484,o),
(128,640,c),
(56,640,l),
(72,469,o),
(104,377,o),
(190,282,c)
);
},
{
closed = 1;
nodes = (
(256,287,l),
(348,383,o),
(376,471,o),
(392,640,c),
(320,640,l),
(306,483,o),
(282,407,o),
(219,335,c),
(186,308,l),
(101,203,o),
(72,127,o),
(47,0,c),
(121,0,l),
(144,123,o),
(168,185,o),
(228,266,c)
);
}
);
};
hints = (
{
horizontal = 1;
options = 4;
origin = (0,6);
target = (0,0);
type = TTShift;
},
{
horizontal = 1;
options = 4;
origin = (0,20);
target = (0,14);
type = TTShift;
},
{
options = 8;
origin = (0,27);
type = TTSnap;
},
{
options = 8;
origin = (0,7);
type = TTSnap;
},
{
options = 4;
origin = (0,27);
target = (0,0);
type = TTStem;
},
{
options = 4;
origin = (0,7);
target = (0,6);
type = TTStem;
},
{
options = 4;
origin = (0,7);
target = (0,13);
type = TTShift;
},
{
options = 4;
origin = (0,27);
target = (0,21);
type = TTShift;
},
{
options = 4;
origin = (0,21);
target = (0,20);
type = TTStem;
},
{
options = 4;
origin = (0,13);
target = (0,14);
type = TTStem;
},
{
horizontal = 1;
options = 4;
origin = (0,6);
other1 = (0,3);
target = (0,20);
type = TTInterpolate;
},
{
horizontal = 1;
options = 4;
origin = (0,6);
other1 = (0,17);
target = (0,20);
type = TTInterpolate;
}
);
layerId = "95FB0C11-C828-4064-8966-34220AA4D426";
shapes = (
{
closed = 1;
nodes = (
(121,0,l),
(143,118,o),
(166,180,o),
(222,258,c),
(281,180,o),
(303,118,o),
(326,0,c),
(400,0,l),
(377,125,o),
(347,204,o),
(271,304,c),
(351,394,o),
(377,482,o),
(392,640,c),
(320,640,l),
(306,487,o),
(284,412,o),
(225,341,c),
(165,413,o),
(142,488,o),
(128,640,c),
(56,640,l),
(71,479,o),
(101,387,o),
(177,297,c),
(99,198,o),
(71,122,o),
(47,0,c)
);
}
);
width = 448;
},
{
anchors = (
{
name = bottom;
pos = (224,0);
},
{
name = top;
pos = (224,640);
}
);
background = {
shapes = (
{
closed = 1;
nodes = (
(195,264,l),
(252,184,o),
(274,122,o),
(296,0,c),
(410,0,l),
(388,129,o),
(359,209,o),
(285,312,c),
(254,337,l),
(192,409,o),
(171,484,o),
(158,640,c),
(46,640,l),
(61,469,o),
(90,377,o),
(170,282,c)
);
},
{
closed = 1;
nodes = (
(271,291,l),
(356,383,o),
(386,473,o),
(402,640,c),
(290,640,l),
(278,481,o),
(259,404,o),
(204,331,c),
(173,306,l),
(93,205,o),
(61,126,o),
(37,0,c),
(151,0,l),
(172,126,o),
(192,190,o),
(246,273,c)
);
}
);
};
layerId = "92967D72-867E-4A8B-929F-F44D834DD4C9";
shapes = (
{
closed = 1;
nodes = (
(151,0,l),
(168,102,o),
(185,165,o),
(219,228,c),
(259,163,o),
(277,104,o),
(296,0,c),
(410,0,l),
(388,129,o),
(359,208,o),
(287,309,c),
(360,395,o),
(387,483,o),
(402,640,c),
(290,640,l),
(280,507,o),
(265,432,o),
(229,369,c),
(186,432,o),
(169,508,o),
(158,640,c),
(46,640,l),
(60,476,o),
(88,384,o),
(162,292,c),
(90,198,o),
(60,121,o),
(37,0,c)
);
}
);
width = 448;
},
{
anchors = (
{
name = bottom;
pos = (224,0);
},
{
name = top;
pos = (224,640);
}
);
background = {
anchors = (
{
name = bottom;
pos = (224,0);
},
{
name = top;
pos = (224,640);
}
);
shapes = (
{
closed = 1;
nodes = (
(210,280,ls),
(290,194,o),
(317,139,o),
(344,0,c),
(394,0,l),
(369,129,o),
(343,205,o),
(252,302,cs),
(236,319,ls),
(154,406,o),
(126,464,o),
(110,640,c),
(62,640,l),
(78,469,o),
(108,389,o),
(197,294,cs)
);
},
{
closed = 1;
nodes = (
(244,282,l),
(335,377,o),
(369,469,o),
(386,640,c),
(338,640,l),
(322,471,o),
(293,390,o),
(214,312,c),
(198,312,l),
(111,209,o),
(79,129,o),
(53,0,c),
(103,0,l),
(130,131,o),
(158,197,o),
(228,282,c)
);
}
);
};
layerId = "7DDCEF54-C770-4FAD-B154-EE8058BAA7E5";
shapes = (
{
closed = 1;
nodes = (
(103,0,l),
(129,126,o),
(155,190,o),
(219,271,c),
(293,189,o),
(318,134,o),
(344,0,c),
(394,0,l),
(369,127,o),
(343,203,o),
(257,296,c),
(338,386,o),
(370,478,o),
(386,640,c),
(338,640,l),
(323,482,o),
(297,401,o),
(229,327,c),
(153,409,o),
(125,470,o),
(110,640,c),
(62,640,l),
(78,473,o),
(107,393,o),
(190,302,c),
(109,204,o),
(78,124,o),
(53,0,c)
);
}
);
width = 448;
}
);
unicode = 88;
}
{
color = 8;
glyphname = Z;
kernLeft = Z;
kernRight = Z;
layers = (
{
anchors = (
{
name = "#center";
pos = (204,320);
},
{
name = bottom;
pos = (204,0);
},
{
name = top;
pos = (204,640);
}
);
background = {
anchors = (
{
name = bottom;
pos = (204,0);
},
{
name = center;
pos = (204,320);
},
{
name = top;
pos = (204,640);
}
);
hints = (
{
options = 8;
origin = (1,4);
type = TTSnap;
},
{
options = 8;
origin = (1,0);
type = TTSnap;
},
{
options = 4;
origin = (1,0);
target = (2,2);
type = TTShift;
},
{
options = 4;
origin = (1,4);
target = (2,3);
type = TTShift;
},
{
horizontal = 1;
options = 4;
origin = (2,3);
target = (2,4);
type = TTStem;
},
{
horizontal = 1;
options = 4;
origin = (1,0);
target = (1,1);
type = TTStem;
},
{
horizontal = 1;
options = 4;
origin = (1,1);
other1 = (1,3);
target = (1,0);
type = TTInterpolate;
},
{
horizontal = 1;
options = 4;
origin = (2,3);
other1 = (2,1);
target = (2,4);
type = TTInterpolate;
}
);
shapes = (
{
closed = 1;
nodes = (
(368,588,l),
(291,588,l),
(43,52,l),
(120,52,l)
);
},
{
closed = 1;
nodes = (
(368,0,l),
(368,64,l),
(79,64,l),
(43,52,l),
(43,0,l)
);
},
{
closed = 1;
nodes = (
(332,576,l),
(368,588,l),
(368,640,l),
(55,640,l),
(55,576,l)
);
}
);
};
hints = (
{
options = 8;
origin = (0,9);
type = TTSnap;
},
{
options = 8;
origin = (0,0);
type = TTSnap;
},
{
options = 4;
origin = (0,0);
target = (0,4);
type = TTShift;
},
{
options = 4;
origin = (0,9);
target = (0,5);
type = TTShift;
},
{
horizontal = 1;
options = 4;
origin = (0,5);
target = (0,6);
type = TTStem;
},
{
horizontal = 1;
options = 4;
origin = (0,0);
target = (0,1);
type = TTStem;
},
{
horizontal = 1;
options = 4;
origin = (0,1);
other1 = (0,8);
target = (0,0);
type = TTInterpolate;
},
{
horizontal = 1;
options = 4;
origin = (0,5);
other1 = (0,3);
target = (0,6);
type = TTInterpolate;
}
);
layerId = "95FB0C11-C828-4064-8966-34220AA4D426";
shapes = (
{
closed = 1;
nodes = (
(368,0,l),
(368,64,l),
(126,64,l),
(368,588,l),
(368,640,l),
(55,640,l),
(55,576,l),
(285,576,l),
(43,52,l),
(43,0,l)
);
}
);
width = 416;
},
{
anchors = (
{
name = "#center";
pos = (204,320);
},
{
name = bottom;
pos = (204,0);
},
{
name = top;
pos = (204,640);
}
);
background = {
anchors = (
{
name = bottom;
pos = (204,0);
},
{
name = center;
pos = (204,320);
},
{
name = top;
pos = (204,640);
}
);
shapes = (
{
closed = 1;
nodes = (
(378,580,l),
(262,580,l),
(33,60,l),
(149,60,l)
);
},
{
closed = 1;
nodes = (
(378,0,l),
(378,80,l),
(79,80,l),
(33,60,l),
(33,0,l)
);
},
{
closed = 1;
nodes = (
(332,560,l),
(378,580,l),
(378,640,l),
(45,640,l),
(45,560,l)
);
}
);
};
layerId = "92967D72-867E-4A8B-929F-F44D834DD4C9";
shapes = (
{
closed = 1;
nodes = (
(378,0,l),
(378,80,l),
(158,80,l),
(378,580,l),
(378,640,l),
(45,640,l),
(45,560,l),
(253,560,l),
(33,60,l),
(33,0,l)
);
}
);
width = 416;
},
{
anchors = (
{
name = "#center";
pos = (204,320);
},
{
name = bottom;
pos = (204,0);
},
{
name = top;
pos = (204,640);
}
);
background = {
anchors = (
{
name = bottom;
pos = (204,0);
},
{
name = center;
pos = (204,320);
},
{
name = top;
pos = (204,640);
}
);
shapes = (
{
closed = 1;
nodes = (
(362,603,l),
(311,603,l),
(49,37,l),
(100,37,l)
);
},
{
closed = 1;
nodes = (
(362,0,l),
(362,44,l),
(79,44,l),
(49,37,l),
(49,0,l)
);
},
{
closed = 1;
nodes = (
(332,596,l),
(362,603,l),
(362,640,l),
(61,640,l),
(61,596,l)
);
}
);
};
layerId = "7DDCEF54-C770-4FAD-B154-EE8058BAA7E5";
shapes = (
{
closed = 1;
nodes = (
(362,0,l),
(362,44,l),
(103,44,l),
(362,603,l),
(362,640,l),
(61,640,l),
(61,596,l),
(308,596,l),
(49,37,l),
(49,0,l)
);
}
);
width = 416;
}
);
unicode = 90;
}
{
glyphname = grave;
layers = (
{
hints = (
{
horizontal = 1;
origin = (0,0);
type = TTSnap;
},
{
horizontal = 1;
origin = (0,2);
type = TTSnap;
}
);
layerId = "95FB0C11-C828-4064-8966-34220AA4D426";
shapes = (
{
closed = 1;
nodes = (
(234,640,l),
(135,640,l),
(226,384,l),
(298,384,l)
);
}
);
width = 448;
},
{
layerId = "92967D72-867E-4A8B-929F-F44D834DD4C9";
shapes = (
{
closed = 1;
nodes = (
(253,640,l),
(116,640,l),
(208,384,l),
(318,384,l)
);
}
);
width = 448;
},
{
layerId = "7DDCEF54-C770-4FAD-B154-EE8058BAA7E5";
shapes = (
{
closed = 1;
nodes = (
(224,640,l),
(145,640,l),
(236,384,l),
(288,384,l)
);
}
);
width = 448;
}
);
unicode = 96;
}
{
color = 8;
glyphname = a;
kernLeft = a;
kernRight = n;
layers = (
{
anchors = (
{
name = bottom;
pos = (208,0);
},
{
name = bottomAttach;
pos = (360,0);
},
{
name = top;
pos = (208,448);
}
);
background = {
anchors = (
{
name = bottom;
pos = (208,0);
},
{
name = bottomAttach;
pos = (360,0);
},
{
name = top;
pos = (208,448);
}
);
hints = (
{
horizontal = 1;
options = 4;
place = (0,60);
target = (1,6);
type = TTStem;
},
{
horizontal = 1;
options = 4;
place = (0,388);
target = (0,12);
type = TTStem;
},
{
horizontal = 1;
place = (0,0);
type = TTSnap;
},
{
options = 4;
place = (0,114);
target = (1,9);
type = TTStem;
},
{
options = 4;
place = (0,284);
target = (0,15);
type = TTStem;
},
{
options = 8;
place = (0,57);
target = (0,8);
type = TTShift;
},
{
options = 8;
place = (0,0);
type = TTSnap;
},
{
options = 8;
place = (0,0);
type = TTSnap;
},
{
horizontal = 1;
other1 = (1,13);
place = (0,453);
target = (0,5);
type = TTInterpolate;
},
{
horizontal = 1;
options = 4;
place = (0,207);
stem = 0;
target = (1,12);
type = TTStem;
},
{
options = 4;
place = (0,284);
target = (0,16,1,12);
type = TTShift;
},
{
options = 4;
place = (0,288);
target = (0,18,1,2);
type = TTShift;
}
);
shapes = (
{
closed = 1;
nodes = (
(360,0,l),
(356,64,l),
(356,299,ls),
(356,409,o),
(298,453,o),
(201,453,cs),
(146,453,o),
(96,437,o),
(57,419,c),
(78,361,l),
(114,375,o),
(156,388,o),
(196,388,cs),
(260,388,o),
(284,363,o),
(284,285,cs),
(284,64,l),
(286,64,l),
(292,0,l)
);
},
{
closed = 1;
nodes = (
(222,-4,o),
(275,30,o),
(321,60,c),
(305,111,l),
(260,85,o),
(215,60,o),
(171,60,cs),
(131,60,o),
(114,86,o),
(114,122,cs),
(114,179,o),
(160,207,o),
(305,207,c),
(305,267,l),
(124,267,o),
(38,215,o),
(38,120,cs),
(38,40,o),
(89,-4,o),
(158,-4,cs)
);
}
);
};
hints = (
{
horizontal = 1;
options = 4;
origin = (0,22);
target = (1,6);
type = TTStem;
},
{
horizontal = 1;
options = 4;
origin = (0,5);
target = (0,12);
type = TTStem;
},
{
horizontal = 1;
origin = (0,26);
type = TTSnap;
},
{
options = 4;
origin = (0,19);
target = (1,9);
type = TTStem;
},
{
options = 4;
origin = (0,2);
target = (0,15);
type = TTStem;
},
{
options = 8;
origin = (0,19);
target = (0,8);
type = TTShift;
},
{
options = 8;
origin = (0,19);
type = TTSnap;
},
{
options = 8;
origin = (0,2);
type = TTSnap;
},
{
horizontal = 1;
origin = (0,22);
other1 = (0,16);
target = (0,5);
type = TTInterpolate;
},
{
horizontal = 1;
options = 4;
origin = (0,16);
stem = 0;
target = (1,2);
type = TTStem;
},
{
options = 4;
origin = (0,15);
target = (1,2);
type = TTShift;
},
{
options = 4;
origin = (1,2);
target = (0,25);
type = TTShift;
}
);
layerId = "95FB0C11-C828-4064-8966-34220AA4D426";
shapes = (
{
closed = 1;
nodes = (
(360,0,l),
(356,64,l),
(356,299,ls),
(356,409,o),
(298,453,o),
(201,453,cs),
(146,453,o),
(96,437,o),
(57,419,c),
(78,361,l),
(114,375,o),
(156,388,o),
(196,388,cs),
(260,388,o),
(284,363,o),
(284,285,cs),
(284,267,l),
(117,263,o),
(38,211,o),
(38,120,cs),
(38,40,o),
(89,-4,o),
(158,-4,cs),
(207,-4,o),
(250,16,o),
(288,39,c),
(292,0,l)
);
},
{
closed = 1;
nodes = (
(114,176,o),
(155,204,o),
(284,207,c),
(284,99,l),
(246,78,o),
(208,60,o),
(171,60,cs),
(131,60,o),
(114,86,o),
(114,122,cs)
);
}
);
width = 416;
},
{
anchors = (
{
name = bottom;
pos = (208,0);
},
{
name = bottomAttach;
pos = (370,0);
},
{
name = top;
pos = (210,448);
}
);
background = {
anchors = (
{
name = bottom;
pos = (208,0);
},
{
name = bottomAttach;
pos = (370,0);
},
{
name = top;
pos = (210,448);
}
);
shapes = (
{
closed = 1;
nodes = (
(370,0,l),
(368,64,l),
(368,299,ls),
(368,407,o),
(313,454,o),
(206,454,cs),
(140,454,o),
(85,437,o),
(48,423,c),
(66,344,l),
(96,354,o),
(139,366,o),
(182,366,cs),
(238,366,o),
(256,346,o),
(256,285,cs),
(256,64,l),
(261,64,l),
(269,0,l)
);
},
{
closed = 1;
nodes = (
(230,-4,o),
(279,33,o),
(333,75,c),
(306,130,l),
(251,91,o),
(223,76,o),
(193,76,cs),
(160,76,o),
(146,98,o),
(146,128,cs),
(146,176,o),
(187,207,o),
(319,207,c),
(319,276,l),
(113,276,o),
(30,228,o),
(30,123,cs),
(30,39,o),
(82,-4,o),
(156,-4,cs)
);
}
);
};
layerId = "92967D72-867E-4A8B-929F-F44D834DD4C9";
shapes = (
{
closed = 1;
nodes = (
(370,0,l),
(368,64,l),
(368,299,ls),
(368,407,o),
(313,454,o),
(206,454,cs),
(140,454,o),
(85,437,o),
(48,423,c),
(66,344,l),
(96,354,o),
(139,366,o),
(182,366,cs),
(238,366,o),
(256,346,o),
(256,285,cs),
(256,274,l),
(97,265,o),
(30,217,o),
(30,123,cs),
(30,39,o),
(82,-4,o),
(156,-4,cs),
(199,-4,o),
(233,8,o),
(266,27,c),
(269,0,l)
);
},
{
closed = 1;
nodes = (
(146,167,o),
(173,195,o),
(256,204,c),
(256,97,l),
(230,82,o),
(212,76,o),
(193,76,cs),
(160,76,o),
(146,98,o),
(146,128,cs)
);
}
);
width = 416;
},
{
anchors = (
{
name = bottom;
pos = (208,0);
},
{
name = bottomAttach;
pos = (354,0);
},
{
name = top;
pos = (214,448);
}
);
background = {
anchors = (
{
name = bottom;
pos = (208,0);
},
{
name = bottomAttach;
pos = (354,0);
},
{
name = top;
pos = (214,448);
}
);
shapes = (
{
closed = 1;
nodes = (
(354,0,l),
(352,78,l),
(352,312,ls),
(352,415,o),
(297,452,o),
(216,452,cs),
(158,452,o),
(103,433,o),
(66,417,c),
(78,379,l),
(122,395,o),
(165,407,o),
(212,407,cs),
(277,407,o),
(304,382,o),
(304,298,cs),
(304,78,l),
(305,78,l),
(310,0,l)
);
},
{
closed = 1;
nodes = (
(224,-4,o),
(269,30,o),
(322,71,c),
(308,107,l),
(254,65,o),
(215,41,o),
(164,41,cs),
(122,41,o),
(98,70,o),
(98,115,cs),
(98,180,o),
(158,217,o),
(319,217,c),
(319,258,l),
(130,258,o),
(46,204,o),
(46,113,cs),
(46,35,o),
(101,-4,o),
(162,-4,cs)
);
}
);
};
layerId = "7DDCEF54-C770-4FAD-B154-EE8058BAA7E5";
shapes = (
{
closed = 1;
nodes = (
(354,0,l),
(352,78,l),
(352,312,ls),
(352,415,o),
(297,452,o),
(216,452,cs),
(158,452,o),
(103,433,o),
(66,417,c),
(78,379,l),
(122,395,o),
(165,407,o),
(212,407,cs),
(277,407,o),
(304,382,o),
(304,298,cs),
(304,258,l),
(125,255,o),
(46,202,o),
(46,113,cs),
(46,35,o),
(101,-4,o),
(162,-4,cs),
(218,-4,o),
(260,24,o),
(306,59,c),
(310,0,l)
);
},
{
closed = 1;
nodes = (
(98,178,o),
(155,215,o),
(304,217,c),
(304,104,l),
(251,63,o),
(214,41,o),
(164,41,cs),
(122,41,o),
(98,70,o),
(98,115,cs)
);
}
);
width = 416;
}
);
metricWidth = "=_pixel*6.5";
unicode = 97;
}
{
color = 8;
glyphname = e;
kernLeft = o;
kernRight = e;
layers = (
{
anchors = (
{
name = bottom;
pos = (213,0);
},
{
name = bottomAttach;
pos = (319,0);
},
{
name = top;
pos = (213,448);
}
);
background = {
anchors = (
{
name = bottom;
pos = (213,0);
},
{
name = bottomAttach;
pos = (319,0);
},
{
name = top;
pos = (213,448);
}
);
hints = (
{
horizontal = 1;
options = 4;
place = (0,51);
target = (0,9);
type = TTStem;
},
{
horizontal = 1;
options = 4;
place = (0,397);
target = (0,15);
type = TTStem;
},
{
horizontal = 1;
other1 = (0,12,0,22);
place = (0,461);
target = (0,25);
type = TTInterpolate;
},
{
horizontal = 1;
options = 4;
place = (0,263);
target = (0,15,0,20);
type = TTStem;
},
{
options = 8;
place = (0,0);
type = TTSnap;
},
{
options = 4;
place = (0,121);
target = (0,15,0,20);
type = TTStem;
},
{
options = 4;
place = (0,120);
target = (0,12,0,22);
type = TTShift;
},
{
options = 4;
place = (0,303);
target = (0,18,0,20);
type = TTStem;
},
{
options = 8;
place = (0,0);
type = TTSnap;
},
{
options = 4;
place = (0,360);
target = (0,5);
type = TTShift;
}
);
shapes = (
{
closed = 1;
nodes = (
(46,93,o),
(89,-13,o),
(231,-13,cs),
(273,-13,o),
(319,-3,o),
(360,14,c),
(346,72,l),
(310,60,o),
(274,51,o),
(237,51,cs),
(153,51,o),
(120,95,o),
(120,224,cs),
(120,351,o),
(151,397,o),
(213,397,cs),
(281,397,o),
(308,343,o),
(302,224,c),
(342,263,l),
(88,263,l),
(88,201,l),
(377,201,l),
(389,360,o),
(331,461,o),
(213,461,cs),
(93,461,o),
(46,355,o),
(46,224,cs)
);
}
);
};
hints = (
{
horizontal = 1;
options = 4;
origin = (0,2);
target = (0,9);
type = TTStem;
},
{
horizontal = 1;
options = 4;
origin = (0,16);
target = (1,2);
type = TTStem;
},
{
horizontal = 1;
origin = (0,2);
other1 = (0,12);
target = (0,16);
type = TTInterpolate;
},
{
horizontal = 1;
options = 4;
origin = (0,12);
target = (1,6);
type = TTStem;
},
{
options = 8;
origin = (0,19);
type = TTSnap;
},
{
options = 4;
origin = (0,19);
target = (1,6);
type = TTStem;
},
{
options = 4;
origin = (1,6);
target = (0,12);
type = TTShift;
},
{
options = 4;
origin = (0,13);
target = (1,5);
type = TTStem;
},
{
options = 8;
origin = (0,13);
type = TTSnap;
},
{
options = 4;
origin = (0,13);
target = (0,5);
type = TTShift;
}
);
layerId = "95FB0C11-C828-4064-8966-34220AA4D426";
shapes = (
{
closed = 1;
nodes = (
(46,93,o),
(89,-13,o),
(231,-13,cs),
(273,-13,o),
(319,-3,o),
(360,14,c),
(346,72,l),
(310,60,o),
(274,51,o),
(237,51,cs),
(158,51,o),
(124,89,o),
(120,201,c),
(377,201,l),
(389,360,o),
(331,461,o),
(213,461,cs),
(93,461,o),
(46,355,o),
(46,224,cs)
);
},
{
closed = 1;
nodes = (
(127,360,o),
(158,397,o),
(213,397,cs),
(273,397,o),
(301,356,o),
(303,263,c),
(121,263,l)
);
}
);
width = 432;
},
{
anchors = (
{
name = bottom;
pos = (213,0);
},
{
name = bottomAttach;
pos = (317,0);
},
{
name = top;
pos = (213,448);
}
);
background = {
anchors = (
{
name = bottom;
pos = (213,0);
},
{
name = bottomAttach;
pos = (317,0);
},
{
name = top;
pos = (213,448);
}
);
shapes = (
{
closed = 1;
nodes = (
(34,93,o),
(80,-13,o),
(231,-13,cs),
(277,-13,o),
(328,1,o),
(372,18,c),
(354,90,l),
(318,77,o),
(278,67,o),
(247,67,cs),
(176,67,o),
(150,107,o),
(150,224,cs),
(150,339,o),
(169,381,o),
(213,381,cs),
(259,381,o),
(281,331,o),
(273,224,c),
(319,266,l),
(91,266,l),
(91,188,l),
(386,188,l),
(406,341,o),
(349,461,o),
(213,461,cs),
(84,461,o),
(34,355,o),
(34,224,cs)
);
}
);
};
layerId = "92967D72-867E-4A8B-929F-F44D834DD4C9";
shapes = (
{
closed = 1;
nodes = (
(34,93,o),
(80,-13,o),
(231,-13,cs),
(277,-13,o),
(328,1,o),
(372,18,c),
(354,90,l),
(318,77,o),
(278,67,o),
(247,67,cs),
(184,67,o),
(156,99,o),
(151,188,c),
(386,188,l),
(406,341,o),
(349,461,o),
(213,461,cs),
(84,461,o),
(34,355,o),
(34,224,cs)
);
},
{
closed = 1;
nodes = (
(155,349,o),
(175,381,o),
(213,381,cs),
(252,381,o),
(274,345,o),
(275,266,c),
(151,266,l)
);
}
);
width = 432;
},
{
anchors = (
{
name = bottom;
pos = (213,0);
},
{
name = bottomAttach;
pos = (323,0);
},
{
name = top;
pos = (213,448);
}
);
background = {
anchors = (
{
name = bottom;
pos = (213,0);
},
{
name = bottomAttach;
pos = (323,0);
},
{
name = top;
pos = (213,448);
}
);
shapes = (
{
closed = 1;
nodes = (
(53,93,o),
(95,-13,o),
(233,-13,cs),
(275,-13,o),
(317,-4,o),
(353,10,c),
(344,47,l),
(309,36,o),
(273,29,o),
(240,29,cs),
(144,29,o),
(105,94,o),
(105,224,cs),
(105,356,o),
(137,417,o),
(213,417,cs),
(293,417,o),
(325,346,o),
(319,224,c),
(359,257,l),
(83,257,l),
(83,213,l),
(371,213,l),
(378,372,o),
(323,461,o),
(213,461,cs),
(96,461,o),
(53,355,o),
(53,224,cs)
);
}
);
};
layerId = "7DDCEF54-C770-4FAD-B154-EE8058BAA7E5";
shapes = (
{
closed = 1;
nodes = (
(53,93,o),
(95,-13,o),
(233,-13,cs),
(275,-13,o),
(317,-4,o),
(353,10,c),
(344,47,l),
(309,36,o),
(273,29,o),
(240,29,cs),
(147,29,o),
(107,91,o),
(105,213,c),
(371,213,l),
(378,372,o),
(323,461,o),
(213,461,cs),
(96,461,o),
(53,355,o),
(53,224,cs)
);
},
{
closed = 1;
nodes = (
(111,365,o),
(144,417,o),
(213,417,cs),
(285,417,o),
(319,358,o),
(320,257,c),
(106,257,l)
);
}
);
width = 432;
}
);
metricLeft = o;
metricWidth = "=_pixel*6.75";
unicode = 101;
}
{
color = 8;
glyphname = l;
kernLeft = l;
kernRight = l;
layers = (
{
anchors = (
{
name = "#center";
pos = (128,351);
},
{
name = "#slash";
pos = (131,384);
},
{
name = bottom;
pos = (160,0);
},
{
name = top;
pos = (110,640);
}
);
hints = (
{
horizontal = 1;
options = 4;
origin = (0,15);
target = (0,6);
type = TTStem;
},
{
horizontal = 1;
origin = (0,10);
type = TTSnap;
},
{
options = 4;
origin = (0,12);
target = (0,9);
type = TTStem;
},
{
options = 8;
origin = (0,2);
type = TTSnap;
},
{
options = 8;
origin = (0,12);
type = TTSnap;
}
);
layerId = "95FB0C11-C828-4064-8966-34220AA4D426";
shapes = (
{
closed = 1;
nodes = (
(213,-4,o),
(223,-4,o),
(237,-2,c),
(231,61,l),
(219,60,o),
(214,60,o),
(209,60,cs),
(163,60,o),
(146,83,o),
(146,119,cs),
(146,640,l),
(74,640,l),
(74,124,ls),
(74,28,o),
(133,-4,o),
(206,-4,cs)
);
}
);
width = 276;
},
{
anchors = (
{
name = "#center";
pos = (128,351);
},
{
name = "#slash";
pos = (131,384);
},
{
name = bottom;
pos = (160,0);
},
{
name = top;
pos = (110,640);
}
);
layerId = "92967D72-867E-4A8B-929F-F44D834DD4C9";
shapes = (
{
closed = 1;
nodes = (
(215,-6,o),
(233,-4,o),
(248,-2,c),
(241,76,l),
(232,75,o),
(223,74,o),
(212,74,cs),
(181,74,o),
(170,92,o),
(170,120,cs),
(170,640,l),
(58,640,l),
(58,125,ls),
(58,29,o),
(116,-6,o),
(196,-6,cs)
);
}
);
width = 276;
},
{
anchors = (
{
name = "#center";
pos = (128,351);
},
{
name = "#slash";
pos = (131,384);
},
{
name = bottom;
pos = (160,0);
},
{
name = top;
pos = (110,640);
}
);
layerId = "7DDCEF54-C770-4FAD-B154-EE8058BAA7E5";
shapes = (
{
closed = 1;
nodes = (
(205,-4,o),
(215,-3,o),
(227,-1,c),
(223,41,l),
(215,40,o),
(206,39,o),
(196,39,cs),
(150,39,o),
(132,64,o),
(132,114,cs),
(132,640,l),
(84,640,l),
(84,115,ls),
(84,27,o),
(132,-4,o),
(192,-4,cs)
);
}
);
width = 276;
}
);
unicode = 108;
}
{
color = 8;
glyphname = m;
kernLeft = n;
kernRight = n;
layers = (
{
anchors = (
{
name = bottom;
pos = (306,0);
},
{
name = top;
pos = (306,448);
}
);
hints = (
{
horizontal = 1;
options = 4;
origin = (0,38);
target = (0,8);
type = TTShift;
},
{
horizontal = 1;
origin = (0,36);
type = TTSnap;
},
{
horizontal = 1;
options = 4;
origin = (0,25);
stem = 0;
target = (0,16);
type = TTStem;
},
{
options = 8;
origin = (0,38);
type = TTSnap;
},
{
options = 8;
origin = (0,8);
type = TTSnap;
},
{
options = 4;
origin = (0,38);
target = (0,0);
type = TTStem;
},
{
horizontal = 1;
options = 4;
origin = (0,31);
target = (0,25);
type = TTShift;
},
{
horizontal = 1;
options = 4;
origin = (0,16);
target = (0,4);
type = TTShift;
},
{
horizontal = 1;
options = 4;
origin = (0,8);
target = (0,20);
type = TTShift;
},
{
options = 4;
origin = (0,8);
target = (0,9);
type = TTStem;
},
{
options = 8;
origin = (0,20);
type = TTSnap;
},
{
options = 4;
origin = (0,20);
target = (0,21);
type = TTStem;
},
{
options = 4;
origin = (0,0);
target = (0,34);
type = TTShift;
},
{
options = 4;
origin = (0,9);
target = (0,28);
type = TTShift;
}
);
layerId = "95FB0C11-C828-4064-8966-34220AA4D426";
shapes = (
{
closed = 1;
nodes = (
(130,0,l),
(130,346,l),
(154,375,o),
(182,392,o),
(210,392,cs),
(258,392,o),
(268,361,o,{
name = at03;
}),
(268,304,cs),
(268,0,l),
(340,0,l,{
name = ab01;
}),
(340,306,ls),
(340,323,o),
(339,338,o),
(337,351,c),
(364,378,o),
(392,392,o),
(420,392,cs,{
name = ab03;
}),
(469,392,o),
(478,358,o),
(478,310,cs),
(478,0,l),
(550,0,l),
(550,308,ls,{
name = ab02;
}),
(550,406,o),
(514,452,o),
(441,452,cs),
(394,452,o),
(355,432,o),
(323,401,c),
(306,436,o),
(276,452,o),
(233,452,cs),
(193,452,o),
(157,433,o),
(126,404,c),
(122,448,l,{
name = sv01;
}),
(56,448,l),
(58,383,l),
(58,0,l)
);
}
);
width = 608;
},
{
anchors = (
{
name = bottom;
pos = (306,0);
},
{
name = top;
pos = (306,448);
}
);
layerId = "92967D72-867E-4A8B-929F-F44D834DD4C9";
shapes = (
{
closed = 1;
nodes = (
(160,0,l),
(160,345,l),
(175,361,o),
(191,370,o),
(210,370,cs),
(238,370,o),
(248,353,o,{
name = at03;
}),
(248,321,cs),
(248,0,l),
(360,0,l,{
name = ab01;
}),
(360,318,ls),
(360,327,o),
(360,335,o),
(359,343,c),
(374,360,o),
(391,370,o),
(410,370,cs),
(438,370,o),
(448,353,o,{
name = at03;
}),
(448,321,cs),
(448,0,l),
(560,0,l,{
name = ab01;
}),
(560,318,ls),
(560,410,o),
(520,452,o,{
name = at01;
}),
(445,452,cs),
(403,452,o),
(369,433,o),
(341,405,c),
(322,437,o),
(290,452,o),
(245,452,cs),
(208,452,o),
(176,437,o),
(151,414,c),
(147,448,l,{
name = sv01;
}),
(46,448,l),
(48,383,l),
(48,0,l)
);
}
);
width = 608;
},
{
anchors = (
{
name = bottom;
pos = (306,0);
},
{
name = top;
pos = (306,448);
}
);
layerId = "7DDCEF54-C770-4FAD-B154-EE8058BAA7E5";
shapes = (
{
closed = 1;
nodes = (
(112,0,l),
(112,348,l),
(142,385,o),
(176,408,o),
(210,408,cs),
(263,408,o),
(280,375,o,{
name = at03;
}),
(280,308,cs),
(280,0,l),
(328,0,l,{
name = ab01;
}),
(328,311,ls),
(328,323,o),
(327,335,o),
(326,346,c),
(356,384,o),
(391,408,o),
(426,408,cs),
(479,408,o),
(496,375,o,{
name = at03;
}),
(496,308,cs),
(496,0,l),
(544,0,l,{
name = ab01;
}),
(544,311,ls),
(544,400,o),
(510,452,o,{
name = at01;
}),
(442,452,cs),
(395,452,o),
(351,424,o),
(318,383,c),
(304,427,o),
(273,452,o),
(226,452,cs),
(182,452,o),
(141,429,o),
(110,392,c),
(106,448,l,{
name = sv01;
}),
(62,448,l),
(64,370,l),
(64,0,l)
);
}
);
width = 608;
}
);
metricWidth = "=_pixel*9.5";
unicode = 109;
}
{
glyphname = n;
kernLeft = n;
kernRight = n;
layers = (
{
anchors = (
{
name = bottom;
pos = (224,0);
},
{
name = origin.hook;
pos = (316,0);
},
{
name = origin.hook.left;
pos = (60,0);
},
{
name = top;
pos = (224,448);
}
);
background = {
anchors = (
{
name = bottom;
pos = (224,0);
},
{
name = origin.hook;
pos = (316,0);
},
{
name = origin.hook.left;
pos = (60,0);
},
{
name = top;
pos = (224,448);
}
);
hints = (
{
horizontal = 1;
place = (0,0);
type = TTSnap;
},
{
horizontal = 1;
options = 4;
place = (0,388);
target = (1,11);
type = TTStem;
},
{
horizontal = 1;
options = 4;
place = (0,0);
target = (1,15);
type = TTShift;
},
{
options = 4;
place = (0,316);
target = (1,15);
type = TTStem;
},
{
options = 8;
place = (0,0);
type = TTSnap;
},
{
options = 8;
place = (0,0);
type = TTSnap;
},
{
options = 4;
place = (0,132);
target = (0,0);
type = TTStem;
},
{
options = 4;
place = (0,124);
target = (0,3);
type = TTShift;
}
);
shapes = (
{
closed = 1;
nodes = (
(132,0,l),
(132,384,l),
(130,384,l),
(124,448,l),
(58,448,l),
(60,384,l),
(60,0,l)
);
},
{
closed = 1;
nodes = (
(388,0,l),
(388,303,ls),
(388,409,o),
(332,452,o),
(259,452,cs),
(186,452,o),
(126,398,o),
(85,342,c),
(117,314,l),
(152,354,o),
(198,388,o),
(245,388,cs),
(292,388,o),
(316,358,o),
(316,301,cs),
(316,0,l)
);
}
);
};
hints = (
{
horizontal = 1;
origin = (0,18);
type = TTSnap;
},
{
horizontal = 1;
options = 4;
origin = (0,13);
target = (0,4);
type = TTStem;
},
{
horizontal = 1;
options = 4;
origin = (0,0);
target = (0,8);
type = TTShift;
},
{
options = 4;
origin = (0,9);
target = (0,8);
type = TTStem;
},
{
options = 8;
origin = (0,9);
type = TTSnap;
},
{
options = 8;
origin = (0,20);
type = TTSnap;
},
{
options = 4;
origin = (0,20);
target = (0,0);
type = TTStem;
},
{
options = 4;
origin = (0,0);
target = (0,17);
type = TTShift;
}
);
layerId = "95FB0C11-C828-4064-8966-34220AA4D426";
shapes = (
{
closed = 1;
nodes = (
(132,0,l),
(132,330,l),
(164,362,o),
(204,388,o),
(245,388,cs),
(292,388,o),
(316,358,o),
(316,301,cs),
(316,0,l),
(388,0,l),
(388,303,ls),
(388,409,o),
(332,452,o),
(259,452,cs),
(209,452,o),
(165,427,o),
(129,393,c),
(124,448,l),
(58,448,l),
(60,384,l),
(60,0,l)
);
}
);
width = 448;
},
{
anchors = (
{
name = bottom;
pos = (224,0);
},
{
name = origin.hook;
pos = (286,0);
},
{
name = origin.hook.left;
pos = (50,0);
},
{
name = top;
pos = (224,448);
}
);
background = {
anchors = (
{
name = bottom;
pos = (224,0);
},
{
name = origin.hook;
pos = (286,0);
},
{
name = origin.hook.left;
pos = (50,0);
},
{
name = top;
pos = (224,448);
}
);
shapes = (
{
closed = 1;
nodes = (
(162,0,l),
(162,384,l),
(157,384,l),
(149,448,l),
(48,448,l),
(50,384,l),
(50,0,l)
);
},
{
closed = 1;
nodes = (
(398,0,l),
(398,314,ls),
(398,410,o),
(348,452,o),
(272,452,cs),
(192,452,o),
(134,396,o),
(80,334,c),
(124,292,l),
(157,336,o),
(200,368,o),
(234,368,cs),
(270,368,o),
(286,347,o),
(286,306,cs),
(286,0,l)
);
}
);
};
layerId = "92967D72-867E-4A8B-929F-F44D834DD4C9";
shapes = (
{
closed = 1;
nodes = (
(162,0,l),
(162,333,l),
(186,354,o),
(212,368,o),
(234,368,cs),
(270,368,o),
(286,347,o),
(286,306,cs),
(286,0,l),
(398,0,l),
(398,314,ls),
(398,410,o),
(348,452,o),
(272,452,cs),
(227,452,o),
(189,434,o),
(154,407,c),
(149,448,l),
(48,448,l),
(50,384,l),
(50,0,l)
);
}
);
width = 448;
},
{
anchors = (
{
name = bottom;
pos = (224,0);
},
{
name = origin.hook;
pos = (334,0);
},
{
name = origin.hook.left;
pos = (66,0);
},
{
name = top;
pos = (224,448);
}
);
background = {
anchors = (
{
name = bottom;
pos = (224,0);
},
{
name = origin.hook;
pos = (334,0);
},
{
name = origin.hook.left;
pos = (66,0);
},
{
name = top;
pos = (224,448);
}
);
shapes = (
{
closed = 1;
nodes = (
(114,0,l),
(114,370,l),
(113,370,l),
(108,448,l),
(64,448,l),
(66,370,l),
(66,0,l)
);
},
{
closed = 1;
nodes = (
(382,0,l),
(382,309,ls),
(382,422,o),
(323,452,o),
(261,452,cs),
(188,452,o),
(120,394,o),
(83,345,c),
(103,328,l),
(150,373,o),
(197,408,o),
(252,408,cs),
(311,408,o),
(334,379,o),
(334,305,cs),
(334,0,l)
);
}
);
};
layerId = "7DDCEF54-C770-4FAD-B154-EE8058BAA7E5";
shapes = (
{
closed = 1;
nodes = (
(114,0,l),
(114,338,l),
(157,378,o),
(201,408,o),
(252,408,cs),
(311,408,o),
(334,379,o),
(334,305,cs),
(334,0,l),
(382,0,l),
(382,309,ls),
(382,422,o),
(323,452,o),
(261,452,cs),
(204,452,o),
(150,417,o),
(112,379,c),
(108,448,l),
(64,448,l),
(66,370,l),
(66,0,l)
);
}
);
width = 448;
}
);
unicode = 110;
}
{
color = 7;
glyphname = q;
kernLeft = o;
kernRight = g;
layers = (
{
anchors = (
{
name = bottom;
pos = (224,0);
},
{
name = top;
pos = (224,448);
}
);
hints = (
{
options = 8;
origin = (0,0);
type = TTSnap;
},
{
options = 4;
origin = (0,0);
target = (0,6);
type = TTStem;
},
{
options = 4;
origin = (0,6);
target = (0,3);
type = TTShift;
},
{
horizontal = 1;
origin = (0,2);
type = TTSnap;
},
{
horizontal = 1;
origin = (0,0);
type = TTSnap;
}
);
layerId = "95FB0C11-C828-4064-8966-34220AA4D426";
shapes = (
{
closed = 1;
nodes = (
(388,-192,l),
(388,384,l),
(390,448,l),
(329,448,l),
(320,383,l),
(316,367,l),
(316,-192,l)
);
},
{
angle = 180;
pos = (448,448);
ref = _part.bowl.descender;
}
);
width = 448;
},
{
anchors = (
{
name = bottom;
pos = (224,0);
},
{
name = top;
pos = (224,448);
}
);
layerId = "92967D72-867E-4A8B-929F-F44D834DD4C9";
shapes = (
{
closed = 1;
nodes = (
(398,-192,l),
(398,383,l),
(400,448,l),
(312,448,l),
(296,356,l),
(286,356,l),
(286,-192,l)
);
},
{
angle = 180;
pos = (448,448);
ref = _part.bowl.descender;
}
);
width = 448;
},
{
anchors = (
{
name = bottom;
pos = (224,0);
},
{
name = top;
pos = (224,448);
}
);
layerId = "7DDCEF54-C770-4FAD-B154-EE8058BAA7E5";
shapes = (
{
closed = 1;
nodes = (
(382,-192,l),
(382,385,l),
(384,448,l),
(339,448,l),
(334,399,l),
(334,374,l),
(334,-192,l)
);
},
{
angle = 180;
pos = (448,448);
ref = _part.bowl.descender;
}
);
width = 448;
},
{
anchors = (
{
name = bottom;
pos = (224,0);
},
{
name = top;
pos = (224,448);
}
);
associatedMasterId = "95FB0C11-C828-4064-8966-34220AA4D426";
attr = {
coordinates = (
400,
-64,
0
);
};
layerId = "3D72FB42-54A3-4886-9539-D36FEF074EE0";
name = "{400, 0, -64}";
shapes = (
{
closed = 1;
nodes = (
(388,-64,l),
(388,384,l),
(390,448,l),
(329,448,l),
(320,383,l),
(316,367,l),
(316,-64,l)
);
},
{
angle = 180;
pos = (448,544);
ref = _part.bowl.descender;
}
);
width = 448;
}
);
unicode = 113;
}
{
color = 8;
glyphname = r;
kernLeft = n;
kernRight = r;
layers = (
{
anchors = (
{
name = bottom;
pos = (96,0);
},
{
name = top;
pos = (160,448);
}
);
hints = (
{
horizontal = 1;
origin = (0,0);
type = TTSnap;
},
{
horizontal = 1;
origin = (0,16);
type = TTSnap;
},
{
horizontal = 1;
options = 4;
origin = (0,11);
target = (0,4);
type = TTStem;
},
{
options = 4;
origin = (0,18);
target = (0,0);
type = TTStem;
},
{
options = 8;
origin = (0,8);
type = TTSnap;
},
{
options = 8;
origin = (0,18);
type = TTSnap;
},
{
options = 4;
origin = (0,0);
target = (0,14);
type = TTShift;
}
);
layerId = "95FB0C11-C828-4064-8966-34220AA4D426";
shapes = (
{
closed = 1;
nodes = (
(132,0,l),
(132,324,l),
(164,369,o),
(204,384,o),
(243,384,cs),
(255,384,o),
(268,383,o),
(277,382,c),
(282,451,l),
(273,452,o),
(264,452,o),
(258,452,cs),
(204,452,o),
(160,429,o),
(129,392,c),
(124,448,l),
(58,448,l),
(60,383,l),
(60,0,l)
);
}
);
width = 320;
},
{
anchors = (
{
name = bottom;
pos = (104,0);
},
{
name = top;
pos = (177,448);
}
);
layerId = "92967D72-867E-4A8B-929F-F44D834DD4C9";
shapes = (
{
closed = 1;
nodes = (
(160,0,l),
(160,313,l),
(190,347,o),
(222,358,o),
(254,358,cs),
(267,358,o),
(280,357,o),
(294,355,c),
(303,449,l),
(292,451,o),
(278,452,o),
(267,452,cs),
(219,452,o),
(182,432,o),
(152,399,c),
(147,448,l),
(46,448,l),
(48,383,l),
(48,0,l)
);
}
);
width = 320;
},
{
anchors = (
{
name = bottom;
pos = (88,0);
},
{
name = top;
pos = (177,448);
}
);
layerId = "7DDCEF54-C770-4FAD-B154-EE8058BAA7E5";
shapes = (
{
closed = 1;
nodes = (
(112,0,l),
(112,312,l),
(154,392,o),
(184,406,o),
(232,406,cs),
(251,406,o),
(271,404,o),
(287,402,c),
(292,444,l),
(274,447,o),
(254,450,o),
(229,450,cs),
(180,450,o),
(143,430,o),
(111,372,c),
(106,448,l),
(62,448,l),
(64,370,l),
(64,0,l)
);
}
);
width = 320;
}
);
metricWidth = "=_pixel*5";
unicode = 114;
}
{
color = 8;
glyphname = s;
kernLeft = s;
kernRight = s;
layers = (
{
anchors = (
{
name = bottom;
pos = (178,0);
},
{
name = top;
pos = (178,448);
},
{
name = topright;
pos = (370,448);
}
);
hints = (
{
horizontal = 1;
options = 4;
origin = (0,15);
target = (0,8);
type = TTStem;
},
{
horizontal = 1;
options = 4;
origin = (0,31);
target = (0,24);
type = TTStem;
},
{
horizontal = 1;
options = 4;
origin = (0,8);
other1 = (0,21,0);
target = (0,31);
type = TTInterpolate;
},
{
horizontal = 1;
options = 4;
origin = (0,15);
other1 = (0,5,0);
target = (0,24);
type = TTInterpolate;
},
{
options = 4;
origin = (0,18);
target = (0,5);
type = TTStem;
},
{
options = 4;
origin = (0,2);
target = (0,21);
type = TTStem;
},
{
origin = (0,18);
target = (0,28);
type = TTShift;
},
{
origin = (0,2);
target = (0,12);
type = TTShift;
},
{
options = 8;
origin = (0,18);
type = TTSnap;
},
{
options = 8;
origin = (0,2);
type = TTSnap;
}
);
layerId = "95FB0C11-C828-4064-8966-34220AA4D426";
shapes = (
{
closed = 1;
nodes = (
(250,-8,o),
(311,40,o),
(311,122,cs),
(311,273,o),
(113,234,o),
(113,330,cs),
(113,368,o),
(140,392,o),
(194,392,cs),
(219,392,o),
(249,389,o),
(280,379,c),
(294,439,l),
(258,451,o),
(225,456,o),
(190,456,cs),
(100,456,o),
(43,401,o),
(43,326,cs),
(43,171,o),
(241,209,o),
(241,115,cs),
(241,75,o),
(211,56,o),
(164,56,cs),
(131,56,o),
(87,65,o),
(50,76,c),
(35,19,l),
(78,3,o),
(124,-8,o),
(169,-8,cs)
);
}
);
width = 352;
},
{
anchors = (
{
name = bottom;
pos = (178,0);
},
{
name = top;
pos = (178,448);
},
{
name = topright;
pos = (370,448);
}
);
layerId = "92967D72-867E-4A8B-929F-F44D834DD4C9";
shapes = (
{
closed = 1;
nodes = (
(252,-8,o),
(323,33,o),
(323,132,cs),
(323,293,o),
(143,247,o),
(143,330,cs),
(143,353,o),
(158,374,o),
(198,374,cs),
(228,374,o),
(260,367,o),
(286,359,c),
(306,434,l),
(267,449,o),
(226,456,o),
(191,456,cs),
(97,456,o),
(35,403,o),
(35,316,cs),
(35,161,o),
(215,199,o),
(215,118,cs),
(215,97,o),
(205,74,o),
(154,74,cs),
(115,74,o),
(79,83,o),
(51,93,c),
(29,25,l),
(67,5,o),
(117,-8,o),
(165,-8,cs)
);
}
);
width = 352;
},
{
anchors = (
{
name = bottom;
pos = (178,0);
},
{
name = top;
pos = (178,448);
},
{
name = topright;
pos = (370,448);
}
);
layerId = "7DDCEF54-C770-4FAD-B154-EE8058BAA7E5";
shapes = (
{
closed = 1;
nodes = (
(250,-8,o),
(304,42,o),
(304,114,cs),
(304,254,o),
(95,225,o),
(95,333,cs),
(95,383,o),
(129,414,o),
(192,414,cs),
(217,414,o),
(245,411,o),
(277,403,c),
(287,442,l),
(253,452,o),
(225,456,o),
(189,456,cs),
(102,456,o),
(48,400,o),
(48,331,cs),
(48,184,o),
(257,212,o),
(257,110,cs),
(257,55,o),
(215,34,o),
(166,34,cs),
(136,34,o),
(93,41,o),
(50,55,c),
(39,17,l),
(84,1,o),
(124,-8,o),
(171,-8,cs)
);
}
);
width = 352;
}
);
metricWidth = "=_pixel*5.5";
unicode = 115;
}
{
color = 8;
glyphname = t;
kernLeft = t;
kernRight = t;
layers = (
{
anchors = (
{
name = "#center";
pos = (152,219);
},
{
name = bottom;
pos = (172,0);
},
{
name = top;
pos = (158,576);
},
{
name = top_comma;
pos = (168,448);
},
{
name = topright;
pos = (140,576);
}
);
guides = (
{
angle = 270;
pos = (294,416);
}
);
hints = (
{
horizontal = 1;
options = 4;
origin = (0,23);
target = (0,6);
type = TTStem;
},
{
horizontal = 1;
options = 4;
origin = (0,13);
target = (0,10);
type = TTStem;
},
{
horizontal = 1;
options = 4;
origin = (0,13);
target = (0,16);
type = TTShift;
},
{
horizontal = 1;
options = 4;
origin = (0,10);
target = (0,19);
type = TTShift;
},
{
options = 8;
origin = (0,20);
type = TTSnap;
},
{
options = 4;
origin = (0,16);
target = (0,20);
type = TTShift;
},
{
options = 4;
origin = (0,16);
target = (0,13);
type = TTStem;
},
{
options = 4;
origin = (0,13);
target = (0,10);
type = TTShift;
},
{
options = 8;
origin = (0,2);
type = TTSnap;
},
{
options = 8;
origin = (0,2);
target = (0,11);
type = TTShift;
},
{
origin = (0,16);
stem = -1;
target = (0,17);
type = TTStem;
},
{
horizontal = 1;
origin = (0,13);
stem = -1;
target = (0,14);
type = TTStem;
}
);
layerId = "95FB0C11-C828-4064-8966-34220AA4D426";
shapes = (
{
closed = 1;
nodes = (
(252,-4,o),
(279,-2,o),
(300,2,c),
(293,65,l),
(277,63,o),
(257,61,o),
(238,61,cs),
(187,61,o),
(168,80,o),
(168,127,cs),
(168,384,l),
(294,384,l),
(294,448,l),
(168,448,l),
(168,576,l),
(96,576,l),
(96,448,l),
(21,448,l),
(21,387,l),
(96,383,l),
(96,130,ls),
(96,35,o),
(142,-4,o),
(230,-4,cs)
);
}
);
width = 352;
},
{
anchors = (
{
name = "#center";
pos = (155,219);
},
{
name = bottom;
pos = (172,0);
},
{
name = top;
pos = (158,576);
},
{
name = top_comma;
pos = (197,448);
},
{
name = topright;
pos = (140,576);
}
);
guides = (
{
angle = 270;
pos = (309,448);
}
);
layerId = "92967D72-867E-4A8B-929F-F44D834DD4C9";
shapes = (
{
closed = 1;
nodes = (
(258,-6,o),
(288,-4,o),
(314,0,c),
(307,80,l),
(292,78,o),
(271,76,o),
(251,76,cs),
(212,76,o),
(197,91,o),
(197,128,cs),
(197,368,l),
(309,368,l),
(309,448,l),
(197,448,l),
(197,576,l),
(85,576,l),
(85,448,l),
(10,448,l),
(10,370,l),
(85,367,l),
(85,133,ls),
(85,35,o),
(127,-6,o),
(236,-6,cs)
);
}
);
width = 352;
},
{
anchors = (
{
name = "#center";
pos = (155,219);
},
{
name = bottom;
pos = (172,0);
},
{
name = top;
pos = (158,576);
},
{
name = top_comma;
pos = (156,448);
},
{
name = topright;
pos = (112,576);
}
);
guides = (
{
angle = 270;
pos = (295,448);
}
);
layerId = "7DDCEF54-C770-4FAD-B154-EE8058BAA7E5";
shapes = (
{
closed = 1;
nodes = (
(257,-4,o),
(279,-2,o),
(298,1,c),
(294,43,l),
(277,41,o),
(255,40,o),
(243,40,cs),
(177,40,o),
(156,65,o),
(156,118,cs),
(156,404,l),
(295,404,l),
(295,448,l),
(156,448,l),
(156,576,l),
(108,576,l),
(108,448,l),
(21,448,l),
(21,408,l),
(108,403,l),
(108,119,ls),
(108,37,o),
(146,-4,o),
(236,-4,cs)
);
}
);
width = 352;
}
);
metricWidth = "=_pixel*5.5";
unicode = 116;
}
{
color = 8;
glyphname = w;
kernLeft = w;
kernRight = w;
layers = (
{
anchors = (
{
name = bottom;
pos = (288,0);
},
{
name = top;
pos = (288,448);
}
);
background = {
anchors = (
{
name = bottom;
pos = (288,0);
},
{
name = top;
pos = (288,448);
}
);
shapes = (
{
closed = 1;
nodes = (
(208,0,l),
(263,133,o),
(289,267,o),
(301,444,c),
(262,444,l),
(250,272,o),
(219,145,o),
(175,22,c),
(176,0,l)
);
},
{
closed = 1;
nodes = (
(189,0,l),
(189,22,l),
(143,145,o),
(110,276,o),
(95,448,c),
(46,448,l),
(60,271,o),
(98,133,o),
(156,0,c)
);
},
{
closed = 1;
nodes = (
(424,0,l),
(482,133,o),
(516,271,o),
(530,448,c),
(481,448,l),
(466,276,o),
(437,145,o),
(391,22,c),
(391,0,l)
);
},
{
closed = 1;
nodes = (
(404,0,l),
(405,22,l),
(361,145,o),
(326,272,o),
(314,444,c),
(275,444,l),
(287,267,o),
(317,133,o),
(372,0,c)
);
}
);
};
layerId = "7DDCEF54-C770-4FAD-B154-EE8058BAA7E5";
shapes = (
{
closed = 1;
nodes = (
(208,0,l),
(249,99,o),
(273,196,o),
(288,312,c),
(304,197,o),
(331,99,o),
(372,0,c),
(424,0,l),
(482,133,o),
(516,271,o),
(530,448,c),
(481,448,l),
(467,286,o),
(440,159,o),
(398,41,c),
(357,159,o),
(325,282,o),
(314,444,c),
(262,444,l),
(251,282,o),
(222,158,o),
(182,41,c),
(140,158,o),
(109,286,o),
(95,448,c),
(46,448,l),
(60,271,o),
(98,133,o),
(156,0,c)
);
}
);
width = 576;
},
{
anchors = (
{
name = bottom;
pos = (288,0);
},
{
name = top;
pos = (288,448);
}
);
background = {
anchors = (
{
name = bottom;
pos = (288,0);
},
{
name = top;
pos = (288,448);
}
);
hints = (
{
horizontal = 1;
options = 4;
place = (0,0);
target = (3,8);
type = TTShift;
},
{
horizontal = 1;
place = (0,444);
target = (0,4);
type = TTShift;
},
{
horizontal = 1;
options = 4;
other1 = (0,7,1,4);
place = (0,448);
target = (1,4);
type = TTInterpolate;
},
{
horizontal = 1;
options = 4;
other1 = (0,3,3,8);
place = (0,448);
target = (1,4);
type = TTInterpolate;
},
{
horizontal = 1;
options = 4;
place = (0,76);
target = (2,7,3,4);
type = TTShift;
},
{
horizontal = 1;
options = 4;
place = (0,448);
target = (2,4);
type = TTShift;
},
{
options = 8;
place = (0,0);
type = TTSnap;
},
{
options = 8;
place = (0,0);
type = TTSnap;
},
{
options = 4;
place = (0,113);
target = (1,4);
type = TTStem;
},
{
options = 4;
place = (0,463);
target = (2,4);
type = TTStem;
},
{
options = 4;
other1 = (0,4);
place = (0,463);
target = (2,4);
type = TTInterpolate;
},
{
options = 4;
place = (0,324);
target = (3,4);
type = TTStem;
},
{
options = 4;
other1 = (1,8);
place = (0,463);
target = (2,4);
type = TTInterpolate;
},
{
options = 4;
other1 = (2,0);
place = (0,536);
target = (2,3);
type = TTInterpolate;
},
{
options = 4;
other1 = (0,0);
place = (0,536);
target = (2,3);
type = TTInterpolate;
},
{
options = 4;
other1 = (3,8);
place = (0,463);
target = (2,4);
type = TTInterpolate;
},
{
options = 4;
other1 = (0,7,1,4);
place = (0,217);
target = (0,0);
type = TTInterpolate;
},
{
options = 4;
other1 = (2,7,3,4);
place = (0,363);
target = (3,8);
type = TTInterpolate;
}
);
shapes = (
{
closed = 1;
nodes = (
(217,0,l),
(270,133,o),
(298,271,o),
(309,444,c),
(252,444,l),
(242,276,o),
(212,145,o),
(167,22,c),
(174,0,l)
);
},
{
closed = 1;
nodes = (
(193,0,l),
(204,22,l),
(160,145,o),
(124,276,o),
(113,448,c),
(40,448,l),
(54,271,o),
(92,133,o),
(150,0,c)
);
},
{
closed = 1;
nodes = (
(430,0,l),
(488,133,o),
(522,271,o),
(536,448,c),
(463,448,l),
(452,276,o),
(420,145,o),
(376,22,c),
(387,0,l)
);
},
{
closed = 1;
nodes = (
(406,0,l),
(413,22,l),
(368,145,o),
(334,276,o),
(324,444,c),
(267,444,l),
(279,271,o),
(310,133,o),
(363,0,c)
);
}
);
};
hints = (
{
horizontal = 1;
options = 4;
origin = (0,0);
target = (0,6);
type = TTShift;
},
{
horizontal = 1;
origin = (0,24);
target = (0,18);
type = TTShift;
},
{
horizontal = 1;
options = 4;
origin = (0,0);
other1 = (0,21);
target = (0,24);
type = TTInterpolate;
},
{
horizontal = 1;
options = 4;
origin = (0,0);
other1 = (0,3);
target = (0,24);
type = TTInterpolate;
},
{
horizontal = 1;
options = 4;
origin = (0,21);
target = (0,14);
type = TTShift;
},
{
horizontal = 1;
options = 4;
origin = (0,24);
target = (0,11);
type = TTShift;
},
{
options = 8;
origin = (0,25);
type = TTSnap;
},
{
options = 8;
origin = (0,10);
type = TTSnap;
},
{
options = 4;
origin = (0,25);
target = (0,24);
type = TTStem;
},
{
options = 4;
origin = (0,10);
target = (0,11);
type = TTStem;
},
{
options = 4;
origin = (0,25);
other1 = (0,18);
target = (0,11);
type = TTInterpolate;
},
{
options = 4;
origin = (0,18);
target = (0,17);
type = TTStem;
},
{
options = 4;
origin = (0,25);
other1 = (0,28);
target = (0,11);
type = TTInterpolate;
},
{
options = 4;
origin = (0,24);
other1 = (0,7);
target = (0,10);
type = TTInterpolate;
},
{
options = 4;
origin = (0,24);
other1 = (0,0);
target = (0,10);
type = TTInterpolate;
},
{
options = 4;
origin = (0,25);
other1 = (0,6);
target = (0,11);
type = TTInterpolate;
},
{
options = 4;
origin = (0,28);
other1 = (0,21);
target = (0,0);
type = TTInterpolate;
},
{
options = 4;
origin = (0,7);
other1 = (0,14);
target = (0,6);
type = TTInterpolate;
}
);
layerId = "95FB0C11-C828-4064-8966-34220AA4D426";
shapes = (
{
closed = 1;
nodes = (
(217,0,l),
(250,83,o),
(273,167,o),
(289,262,c),
(306,167,o),
(330,83,o),
(363,0,c),
(430,0,l),
(488,133,o),
(522,271,o),
(536,448,c),
(463,448,l),
(454,302,o),
(429,184,o),
(394,76,c),
(359,183,o),
(333,299,o),
(324,444,c),
(252,444,l),
(243,299,o),
(220,183,o),
(186,76,c),
(150,184,o),
(122,302,o),
(113,448,c),
(40,448,l),
(54,271,o),
(92,133,o),
(150,0,c)
);
}
);
width = 576;
},
{
anchors = (
{
name = bottom;
pos = (288,0);
},
{
name = top;
pos = (288,448);
}
);
background = {
anchors = (
{
name = bottom;
pos = (288,0);
},
{
name = top;
pos = (288,448);
}
);
shapes = (
{
closed = 1;
nodes = (
(228,0,l),
(277,133,o),
(304,271,o),
(316,444,c),
(239,444,l),
(231,276,o),
(199,145,o),
(150,22,c),
(170,0,l)
);
},
{
closed = 1;
nodes = (
(189,0,l),
(218,22,l),
(174,145,o),
(141,276,o),
(135,448,c),
(22,448,l),
(37,271,o),
(76,133,o),
(136,0,c)
);
},
{
closed = 1;
nodes = (
(444,0,l),
(504,133,o),
(539,271,o),
(554,448,c),
(441,448,l),
(435,276,o),
(406,145,o),
(362,22,c),
(391,0,l)
);
},
{
closed = 1;
nodes = (
(410,0,l),
(430,22,l),
(381,145,o),
(345,276,o),
(337,444,c),
(260,444,l),
(272,271,o),
(303,133,o),
(352,0,c)
);
}
);
};
layerId = "92967D72-867E-4A8B-929F-F44D834DD4C9";
shapes = (
{
closed = 1;
nodes = (
(228,0,l),
(254,71,o),
(274,143,o),
(289,223,c),
(305,143,o),
(326,71,o),
(352,0,c),
(444,0,l),
(504,133,o),
(539,271,o),
(554,448,c),
(441,448,l),
(437,323,o),
(420,218,o),
(394,123,c),
(364,218,o),
(343,320,o),
(337,444,c),
(239,444,l),
(233,320,o),
(214,218,o),
(185,123,c),
(158,218,o),
(139,323,o),
(135,448,c),
(22,448,l),
(37,271,o),
(76,133,o),
(136,0,c)
);
}
);
width = 576;
}
);
metricWidth = "=_pixel*9";
unicode = 119;
}
{
glyphname = x;
kernLeft = x;
kernRight = k;
layers = (
{
anchors = (
{
name = bottom;
pos = (224,0);
},
{
name = top;
pos = (224,448);
}
);
background = {
hints = (
{
horizontal = 1;
options = 4;
place = (0,150);
type = TTInterpolate;
},
{
horizontal = 1;
options = 4;
place = (0,150);
type = TTInterpolate;
},
{
horizontal = 1;
options = 4;
place = (448,0);
type = TTShift;
},
{
horizontal = 1;
options = 4;
place = (0,0);
type = TTShift;
},
{
options = 4;
place = (128,0);
type = TTShift;
},
{
options = 8;
place = (0,0);
type = TTSnap;
},
{
options = 4;
place = (56,72);
type = TTStem;
},
{
options = 8;
place = (56,6);
type = TTShift;
},
{
options = 8;
place = (0,0);
type = TTSnap;
},
{
options = 4;
place = (392,72);
type = TTStem;
},
{
options = 8;
place = (392,6);
type = TTShift;
},
{
options = 4;
place = (62,72);
type = TTStem;
},
{
options = 4;
place = (386,72);
type = TTStem;
}
);
shapes = (
{
closed = 1;
nodes = (
(128,0,l),
(135,91,o),
(165,148,o),
(229,197,c),
(254,214,l),
(337,258,o),
(378,332,o),
(386,448,c),
(314,448,l),
(306,338,o),
(280,294,o),
(218,250,c),
(183,227,l),
(106,179,o),
(63,112,o),
(56,0,c)
);
},
{
closed = 1;
nodes = (
(392,0,l),
(385,116,o),
(342,185,o),
(265,235,cs),
(230,258,ls),
(168,300,o),
(142,342,o),
(134,448,c),
(62,448,l),
(70,328,o),
(111,252,o),
(194,206,c),
(219,189,l),
(283,142,o),
(313,87,o),
(320,0,c)
);
}
);
};
hints = (
{
horizontal = 1;
options = 4;
origin = (0,0);
target = (0,6);
type = TTShift;
},
{
horizontal = 1;
options = 4;
origin = (0,14);
target = (0,20);
type = TTShift;
},
{
horizontal = 1;
options = 4;
origin = (0,0);
other1 = (0,3);
target = (0,14);
type = TTInterpolate;
},
{
horizontal = 1;
options = 4;
origin = (0,0);
other1 = (0,17);
target = (0,14);
type = TTInterpolate;
},
{
origin = (0,27);
type = TTSnap;
},
{
options = 4;
origin = (0,27);
target = (0,0);
type = TTStem;
},
{
origin = (0,7);
type = TTSnap;
},
{
options = 4;
origin = (0,7);
target = (0,6);
type = TTStem;
},
{
origin = (0,7);
target = (0,13);
type = TTShift;
},
{
options = 4;
origin = (0,13);
target = (0,14);
type = TTStem;
},
{
origin = (0,27);
target = (0,21);
type = TTShift;
},
{
options = 4;
origin = (0,21);
target = (0,20);
type = TTStem;
},
{
options = 4;
origin = (0,27);
other1 = (0,24);
target = (0,6);
type = TTInterpolate;
},
{
options = 4;
origin = (0,0);
other1 = (0,10);
target = (0,7);
type = TTInterpolate;
}
);
layerId = "95FB0C11-C828-4064-8966-34220AA4D426";
shapes = (
{
closed = 1;
nodes = (
(128,0,l),
(135,87,o),
(161,141,o),
(219,189,c),
(283,142,o),
(313,87,o),
(320,0,c),
(392,0,l),
(385,111,o),
(347,177,o),
(276,227,c),
(344,272,o),
(379,344,o),
(386,448,c),
(314,448,l),
(307,346,o),
(284,300,o),
(229,258,c),
(168,300,o),
(142,342,o),
(134,448,c),
(62,448,l),
(69,340,o),
(104,267,o),
(172,220,c),
(101,172,o),
(63,107,o),
(56,0,c)
);
}
);
width = 448;
},
{
anchors = (
{
name = bottom;
pos = (224,0);
},
{
name = top;
pos = (224,448);
}
);
background = {
shapes = (
{
closed = 1;
nodes = (
(158,0,l),
(163,90,o),
(188,147,o),
(241,195,c),
(264,212,l),
(347,257,o),
(388,331,o),
(396,448,c),
(284,448,l),
(278,339,o),
(256,295,o),
(205,252,c),
(173,229,l),
(96,180,o),
(53,112,o),
(46,0,c)
);
},
{
closed = 1;
nodes = (
(402,0,l),
(396,115,o),
(356,185,o),
(285,235,cs),
(253,258,ls),
(195,300,o),
(171,342,o),
(164,448,c),
(52,448,l),
(59,328,o),
(97,252,o),
(174,206,c),
(197,189,l),
(256,142,o),
(284,87,o),
(290,0,c)
);
}
);
};
layerId = "92967D72-867E-4A8B-929F-F44D834DD4C9";
shapes = (
{
closed = 1;
nodes = (
(158,0,l),
(162,75,o),
(181,128,o),
(218,171,c),
(263,128,o),
(285,75,o),
(290,0,c),
(402,0,l),
(396,112,o),
(359,180,o),
(292,230,c),
(356,276,o),
(389,346,o),
(396,448,c),
(284,448,l),
(279,358,o),
(264,314,o),
(230,276,c),
(189,313,o),
(170,357,o),
(164,448,c),
(52,448,l),
(58,338,o),
(92,264,o),
(156,218,c),
(90,170,o),
(52,103,o),
(46,0,c)
);
}
);
width = 448;
},
{
anchors = (
{
name = bottom;
pos = (224,0);
},
{
name = top;
pos = (224,448);
}
);
background = {
shapes = (
{
closed = 1;
nodes = (
(110,0,l),
(119,93,o),
(151,159,o),
(227,205,cs),
(250,219,ls),
(330,268,o),
(372,333,o),
(380,448,c),
(332,448,l),
(323,339,o),
(298,293,o),
(222,244,cs),
(194,226,ls),
(116,176,o),
(71,113,o),
(62,0,c)
);
},
{
closed = 1;
nodes = (
(386,0,l),
(377,113,o),
(331,174,o),
(253,229,cs),
(227,247,ls),
(154,297,o),
(125,339,o),
(116,448,c),
(68,448,l),
(77,330,o),
(124,266,o),
(192,221,cs),
(218,204,ls),
(301,150,o),
(330,89,o),
(338,0,c)
);
}
);
};
layerId = "7DDCEF54-C770-4FAD-B154-EE8058BAA7E5";
shapes = (
{
closed = 1;
nodes = (
(110,0,l),
(119,92,o),
(150,156,o),
(222,202,c),
(303,148,o),
(330,89,o),
(338,0,c),
(386,0,l),
(377,111,o),
(333,171,o),
(259,225,c),
(333,273,o),
(372,337,o),
(380,448,c),
(332,448,l),
(323,341,o),
(299,295,o),
(227,247,c),
(154,297,o),
(125,339,o),
(116,448,c),
(68,448,l),
(77,331,o),
(122,268,o),
(189,223,c),
(113,173,o),
(71,111,o),
(62,0,c)
);
}
);
width = 448;
}
);
unicode = 120;
}
{
glyphname = y;
kernLeft = y;
kernRight = y;
layers = (
{
anchors = (
{
name = bottom;
pos = (416,0);
},
{
name = origin1;
pos = (318,448);
},
{
name = top;
pos = (224,448);
}
);
background = {
anchors = (
{
name = bottom;
pos = (416,0);
},
{
name = origin1;
pos = (318,448);
},
{
name = top;
pos = (224,448);
}
);
hints = (
{
horizontal = 1;
options = 4;
place = (0,-137);
stem = 0;
target = (0,12);
type = TTStem;
},
{
options = 4;
place = (0,103);
target = (1,3);
type = TTStem;
},
{
options = 4;
place = (0,318);
target = (0,6);
type = TTStem;
},
{
options = 4;
place = (0,97);
target = (0,12);
type = TTShift;
},
{
horizontal = 1;
options = 4;
place = (0,448);
target = (0,6);
type = TTShift;
},
{
options = 8;
place = (0,0);
type = TTSnap;
},
{
options = 8;
place = (0,0);
type = TTSnap;
},
{
horizontal = 1;
other1 = (0,12,1,7);
place = (0,448);
target = (1,3);
type = TTInterpolate;
},
{
horizontal = 1;
options = 4;
place = (0,73);
target = (0,9,1,3);
type = TTStem;
},
{
options = 4;
other1 = (0,12,1,7);
place = (0,97);
target = (0,12);
type = TTInterpolate;
},
{
options = 4;
other1 = (0,9,1,3);
place = (0,97);
target = (0,12);
type = TTInterpolate;
}
);
shapes = (
{
closed = 1;
nodes = (
(267,-172,o),
(344,-104,o),
(369,34,cs),
(383,110,o),
(390,203,o),
(390,448,c),
(318,448,l),
(318,250,o),
(316,139,o),
(298,45,cs),
(281,-46,o),
(251,-109,o),
(97,-137,c),
(112,-199,l)
);
},
{
closed = 1;
nodes = (
(332,68,l),
(164,92,o),
(138,134,o),
(103,448,c),
(32,448,l),
(65,151,o),
(90,28,o),
(321,6,c)
);
}
);
};
hints = (
{
horizontal = 1;
options = 4;
origin = (0,20);
stem = 0;
target = (0,19);
type = TTStem;
},
{
options = 4;
origin = (0,13);
target = (0,12);
type = TTStem;
},
{
options = 4;
origin = (0,5);
target = (0,6);
type = TTStem;
},
{
options = 4;
origin = (0,13);
target = (0,19);
type = TTShift;
},
{
horizontal = 1;
options = 4;
origin = (0,12);
target = (0,6);
type = TTShift;
},
{
options = 8;
origin = (0,13);
type = TTSnap;
},
{
options = 8;
origin = (0,5);
type = TTSnap;
},
{
horizontal = 1;
origin = (0,20);
other1 = (0,16);
target = (0,12);
type = TTInterpolate;
},
{
horizontal = 1;
options = 4;
origin = (0,16);
target = (0,9);
type = TTStem;
},
{
options = 4;
origin = (0,6);
other1 = (0,16);
target = (0,19);
type = TTInterpolate;
},
{
options = 4;
origin = (0,6);
other1 = (0,9);
target = (0,19);
type = TTInterpolate;
}
);
layerId = "95FB0C11-C828-4064-8966-34220AA4D426";
shapes = (
{
closed = 1;
nodes = (
(267,-172,o),
(344,-104,o),
(369,34,cs),
(383,110,o),
(390,203,o),
(390,448,c),
(318,448,l),
(318,269,o),
(316,160,o),
(303,73,c),
(162,98,o),
(136,152,o),
(103,448,c),
(32,448,l),
(63,166,o),
(88,40,o),
(290,10,c),
(270,-63,o),
(229,-113,o),
(97,-137,c),
(112,-199,l)
);
}
);
width = 448;
},
{
anchors = (
{
name = bottom;
pos = (416,0);
},
{
name = origin1;
pos = (288,448);
},
{
name = top;
pos = (224,448);
}
);
background = {
anchors = (
{
name = bottom;
pos = (416,0);
},
{
name = origin1;
pos = (288,448);
},
{
name = top;
pos = (224,448);
}
);
shapes = (
{
closed = 1;
nodes = (
(267,-176,o),
(350,-104,o),
(377,34,cs),
(392,110,o),
(400,203,o),
(400,448,c),
(288,448,l),
(288,255,o),
(287,147,o),
(270,56,cs),
(254,-32,o),
(223,-92,o),
(84,-122,c),
(102,-199,l)
);
},
{
closed = 1;
nodes = (
(320,76,l),
(183,99,o),
(162,141,o),
(133,448,c),
(22,448,l),
(55,145,o),
(80,20,o),
(309,-2,c)
);
}
);
};
layerId = "92967D72-867E-4A8B-929F-F44D834DD4C9";
shapes = (
{
closed = 1;
nodes = (
(267,-176,o),
(350,-104,o),
(377,34,cs),
(392,110,o),
(400,203,o),
(400,448,c),
(288,448,l),
(288,276,o),
(287,170,o),
(275,86,c),
(179,113,o),
(158,179,o),
(133,448,c),
(22,448,l),
(52,170,o),
(75,41,o),
(257,5,c),
(236,-56,o),
(195,-98,o),
(84,-122,c),
(102,-199,l)
);
}
);
width = 448;
},
{
anchors = (
{
name = bottom;
pos = (416,0);
},
{
name = origin1;
pos = (336,448);
},
{
name = top;
pos = (224,448);
}
);
background = {
anchors = (
{
name = bottom;
pos = (416,0);
},
{
name = origin1;
pos = (336,448);
},
{
name = top;
pos = (224,448);
}
);
shapes = (
{
closed = 1;
nodes = (
(267,-170,o),
(340,-104,o),
(364,34,cs),
(377,110,o),
(384,203,o),
(384,448,c),
(336,448,l),
(336,247,o),
(334,134,o),
(317,38,cs),
(301,-54,o),
(270,-124,o),
(107,-158,c),
(118,-199,l)
);
},
{
closed = 1;
nodes = (
(339,53,l),
(153,78,o),
(124,127,o),
(85,448,c),
(38,448,l),
(69,158,o),
(96,33,o),
(328,11,c)
);
}
);
};
layerId = "7DDCEF54-C770-4FAD-B154-EE8058BAA7E5";
shapes = (
{
closed = 1;
nodes = (
(267,-170,o),
(340,-104,o),
(364,34,cs),
(377,110,o),
(384,203,o),
(384,448,c),
(336,448,l),
(336,259,o),
(334,147,o),
(320,56,c),
(151,82,o),
(123,138,o),
(85,448,c),
(38,448,l),
(68,166,o),
(96,39,o),
(312,13,c),
(294,-67,o),
(256,-127,o),
(107,-158,c),
(118,-199,l)
);
}
);
width = 448;
},
{
anchors = (
{
name = bottom;
pos = (416,128);
},
{
name = origin1;
pos = (318,448);
},
{
name = top;
pos = (224,448);
}
);
associatedMasterId = "95FB0C11-C828-4064-8966-34220AA4D426";
attr = {
coordinates = (
400,
-64,
0
);
};
background = {
anchors = (
{
name = bottom;
pos = (416,128);
},
{
name = origin1;
pos = (318,448);
},
{
name = top;
pos = (224,448);
}
);
shapes = (
{
closed = 1;
nodes = (
(269,-51,o),
(340,16,o),
(369,142,cs),
(382,199,o),
(390,267,o),
(390,448,c),
(318,448,l),
(318,303,o),
(314,223,o),
(298,153,cs),
(280,72,o),
(253,12,o),
(97,-9,c),
(112,-71,l)
);
},
{
closed = 1;
nodes = (
(332,164,l),
(166,184,o),
(123,213,o),
(103,448,c),
(32,448,l),
(50,216,o),
(90,119,o),
(321,102,c)
);
}
);
};
layerId = "36DCE8AA-6B72-47C1-A328-B1D48C18AEF0";
name = "{400, 0, -64}";
shapes = (
{
closed = 1;
nodes = (
(269,-51,o),
(340,16,o),
(369,142,cs),
(382,199,o),
(390,267,o),
(390,448,c),
(318,448,l),
(318,313,o),
(314,234,o),
(301,168,c),
(160,189,o),
(122,227,o),
(103,448,c),
(32,448,l),
(49,229,o),
(86,130,o),
(285,106,c),
(264,50,o),
(221,8,o),
(97,-9,c),
(112,-71,l)
);
}
);
width = 448;
},
{
anchors = (
{
name = bottom;
pos = (416,128);
},
{
name = origin1;
pos = (336,448);
},
{
name = top;
pos = (224,448);
}
);
associatedMasterId = "7DDCEF54-C770-4FAD-B154-EE8058BAA7E5";
attr = {
coordinates = (
200,
-64,
0
);
};
background = {
anchors = (
{
name = bottom;
pos = (416,128);
},
{
name = origin1;
pos = (336,448);
},
{
name = top;
pos = (224,448);
}
);
hints = (
{
horizontal = 1;
options = 4;
place = (0,-28);
stem = 0;
target = (0,12);
type = TTStem;
},
{
options = 4;
place = (0,85);
target = (1,3);
type = TTStem;
},
{
options = 4;
place = (0,336);
target = (0,6);
type = TTStem;
},
{
options = 4;
place = (0,107);
target = (0,12);
type = TTShift;
},
{
horizontal = 1;
options = 4;
place = (0,448);
target = (0,6);
type = TTShift;
},
{
options = 8;
place = (38,-2000);
type = TTSnap;
},
{
options = 8;
place = (384,-2000);
type = TTSnap;
},
{
horizontal = 1;
other1 = (0,12,1,7);
place = (0,448);
target = (1,3);
type = TTInterpolate;
},
{
horizontal = 1;
options = 4;
place = (0,152);
target = (0,9,1,3);
type = TTStem;
},
{
options = 4;
other1 = (0,12,1,7);
place = (0,107);
target = (0,12);
type = TTInterpolate;
},
{
options = 4;
other1 = (0,9,1,3);
place = (0,107);
target = (0,12);
type = TTInterpolate;
}
);
shapes = (
{
closed = 1;
nodes = (
(266,-46,o),
(335,7,o),
(362,119,cs),
(377,180,o),
(384,253,o),
(384,448,c),
(336,448,l),
(336,289,o),
(335,199,o),
(315,123,cs),
(296,51,o),
(268,-2,o),
(107,-28,c),
(118,-69,l)
);
},
{
closed = 1;
nodes = (
(339,150,l),
(153,169,o),
(108,218,o),
(85,448,c),
(38,448,l),
(63,223,o),
(96,125,o),
(328,108,c)
);
}
);
};
hints = (
{
horizontal = 1;
options = 4;
origin = (0,20);
stem = 0;
target = (0,19);
type = TTStem;
},
{
options = 4;
origin = (0,13);
target = (0,12);
type = TTStem;
},
{
options = 4;
origin = (0,5);
target = (0,6);
type = TTStem;
},
{
options = 4;
origin = (0,13);
target = (0,19);
type = TTShift;
},
{
horizontal = 1;
options = 4;
origin = (0,12);
target = (0,6);
type = TTShift;
},
{
options = 8;
origin = (0,13);
type = TTSnap;
},
{
options = 8;
origin = (0,5);
type = TTSnap;
},
{
horizontal = 1;
origin = (0,20);
other1 = (0,16);
target = (0,12);
type = TTInterpolate;
},
{
horizontal = 1;
options = 4;
origin = (0,16);
target = (0,9);
type = TTStem;
},
{
options = 4;
origin = (0,6);
other1 = (0,16);
target = (0,19);
type = TTInterpolate;
},
{
options = 4;
origin = (0,6);
other1 = (0,9);
target = (0,19);
type = TTInterpolate;
}
);
layerId = "80FD7751-4A6E-4FAC-B319-E771C2E608CF";
name = "5. Mar 25 at 10:20";
shapes = (
{
closed = 1;
nodes = (
(266,-46,o),
(335,7,o),
(362,119,cs),
(377,180,o),
(384,253,o),
(384,448,c),
(336,448,l),
(336,309,o),
(335,222,o),
(322,152,c),
(151,172,o),
(107,226,o),
(85,448,c),
(38,448,l),
(62,229,o),
(94,130,o),
(311,109,c),
(292,45,o),
(257,-4,o),
(107,-28,c),
(118,-69,l)
);
}
);
width = 448;
},
{
anchors = (
{
name = bottom;
pos = (416,128);
},
{
name = origin1;
pos = (288,448);
},
{
name = top;
pos = (224,448);
}
);
associatedMasterId = "92967D72-867E-4A8B-929F-F44D834DD4C9";
attr = {
coordinates = (
700,
-64,
0
);
};
background = {
anchors = (
{
name = bottom;
pos = (416,128);
},
{
name = origin1;
pos = (288,448);
},
{
name = top;
pos = (224,448);
}
);
hints = (
{
horizontal = 1;
options = 4;
place = (0,4);
stem = 0;
target = (0,12);
type = TTStem;
},
{
options = 4;
place = (0,133);
target = (1,3);
type = TTStem;
},
{
options = 4;
place = (0,288);
target = (0,6);
type = TTStem;
},
{
options = 4;
place = (0,84);
target = (0,12);
type = TTShift;
},
{
horizontal = 1;
options = 4;
place = (0,448);
target = (0,6);
type = TTShift;
},
{
options = 8;
place = (22,2000);
type = TTSnap;
},
{
options = 8;
place = (400,2000);
type = TTSnap;
},
{
horizontal = 1;
other1 = (0,12,1,7);
place = (0,448);
target = (1,3);
type = TTInterpolate;
},
{
horizontal = 1;
options = 4;
place = (0,182);
target = (0,9,1,3);
type = TTStem;
},
{
options = 4;
other1 = (0,12,1,7);
place = (0,84);
target = (0,12);
type = TTInterpolate;
},
{
options = 4;
other1 = (0,9,1,3);
place = (0,84);
target = (0,12);
type = TTInterpolate;
}
);
shapes = (
{
closed = 1;
nodes = (
(276,-50,o),
(353,27,o),
(381,172,cs),
(391,224,o),
(400,274,o),
(400,448,c),
(288,448,l),
(288,314,o),
(286,240,o),
(270,176,cs),
(249,90,o),
(223,33,o),
(84,4,c),
(102,-73,l)
);
},
{
closed = 1;
nodes = (
(320,174,l),
(183,191,o),
(162,222,o),
(133,448,c),
(22,448,l),
(55,211,o),
(80,112,o),
(309,95,c)
);
}
);
};
hints = (
{
horizontal = 1;
options = 4;
origin = (0,20);
stem = 0;
target = (0,19);
type = TTStem;
},
{
options = 4;
origin = (0,13);
target = (0,12);
type = TTStem;
},
{
options = 4;
origin = (0,5);
target = (0,6);
type = TTStem;
},
{
options = 4;
origin = (0,13);
target = (0,19);
type = TTShift;
},
{
horizontal = 1;
options = 4;
origin = (0,12);
target = (0,6);
type = TTShift;
},
{
options = 8;
origin = (0,13);
type = TTSnap;
},
{
options = 8;
origin = (0,5);
type = TTSnap;
},
{
horizontal = 1;
origin = (0,20);
other1 = (0,16);
target = (0,12);
type = TTInterpolate;
},
{
horizontal = 1;
options = 4;
origin = (0,16);
target = (0,9);
type = TTStem;
},
{
options = 4;
origin = (0,6);
other1 = (0,16);
target = (0,19);
type = TTInterpolate;
},
{
options = 4;
origin = (0,6);
other1 = (0,9);
target = (0,19);
type = TTInterpolate;
}
);
layerId = "8D9ECB98-C149-4335-922E-E0DCFD95B32C";
name = "5. Mar 25 at 10:24";
shapes = (
{
closed = 1;
nodes = (
(276,-50,o),
(353,27,o),
(381,172,cs),
(391,224,o),
(400,274,o),
(400,448,c),
(288,448,l),
(288,318,o),
(286,245,o),
(271,182,c),
(177,203,o),
(158,253,o),
(133,448,c),
(22,448,l),
(52,234,o),
(74,134,o),
(245,103,c),
(221,57,o),
(180,24,o),
(84,4,c),
(102,-73,l)
);
}
);
width = 448;
}
);
unicode = 121;
}
{
color = 8;
glyphname = z;
kernLeft = z;
kernRight = z;
layers = (
{
anchors = (
{
name = "#center";
pos = (194,224);
},
{
name = bottom;
pos = (194,0);
},
{
name = top;
pos = (194,448);
}
);
background = {
anchors = (
{
name = bottom;
pos = (208,0);
},
{
name = center;
pos = (208,224);
},
{
name = top;
pos = (208,448);
}
);
hints = (
{
horizontal = 1;
options = 4;
place = (0,64);
target = (1,2);
type = TTStem;
},
{
horizontal = 1;
options = 4;
place = (0,384);
target = (0,0);
type = TTStem;
},
{
horizontal = 1;
options = 4;
place = (0,392);
target = (0,2);
type = TTShift;
},
{
horizontal = 1;
options = 4;
place = (0,56);
target = (1,4);
type = TTShift;
},
{
options = 8;
place = (0,0);
type = TTSnap;
},
{
options = 8;
place = (0,0);
type = TTSnap;
},
{
place = (0,70);
target = (0,4);
type = TTShift;
},
{
place = (0,356);
target = (1,1);
type = TTShift;
},
{
options = 4;
place = (0,144);
target = (1,3,2,1);
type = TTStem;
},
{
options = 4;
place = (0,263);
target = (0,1,2,3);
type = TTStem;
}
);
shapes = (
{
closed = 1;
nodes = (
(70,384,l),
(316,384,l),
(352,392,l),
(352,448,l),
(70,448,l)
);
},
{
closed = 1;
nodes = (
(55,0,l),
(356,0,l),
(356,64,l),
(91,64,l),
(55,56,l)
);
},
{
closed = 1;
nodes = (
(139,56,l),
(352,392,l),
(268,392,l),
(55,56,l)
);
}
);
};
hints = (
{
horizontal = 1;
options = 4;
origin = (0,4);
target = (0,5);
type = TTStem;
},
{
horizontal = 1;
options = 4;
origin = (0,9);
target = (0,0);
type = TTStem;
},
{
horizontal = 1;
options = 4;
origin = (0,0);
target = (0,7);
type = TTShift;
},
{
horizontal = 1;
options = 4;
origin = (0,5);
target = (0,2);
type = TTShift;
},
{
options = 8;
origin = (0,3);
type = TTSnap;
},
{
options = 8;
origin = (0,8);
type = TTSnap;
},
{
origin = (0,3);
target = (0,9);
type = TTShift;
},
{
origin = (0,8);
target = (0,4);
type = TTShift;
},
{
options = 4;
origin = (0,3);
target = (0,6);
type = TTStem;
},
{
options = 4;
origin = (0,8);
target = (0,1);
type = TTStem;
}
);
layerId = "95FB0C11-C828-4064-8966-34220AA4D426";
shapes = (
{
closed = 1;
nodes = (
(56,384,l),
(249,384,l),
(41,56,l),
(41,0,l),
(342,0,l),
(342,64,l),
(130,64,l),
(338,392,l),
(338,448,l),
(56,448,l)
);
}
);
width = 384;
},
{
anchors = (
{
name = "#center";
pos = (194,224);
},
{
name = bottom;
pos = (194,0);
},
{
name = top;
pos = (194,448);
}
);
background = {
anchors = (
{
name = bottom;
pos = (208,0);
},
{
name = center;
pos = (208,224);
},
{
name = top;
pos = (208,448);
}
);
shapes = (
{
closed = 1;
nodes = (
(60,368,l),
(316,368,l),
(362,384,l),
(362,448,l),
(60,448,l)
);
},
{
closed = 1;
nodes = (
(45,0,l),
(366,0,l),
(366,80,l),
(91,80,l),
(45,64,l)
);
},
{
closed = 1;
nodes = (
(166,64,l),
(362,384,l),
(241,384,l),
(45,64,l)
);
}
);
};
layerId = "92967D72-867E-4A8B-929F-F44D834DD4C9";
shapes = (
{
closed = 1;
nodes = (
(46,368,l),
(217,368,l),
(31,64,l),
(31,0,l),
(352,0,l),
(352,80,l),
(162,80,l),
(348,384,l),
(348,448,l),
(46,448,l)
);
}
);
width = 384;
},
{
anchors = (
{
name = "#center";
pos = (194,224);
},
{
name = bottom;
pos = (194,0);
},
{
name = top;
pos = (194,448);
}
);
background = {
anchors = (
{
name = bottom;
pos = (208,0);
},
{
name = center;
pos = (208,224);
},
{
name = top;
pos = (208,448);
}
);
shapes = (
{
closed = 1;
nodes = (
(76,406,l),
(316,406,l),
(346,414,l),
(346,448,l),
(76,448,l)
);
},
{
closed = 1;
nodes = (
(61,0,l),
(350,0,l),
(350,42,l),
(91,42,l),
(61,34,l)
);
},
{
closed = 1;
nodes = (
(113,34,l),
(346,414,l),
(294,414,l),
(61,34,l)
);
}
);
};
layerId = "7DDCEF54-C770-4FAD-B154-EE8058BAA7E5";
shapes = (
{
closed = 1;
nodes = (
(62,406,l),
(275,406,l),
(47,34,l),
(47,0,l),
(336,0,l),
(336,42,l),
(104,42,l),
(332,414,l),
(332,448,l),
(62,448,l)
);
}
);
width = 384;
}
);
metricWidth = "=_pixel*6";
unicode = 122;
}
{
glyphname = braceleft;
kernRight = parenleft;
layers = (
{
hints = (
{
horizontal = 1;
options = 4;
origin = (0,19);
stem = 0;
target = (0,18);
type = TTStem;
},
{
horizontal = 1;
options = 4;
origin = (0,38);
stem = 0;
target = (0,0);
type = TTStem;
},
{
options = 8;
origin = (0,35);
type = TTSnap;
},
{
options = 4;
origin = (0,35);
target = (0,3);
type = TTStem;
},
{
options = 4;
origin = (0,3);
target = (0,12);
type = TTShift;
},
{
options = 4;
origin = (0,35);
target = (0,25);
type = TTShift;
},
{
horizontal = 1;
origin = (0,19);
type = TTSnap;
},
{
horizontal = 1;
origin = (0,38);
type = TTSnap;
},
{
origin = (0,35);
target = (0,0);
type = TTShift;
},
{
options = 4;
origin = (0,0);
target = (0,18);
type = TTShift;
},
{
origin = (0,35);
target = (0,29);
type = TTShift;
},
{
options = 4;
origin = (0,3);
other1 = (0,9);
target = (0,29);
type = TTInterpolate;
},
{
horizontal = 1;
options = 4;
origin = (0,18);
other1 = (0,29);
target = (0,38);
type = TTInterpolate;
},
{
horizontal = 1;
options = 4;
origin = (0,19);
other1 = (0,28);
target = (0,0);
type = TTInterpolate;
},
{
horizontal = 1;
options = 4;
origin = (0,29);
other1 = (0,9);
target = (0,28);
type = TTInterpolate;
}
);
layerId = "95FB0C11-C828-4064-8966-34220AA4D426";
shapes = (
{
closed = 1;
nodes = (
(341,-7,l),
(253,9,o),
(220,24,o),
(220,74,cs),
(220,110,o),
(232,144,o),
(232,192,cs),
(232,272,o),
(196,301,o),
(134,320,c),
(196,339,o),
(232,368,o),
(232,448,cs),
(232,496,o),
(220,530,o),
(220,566,cs),
(220,616,o),
(253,631,o),
(341,647,c),
(331,704,l),
(228,691,o),
(152,665,o),
(152,566,cs),
(152,528,o),
(164,494,o),
(164,448,cs),
(164,400,o),
(139,373,o),
(84,364,c),
(84,276,l),
(139,267,o),
(164,240,o),
(164,192,cs),
(164,146,o),
(152,112,o),
(152,74,cs),
(152,-25,o),
(228,-51,o),
(331,-64,c)
);
}
);
width = 448;
},
{
layerId = "92967D72-867E-4A8B-929F-F44D834DD4C9";
shapes = (
{
closed = 1;
nodes = (
(371,9,l),
(283,25,o),
(250,39,o),
(250,88,cs),
(250,123,o),
(262,156,o),
(262,203,cs),
(262,270,o),
(227,301,o),
(166,320,c),
(227,339,o),
(262,370,o),
(262,437,cs),
(262,484,o),
(250,517,o),
(250,552,cs),
(250,601,o),
(283,615,o),
(371,631,c),
(361,704,l),
(235,691,o),
(142,666,o),
(142,570,cs),
(142,533,o),
(154,500,o),
(154,455,cs),
(154,408,o),
(129,382,o),
(74,373,c),
(74,267,l),
(129,258,o),
(154,232,o),
(154,185,cs),
(154,140,o),
(142,107,o),
(142,70,cs),
(142,-26,o),
(235,-51,o),
(361,-64,c)
);
}
);
width = 448;
},
{
layerId = "7DDCEF54-C770-4FAD-B154-EE8058BAA7E5";
shapes = (
{
closed = 1;
nodes = (
(320,-27,l),
(234,-11,o),
(202,9,o),
(202,66,cs),
(202,104,o),
(214,141,o),
(214,192,cs),
(214,272,o),
(184,301,o),
(131,320,c),
(184,339,o),
(214,368,o),
(214,448,cs),
(214,499,o),
(202,536,o),
(202,574,cs),
(202,631,o),
(234,651,o),
(320,667,c),
(313,704,l),
(224,692,o),
(158,666,o),
(158,570,cs),
(158,529,o),
(170,492,o),
(170,444,cs),
(170,387,o),
(145,355,o),
(90,345,c),
(90,295,l),
(145,285,o),
(170,253,o),
(170,196,cs),
(170,148,o),
(158,111,o),
(158,70,cs),
(158,-26,o),
(224,-52,o),
(313,-64,c)
);
}
);
width = 448;
}
);
unicode = 123;
}
{
glyphname = bar;
layers = (
{
hints = (
{
horizontal = 1;
origin = (0,2);
type = TTSnap;
},
{
horizontal = 1;
origin = (0,1);
type = TTSnap;
},
{
origin = (0,2);
type = TTSnap;
},
{
options = 4;
origin = (0,2);
target = (0,3);
type = TTStem;
}
);
layerId = "95FB0C11-C828-4064-8966-34220AA4D426";
shapes = (
{
closed = 1;
nodes = (
(260,704,l),
(188,704,l),
(188,-64,l),
(260,-64,l)
);
}
);
width = 448;
},
{
layerId = "92967D72-867E-4A8B-929F-F44D834DD4C9";
shapes = (
{
closed = 1;
nodes = (
(280,704,l),
(168,704,l),
(168,-64,l),
(280,-64,l)
);
}
);
width = 448;
},
{
layerId = "7DDCEF54-C770-4FAD-B154-EE8058BAA7E5";
shapes = (
{
closed = 1;
nodes = (
(248,704,l),
(200,704,l),
(200,-64,l),
(248,-64,l)
);
}
);
width = 448;
}
);
unicode = 124;
}
{
glyphname = asciitilde;
layers = (
{
hints = (
{
horizontal = 1;
origin = (0,19);
type = TTSnap;
},
{
horizontal = 1;
options = 4;
origin = (0,19);
target = (0,6);
type = TTStem;
},
{
horizontal = 1;
origin = (0,16);
stem = -1;
target = (0,19);
type = TTStem;
},
{
horizontal = 1;
options = 4;
origin = (0,16);
target = (0,9);
type = TTStem;
},
{
horizontal = 1;
origin = (0,19);
target = (0,13);
type = TTShift;
},
{
horizontal = 1;
origin = (0,9);
target = (0,3);
type = TTShift;
},
{
origin = (0,12);
type = TTSnap;
},
{
origin = (0,2);
type = TTSnap;
},
{
options = 4;
origin = (0,2);
target = (0,3);
type = TTStem;
},
{
options = 4;
origin = (0,12);
target = (0,13);
type = TTStem;
},
{
options = 4;
origin = (0,12);
other1 = (0,19,0);
target = (0,3);
type = TTInterpolate;
},
{
options = 4;
origin = (0,2);
other1 = (0,9,0);
target = (0,13);
type = TTInterpolate;
}
);
layerId = "95FB0C11-C828-4064-8966-34220AA4D426";
shapes = (
{
closed = 1;
nodes = (
(415,192,o),
(448,254,o),
(454,369,c),
(389,373,l),
(382,293,o),
(371,256,o),
(324,256,cs),
(251,256,o),
(252,384,o),
(126,384,cs),
(33,384,o),
(0,322,o),
(-6,208,c),
(59,203,l),
(66,283,o),
(77,320,o),
(124,320,cs),
(197,320,o),
(196,192,o),
(322,192,cs)
);
}
);
width = 448;
},
{
layerId = "92967D72-867E-4A8B-929F-F44D834DD4C9";
shapes = (
{
closed = 1;
nodes = (
(414,188,o),
(450,254,o),
(454,375,c),
(375,379,l),
(370,315,o),
(358,286,o),
(318,286,cs),
(252,286,o),
(263,388,o),
(128,388,cs),
(34,388,o),
(-2,322,o),
(-6,202,c),
(73,197,l),
(78,261,o),
(90,290,o),
(130,290,cs),
(196,290,o),
(185,188,o),
(318,188,cs)
);
}
);
width = 448;
},
{
layerId = "7DDCEF54-C770-4FAD-B154-EE8058BAA7E5";
shapes = (
{
closed = 1;
nodes = (
(413,192,o),
(444,253,o),
(450,365,c),
(408,367,l),
(401,278,o),
(387,236,o),
(335,236,cs),
(252,236,o),
(230,384,o),
(116,384,cs),
(35,384,o),
(4,323,o),
(-2,212,c),
(40,209,l),
(47,298,o),
(61,340,o),
(113,340,cs),
(196,340,o),
(218,192,o),
(334,192,cs)
);
}
);
width = 448;
}
);
unicode = 126;
}
{
glyphname = sterling;
layers = (
{
hints = (
{
horizontal = 1;
options = 4;
origin = (0,21);
target = (0,19);
type = TTStem;
},
{
horizontal = 1;
options = 4;
origin = (0,19);
target = (0,2);
type = TTShift;
},
{
horizontal = 1;
options = 4;
origin = (0,11);
target = (0,10);
type = TTStem;
},
{
horizontal = 1;
options = 4;
origin = (0,3);
target = (0,6);
type = TTStem;
},
{
horizontal = 1;
options = 4;
origin = (0,3);
target = (0,18);
type = TTShift;
},
{
horizontal = 1;
options = 4;
origin = (0,6);
target = (0,15);
type = TTShift;
},
{
horizontal = 1;
origin = (0,21);
other1 = (0,3);
target = (0,11);
type = TTInterpolate;
}
);
layerId = "95FB0C11-C828-4064-8966-34220AA4D426";
shapes = (
{
closed = 1;
nodes = (
(394,0,l),
(394,64,l),
(196,64,l),
(196,192,l),
(340,192,l),
(340,256,l),
(196,256,l),
(196,365,ls),
(196,466,o),
(210,492,o),
(366,516,c),
(357,581,l),
(158,557,o),
(124,488,o),
(124,369,cs),
(124,256,l),
(74,256,l),
(74,192,l),
(124,192,l),
(124,64,l),
(54,64,l),
(54,0,l)
);
}
);
width = 448;
},
{
layerId = "92967D72-867E-4A8B-929F-F44D834DD4C9";
shapes = (
{
closed = 1;
nodes = (
(404,0,l),
(404,80,l),
(226,80,l),
(226,184,l),
(350,184,l),
(350,264,l),
(226,264,l),
(226,365,ls),
(226,455,o),
(238,479,o),
(376,500,c),
(364,581,l),
(155,558,o),
(114,488,o),
(114,369,cs),
(114,264,l),
(64,264,l),
(64,184,l),
(114,184,l),
(114,80,l),
(44,80,l),
(44,0,l)
);
}
);
width = 448;
},
{
layerId = "7DDCEF54-C770-4FAD-B154-EE8058BAA7E5";
shapes = (
{
closed = 1;
nodes = (
(388,0,l),
(388,44,l),
(178,44,l),
(178,202,l),
(334,202,l),
(334,246,l),
(178,246,l),
(178,365,ls),
(178,479,o),
(197,514,o),
(359,538,c),
(353,581,l),
(160,556,o),
(130,488,o),
(130,369,cs),
(130,246,l),
(80,246,l),
(80,202,l),
(130,202,l),
(130,44,l),
(60,44,l),
(60,0,l)
);
}
);
width = 448;
}
);
unicode = 163;
}
{
glyphname = yen;
layers = (
{
background = {
hints = (
{
horizontal = 1;
place = (0,0);
type = TTSnap;
},
{
horizontal = 1;
options = 4;
place = (0,576);
target = (2,3);
type = TTShift;
},
{
horizontal = 1;
options = 4;
place = (0,256);
target = (1,4,3,3);
type = TTShift;
},
{
horizontal = 1;
options = 4;
place = (0,192);
target = (1,4,3,1);
type = TTShift;
},
{
horizontal = 1;
other1 = (3,1);
place = (0,576);
target = (0,4);
type = TTInterpolate;
},
{
horizontal = 1;
options = 4;
place = (0,256);
target = (3,2);
type = TTStem;
},
{
horizontal = 1;
place = (0,128);
stem = -1;
target = (4,2);
type = TTStem;
},
{
horizontal = 1;
options = 4;
place = (0,64);
target = (4,1);
type = TTStem;
},
{
horizontal = 1;
options = 4;
place = (0,128);
target = (1,4,4,3);
type = TTShift;
},
{
horizontal = 1;
options = 4;
place = (0,64);
target = (1,4,4,1);
type = TTShift;
}
);
shapes = (
{
closed = 1;
nodes = (
(260,262,l),
(329,340,o),
(384,441,o),
(402,576,c),
(330,576,l),
(312,446,o),
(269,368,o),
(195,266,c)
);
},
{
closed = 1;
nodes = (
(260,0,l),
(260,262,l),
(225,271,l),
(188,262,l),
(188,0,l)
);
},
{
closed = 1;
nodes = (
(256,266,l),
(180,368,o),
(137,446,o),
(118,576,c),
(46,576,l),
(64,441,o),
(119,340,o),
(188,262,c)
);
},
{
closed = 1;
nodes = (
(74,192,l),
(374,192,l),
(374,256,l),
(74,256,l)
);
},
{
closed = 1;
nodes = (
(74,64,l),
(374,64,l),
(374,128,l),
(74,128,l)
);
}
);
};
hints = (
{
horizontal = 1;
origin = (0,32);
type = TTSnap;
},
{
horizontal = 1;
options = 4;
origin = (0,13);
target = (0,19);
type = TTShift;
},
{
horizontal = 1;
options = 4;
origin = (0,7);
target = (0,24);
type = TTShift;
},
{
horizontal = 1;
options = 4;
origin = (0,6);
target = (0,27);
type = TTShift;
},
{
horizontal = 1;
origin = (0,32);
other1 = (0,6);
target = (0,13);
type = TTInterpolate;
},
{
horizontal = 1;
options = 4;
origin = (0,6);
target = (0,7);
type = TTStem;
},
{
horizontal = 1;
origin = (0,6);
stem = -1;
target = (0,3);
type = TTStem;
},
{
horizontal = 1;
options = 4;
origin = (0,3);
target = (0,2);
type = TTStem;
},
{
horizontal = 1;
options = 4;
origin = (0,3);
target = (0,28);
type = TTShift;
},
{
horizontal = 1;
options = 4;
origin = (0,2);
target = (0,31);
type = TTShift;
}
);
layerId = "95FB0C11-C828-4064-8966-34220AA4D426";
shapes = (
{
closed = 1;
nodes = (
(260,0,l),
(260,64,l),
(374,64,l),
(374,128,l),
(260,128,l),
(260,192,l),
(374,192,l),
(374,256,l),
(260,256,l),
(260,262,l),
(329,340,o),
(384,441,o),
(402,576,c),
(330,576,l),
(315,466,o),
(281,392,o),
(225,309,c),
(168,392,o),
(134,466,o),
(118,576,c),
(46,576,l),
(64,441,o),
(119,340,o),
(188,262,c),
(188,256,l),
(74,256,l),
(74,192,l),
(188,192,l),
(188,128,l),
(74,128,l),
(74,64,l),
(188,64,l),
(188,0,l)
);
}
);
width = 448;
},
{
background = {
shapes = (
{
closed = 1;
nodes = (
(280,262,l),
(344,340,o),
(395,441,o),
(412,576,c),
(300,576,l),
(284,446,o),
(247,368,o),
(183,266,c)
);
},
{
closed = 1;
nodes = (
(280,0,l),
(280,262,l),
(225,271,l),
(168,262,l),
(168,0,l)
);
},
{
closed = 1;
nodes = (
(269,266,l),
(202,368,o),
(165,446,o),
(148,576,c),
(36,576,l),
(53,441,o),
(104,340,o),
(168,262,c)
);
},
{
closed = 1;
nodes = (
(54,176,l),
(394,176,l),
(394,256,l),
(54,256,l)
);
},
{
closed = 1;
nodes = (
(54,56,l),
(394,56,l),
(394,136,l),
(54,136,l)
);
}
);
};
layerId = "92967D72-867E-4A8B-929F-F44D834DD4C9";
shapes = (
{
closed = 1;
nodes = (
(280,0,l),
(280,56,l),
(394,56,l),
(394,136,l),
(280,136,l),
(280,176,l),
(394,176,l),
(394,256,l),
(280,256,l),
(280,262,l),
(344,340,o),
(395,441,o),
(412,576,c),
(300,576,l),
(288,478,o),
(264,410,o),
(225,338,c),
(186,408,o),
(161,477,o),
(148,576,c),
(36,576,l),
(53,441,o),
(104,340,o),
(168,262,c),
(168,256,l),
(54,256,l),
(54,176,l),
(168,176,l),
(168,136,l),
(54,136,l),
(54,56,l),
(168,56,l),
(168,0,l)
);
}
);
width = 448;
},
{
background = {
shapes = (
{
closed = 1;
nodes = (
(248,262,l),
(320,340,o),
(377,441,o),
(396,576,c),
(348,576,l),
(330,446,o),
(288,368,o),
(206,266,c)
);
},
{
closed = 1;
nodes = (
(248,0,l),
(248,262,l),
(225,271,l),
(200,262,l),
(200,0,l)
);
},
{
closed = 1;
nodes = (
(245,266,l),
(163,368,o),
(119,446,o),
(100,576,c),
(52,576,l),
(71,441,o),
(128,340,o),
(200,262,c)
);
},
{
closed = 1;
nodes = (
(86,200,l),
(362,200,l),
(362,244,l),
(86,244,l)
);
},
{
closed = 1;
nodes = (
(86,76,l),
(362,76,l),
(362,120,l),
(86,120,l)
);
}
);
};
layerId = "7DDCEF54-C770-4FAD-B154-EE8058BAA7E5";
shapes = (
{
closed = 1;
nodes = (
(248,0,l),
(248,76,l),
(362,76,l),
(362,120,l),
(248,120,l),
(248,200,l),
(362,200,l),
(362,244,l),
(248,244,l),
(248,262,l),
(320,340,o),
(377,441,o),
(396,576,c),
(348,576,l),
(332,458,o),
(294,381,o),
(225,291,c),
(155,382,o),
(117,458,o),
(100,576,c),
(52,576,l),
(71,441,o),
(128,340,o),
(200,262,c),
(200,244,l),
(86,244,l),
(86,200,l),
(200,200,l),
(200,120,l),
(86,120,l),
(86,76,l),
(200,76,l),
(200,0,l)
);
}
);
width = 448;
}
);
unicode = 165;
}
{
glyphname = brokenbar;
layers = (
{
hints = (
{
horizontal = 1;
origin = (0,1);
type = TTSnap;
},
{
horizontal = 1;
origin = (1,2);
type = TTSnap;
},
{
horizontal = 1;
options = 4;
origin = (1,1);
target = (0,2);
type = TTStem;
}
);
layerId = "95FB0C11-C828-4064-8966-34220AA4D426";
shapes = (
{
closed = 1;
nodes = (
(260,704,l),
(188,704,l),
(188,384,l),
(260,384,l)
);
},
{
closed = 1;
nodes = (
(260,256,l),
(188,256,l),
(188,-64,l),
(260,-64,l)
);
}
);
width = 448;
},
{
layerId = "92967D72-867E-4A8B-929F-F44D834DD4C9";
shapes = (
{
closed = 1;
nodes = (
(280,704,l),
(168,704,l),
(168,384,l),
(280,384,l)
);
},
{
closed = 1;
nodes = (
(280,256,l),
(168,256,l),
(168,-64,l),
(280,-64,l)
);
}
);
width = 448;
},
{
layerId = "7DDCEF54-C770-4FAD-B154-EE8058BAA7E5";
shapes = (
{
closed = 1;
nodes = (
(248,704,l),
(200,704,l),
(200,384,l),
(248,384,l)
);
},
{
closed = 1;
nodes = (
(248,256,l),
(200,256,l),
(200,-64,l),
(248,-64,l)
);
}
);
width = 448;
}
);
unicode = 166;
}
{
glyphname = copyright;
layers = (
{
hints = (
{
horizontal = 1;
origin = (0,11);
type = TTSnap;
},
{
horizontal = 1;
options = 4;
origin = (0,11);
target = (2,11);
type = TTStem;
},
{
horizontal = 1;
origin = (0,5);
type = TTSnap;
},
{
horizontal = 1;
options = 4;
origin = (0,5);
target = (2,5);
type = TTStem;
},
{
horizontal = 1;
origin = (0,11);
other1 = (1,19);
target = (0,5);
type = TTInterpolate;
},
{
horizontal = 1;
origin = (0,11);
other1 = (1,25);
target = (0,5);
type = TTInterpolate;
},
{
horizontal = 1;
options = 4;
origin = (1,25);
target = (1,6);
type = TTStem;
},
{
horizontal = 1;
options = 4;
origin = (1,19);
target = (1,12);
type = TTStem;
},
{
horizontal = 1;
origin = (1,19);
settings = {
deltaV = {
"{200, 0, -188, 0, 0, 0}" = {
"14" = -8;
"15" = -8;
};
"{200, 1, -188, 0, 0, 0}" = {
"14" = -8;
"15" = -8;
};
"{317, 0, -188, 0, 0, 0}" = {
"14" = -8;
"15" = -8;
};
"{317, 1, -188, 0, 0, 0}" = {
"14" = -8;
"15" = -8;
};
"{400, 0, -188, 0, 0, 0}" = {
"14" = -8;
"15" = -8;
};
"{400, 1, -188, 0, 0, 0}" = {
"14" = -8;
"15" = -8;
};
};
};
type = TTDelta;
}
);
layerId = "95FB0C11-C828-4064-8966-34220AA4D426";
shapes = (
{
closed = 1;
nodes = (
(332,11,o),
(440,93,o),
(440,256,cs),
(440,421,o),
(332,501,o),
(224,501,cs),
(116,501,o),
(8,421,o),
(8,256,cs),
(8,93,o),
(116,11,o),
(224,11,cs)
);
},
{
closed = 1;
nodes = (
(257,120,o),
(282,124,o),
(314,136,c),
(301,177,l),
(278,170,o),
(258,166,o),
(237,166,cs),
(188,166,o),
(168,191,o),
(168,259,cs),
(168,327,o),
(188,351,o),
(237,351,cs),
(258,351,o),
(279,347,o),
(298,339,c),
(314,381,l),
(288,392,o),
(257,397,o),
(234,397,cs),
(145,397,o),
(112,335,o),
(112,258,cs),
(112,181,o),
(145,120,o),
(234,120,cs)
);
},
{
closed = 1;
nodes = (
(127,59,o),
(60,127,o),
(60,256,cs),
(60,385,o),
(127,453,o),
(224,453,cs),
(321,453,o),
(388,385,o),
(388,256,cs),
(388,127,o),
(321,59,o),
(224,59,cs)
);
}
);
width = 448;
},
{
layerId = "92967D72-867E-4A8B-929F-F44D834DD4C9";
shapes = (
{
closed = 1;
nodes = (
(336,3,o),
(448,88,o),
(448,256,cs),
(448,426,o),
(336,509,o),
(224,509,cs),
(112,509,o),
(0,426,o),
(0,256,cs),
(0,88,o),
(112,3,o),
(224,3,cs)
);
},
{
closed = 1;
nodes = (
(256,120,o),
(286,124,o),
(324,136,c),
(313,194,l),
(289,189,o),
(269,186,o),
(247,186,cs),
(209,186,o),
(194,202,o),
(194,259,cs),
(194,316,o),
(209,332,o),
(247,332,cs),
(269,332,o),
(291,329,o),
(310,324,c),
(324,381,l),
(293,392,o),
(256,397,o),
(229,397,cs),
(133,397,o),
(98,335,o),
(98,258,cs),
(98,181,o),
(133,120,o),
(229,120,cs)
);
},
{
closed = 1;
nodes = (
(126,67,o),
(70,143,o),
(70,256,cs),
(70,369,o),
(126,445,o),
(224,445,cs),
(322,445,o),
(378,369,o),
(378,256,cs),
(378,143,o),
(322,67,o),
(224,67,cs)
);
}
);
width = 448;
},
{
layerId = "7DDCEF54-C770-4FAD-B154-EE8058BAA7E5";
shapes = (
{
closed = 1;
nodes = (
(330,15,o),
(435,96,o),
(435,256,cs),
(435,418,o),
(330,497,o),
(224,497,cs),
(118,497,o),
(13,418,o),
(13,256,cs),
(13,96,o),
(118,15,o),
(224,15,cs)
);
},
{
closed = 1;
nodes = (
(259,120,o),
(284,125,o),
(307,133,c),
(298,166,l),
(277,160,o),
(255,156,o),
(238,156,cs),
(185,156,o),
(159,186,o),
(159,258,cs),
(159,330,o),
(184,361,o),
(237,361,cs),
(255,361,o),
(274,358,o),
(297,351,c),
(307,384,l),
(287,392,o),
(258,397,o),
(235,397,cs),
(160,397,o),
(116,350,o),
(116,258,cs),
(116,162,o),
(161,120,o),
(235,120,cs)
);
},
{
closed = 1;
nodes = (
(125,55,o),
(55,122,o),
(55,256,cs),
(55,390,o),
(125,457,o),
(224,457,cs),
(323,457,o),
(393,390,o),
(393,256,cs),
(393,122,o),
(323,55,o),
(224,55,cs)
);
}
);
width = 448;
}
);
unicode = 169;
}
{
glyphname = logicalnot;
layers = (
{
hints = (
{
horizontal = 1;
origin = (0,3);
type = TTSnap;
},
{
horizontal = 1;
options = 4;
origin = (0,3);
target = (0,0);
type = TTStem;
},
{
horizontal = 1;
origin = (0,3);
stem = -1;
target = (0,4);
type = TTStem;
}
);
layerId = "95FB0C11-C828-4064-8966-34220AA4D426";
shapes = (
{
closed = 1;
nodes = (
(386,354,l),
(64,354,l),
(64,290,l),
(318,290,l),
(318,162,l),
(386,162,l)
);
}
);
width = 448;
},
{
layerId = "92967D72-867E-4A8B-929F-F44D834DD4C9";
shapes = (
{
closed = 1;
nodes = (
(396,362,l),
(54,362,l),
(54,282,l),
(288,282,l),
(288,154,l),
(396,154,l)
);
}
);
width = 448;
},
{
layerId = "7DDCEF54-C770-4FAD-B154-EE8058BAA7E5";
shapes = (
{
closed = 1;
nodes = (
(380,349,l),
(70,349,l),
(70,305,l),
(332,305,l),
(332,167,l),
(380,167,l)
);
}
);
width = 448;
}
);
unicode = 172;
}
{
glyphname = degree;
layers = (
{
hints = (
{
horizontal = 1;
options = 4;
origin = (0,9);
target = (1,3);
type = TTStem;
},
{
horizontal = 1;
origin = (0,3);
type = TTSnap;
},
{
horizontal = 1;
options = 4;
origin = (0,3);
target = (1,9);
type = TTStem;
}
);
layerId = "95FB0C11-C828-4064-8966-34220AA4D426";
shapes = (
{
closed = 1;
nodes = (
(55,512,cs),
(55,439,o),
(111,377,o),
(192,377,cs),
(273,377,o),
(329,439,o),
(329,512,cs),
(329,585,o),
(273,647,o),
(192,647,cs),
(111,647,o),
(55,585,o)
);
},
{
closed = 1;
nodes = (
(118,512,cs),
(118,555,o),
(143,591,o),
(192,591,cs),
(241,591,o),
(266,555,o),
(266,512,cs),
(266,469,o),
(241,433,o),
(192,433,cs),
(143,433,o),
(118,469,o)
);
}
);
width = 448;
},
{
layerId = "92967D72-867E-4A8B-929F-F44D834DD4C9";
shapes = (
{
closed = 1;
nodes = (
(45,512,cs),
(45,435,o),
(102,377,o),
(192,377,cs),
(282,377,o),
(339,435,o),
(339,512,cs),
(339,589,o),
(282,647,o),
(192,647,cs),
(102,647,o),
(45,589,o)
);
},
{
closed = 1;
nodes = (
(138,512,cs),
(138,549,o),
(157,575,o),
(192,575,cs),
(227,575,o),
(246,549,o),
(246,512,cs),
(246,475,o),
(227,449,o),
(192,449,cs),
(157,449,o),
(138,475,o)
);
}
);
width = 448;
},
{
layerId = "7DDCEF54-C770-4FAD-B154-EE8058BAA7E5";
shapes = (
{
closed = 1;
nodes = (
(60,512,cs),
(60,441,o),
(115,377,o),
(192,377,cs),
(269,377,o),
(324,441,o),
(324,512,cs),
(324,583,o),
(269,647,o),
(192,647,cs),
(115,647,o),
(60,583,o)
);
},
{
closed = 1;
nodes = (
(108,512,cs),
(108,560,o),
(136,603,o),
(192,603,cs),
(248,603,o),
(276,560,o),
(276,512,cs),
(276,464,o),
(248,421,o),
(192,421,cs),
(136,421,o),
(108,464,o)
);
}
);
width = 448;
}
);
unicode = 176;
}
{
glyphname = acute;
layers = (
{
hints = (
{
horizontal = 1;
origin = (0,1);
type = TTSnap;
},
{
horizontal = 1;
origin = (0,3);
type = TTSnap;
}
);
layerId = "95FB0C11-C828-4064-8966-34220AA4D426";
shapes = (
{
closed = 1;
nodes = (
(313,640,l),
(214,640,l),
(149,384,l),
(221,384,l)
);
}
);
width = 448;
},
{
layerId = "92967D72-867E-4A8B-929F-F44D834DD4C9";
shapes = (
{
closed = 1;
nodes = (
(332,640,l),
(195,640,l),
(129,384,l),
(241,384,l)
);
}
);
width = 448;
},
{
layerId = "7DDCEF54-C770-4FAD-B154-EE8058BAA7E5";
shapes = (
{
closed = 1;
nodes = (
(303,640,l),
(224,640,l),
(159,384,l),
(211,384,l)
);
}
);
width = 448;
}
);
unicode = 180;
}
{
glyphname = micro;
layers = (
{
background = {
hints = (
{
horizontal = 1;
place = (0,0);
type = TTSnap;
},
{
horizontal = 1;
place = (0,0);
type = TTSnap;
},
{
horizontal = 1;
options = 4;
place = (0,60);
target = (1,6);
type = TTStem;
},
{
horizontal = 1;
options = 4;
place = (0,448);
target = (2,3);
type = TTShift;
}
);
shapes = (
{
closed = 1;
nodes = (
(132,-192,l),
(132,448,l),
(60,448,l),
(60,-192,l)
);
},
{
closed = 1;
nodes = (
(257,-4,o),
(333,49,o),
(367,103,c),
(331,134,l),
(296,94,o),
(249,60,o),
(201,60,cs),
(148,60,o),
(132,90,o),
(132,159,c),
(99,159,l),
(99,49,o),
(121,-4,o),
(197,-4,cs)
);
},
{
closed = 1;
nodes = (
(390,0,l),
(388,65,l),
(388,448,l),
(316,448,l),
(316,64,l),
(324,0,l)
);
}
);
};
hints = (
{
horizontal = 1;
origin = (0,0);
type = TTSnap;
},
{
horizontal = 1;
origin = (0,8);
stem = -1;
type = TTSnap;
},
{
horizontal = 1;
options = 4;
origin = (0,4);
target = (0,16);
type = TTStem;
},
{
horizontal = 1;
options = 4;
origin = (0,20);
target = (0,12);
type = TTShift;
},
{
horizontal = 1;
origin = (0,4);
stem = -1;
type = TTSnap;
}
);
layerId = "95FB0C11-C828-4064-8966-34220AA4D426";
shapes = (
{
closed = 1;
nodes = (
(132,-192,l),
(132,19,l),
(147,4,o),
(168,-4,o),
(197,-4,cs),
(236,-4,o),
(282,19,o),
(318,49,c),
(324,0,l),
(390,0,l),
(388,65,l),
(388,448,l),
(316,448,l),
(316,118,l),
(284,86,o),
(242,60,o),
(201,60,cs),
(148,60,o),
(132,90,o),
(132,159,cs),
(132,448,l),
(60,448,l),
(60,-192,l)
);
}
);
width = 448;
},
{
background = {
shapes = (
{
closed = 1;
nodes = (
(162,-192,l),
(162,448,l),
(50,448,l),
(50,-192,l)
);
},
{
closed = 1;
nodes = (
(265,-4,o),
(323,38,o),
(367,103,c),
(323,141,l),
(287,97,o),
(246,76,o),
(213,76,cs),
(181,76,o),
(162,90,o),
(162,147,c),
(112,147,l),
(112,45,o),
(133,-4,o),
(207,-4,cs)
);
},
{
closed = 1;
nodes = (
(400,0,l),
(398,65,l),
(398,448,l),
(286,448,l),
(286,92,l),
(302,0,l)
);
}
);
};
layerId = "92967D72-867E-4A8B-929F-F44D834DD4C9";
shapes = (
{
closed = 1;
nodes = (
(162,-192,l),
(162,5,l),
(175,-1,o),
(189,-4,o),
(207,-4,cs),
(238,-4,o),
(268,7,o),
(297,28,c),
(302,0,l),
(400,0,l),
(398,65,l),
(398,448,l),
(286,448,l),
(286,105,l),
(261,86,o),
(235,76,o),
(213,76,cs),
(181,76,o),
(162,90,o),
(162,147,cs),
(162,448,l),
(50,448,l),
(50,-192,l)
);
}
);
width = 448;
},
{
background = {
shapes = (
{
closed = 1;
nodes = (
(114,-192,l),
(114,448,l),
(66,448,l),
(66,-192,l)
);
},
{
closed = 1;
nodes = (
(260,-4,o),
(328,54,o),
(365,103,c),
(345,120,l),
(298,75,o),
(251,40,o),
(196,40,cs),
(137,40,o),
(114,69,o),
(114,143,c),
(81,143,l),
(81,44,o),
(120,-4,o),
(193,-4,cs)
);
},
{
closed = 1;
nodes = (
(384,0,l),
(382,78,l),
(382,448,l),
(334,448,l),
(334,88,l),
(340,0,l)
);
}
);
};
layerId = "7DDCEF54-C770-4FAD-B154-EE8058BAA7E5";
shapes = (
{
closed = 1;
nodes = (
(114,-192,l),
(114,27,l),
(132,7,o),
(159,-4,o),
(193,-4,cs),
(245,-4,o),
(297,31,o),
(335,69,c),
(340,0,l),
(384,0,l),
(382,78,l),
(382,448,l),
(334,448,l),
(334,110,l),
(291,70,o),
(247,40,o),
(196,40,cs),
(137,40,o),
(114,69,o),
(114,143,cs),
(114,448,l),
(66,448,l),
(66,-192,l)
);
}
);
width = 448;
},
{
associatedMasterId = "95FB0C11-C828-4064-8966-34220AA4D426";
attr = {
coordinates = (
400,
-64,
0
);
};
background = {
shapes = (
{
closed = 1;
nodes = (
(132,-64,l),
(132,448,l),
(60,448,l),
(60,-64,l)
);
},
{
closed = 1;
nodes = (
(257,92,o),
(333,145,o),
(367,199,c),
(331,230,l),
(296,190,o),
(249,156,o),
(201,156,cs),
(148,156,o),
(132,186,o),
(132,255,c),
(99,255,l),
(99,145,o),
(121,92,o),
(197,92,cs)
);
},
{
closed = 1;
nodes = (
(390,96,l),
(388,161,l),
(388,448,l),
(316,448,l),
(316,160,l),
(324,96,l)
);
}
);
};
layerId = "17BCC9BE-7EF8-4AC8-B936-156ADEE057C7";
name = "{400, 0, -64}";
shapes = (
{
closed = 1;
nodes = (
(132,-64,l),
(132,115,l),
(147,100,o),
(168,92,o),
(197,92,cs),
(236,92,o),
(282,115,o),
(318,145,c),
(324,96,l),
(390,96,l),
(388,161,l),
(388,448,l),
(316,448,l),
(316,214,l),
(284,182,o),
(242,156,o),
(201,156,cs),
(148,156,o),
(132,186,o),
(132,255,cs),
(132,448,l),
(60,448,l),
(60,-64,l)
);
}
);
width = 448;
},
{
associatedMasterId = "92967D72-867E-4A8B-929F-F44D834DD4C9";
attr = {
coordinates = (
700,
-64,
0
);
};
background = {
shapes = (
{
closed = 1;
nodes = (
(162,-192,l),
(162,448,l),
(50,448,l),
(50,-192,l)
);
},
{
closed = 1;
nodes = (
(265,-4,o),
(323,38,o),
(367,103,c),
(323,141,l),
(287,97,o),
(246,76,o),
(213,76,cs),
(181,76,o),
(162,90,o),
(162,147,c),
(112,147,l),
(112,45,o),
(133,-4,o),
(207,-4,cs)
);
},
{
closed = 1;
nodes = (
(400,0,l),
(398,65,l),
(398,448,l),
(286,448,l),
(286,92,l),
(302,0,l)
);
}
);
};
layerId = "97DEBFE5-0783-4EAB-A2AA-330304B4C0EF";
name = "5. Mar 25 at 21:03";
shapes = (
{
closed = 1;
nodes = (
(162,-64,l),
(162,101,l),
(175,95,o),
(189,92,o),
(207,92,cs),
(238,92,o),
(268,103,o),
(297,124,c),
(302,96,l),
(400,96,l),
(398,161,l),
(398,448,l),
(286,448,l),
(286,201,l),
(261,182,o),
(235,172,o),
(213,172,cs),
(181,172,o),
(162,186,o),
(162,243,cs),
(162,448,l),
(50,448,l),
(50,-64,l)
);
}
);
width = 448;
},
{
associatedMasterId = "7DDCEF54-C770-4FAD-B154-EE8058BAA7E5";
attr = {
coordinates = (
200,
-64,
0
);
};
background = {
shapes = (
{
closed = 1;
nodes = (
(114,-192,l),
(114,448,l),
(66,448,l),
(66,-192,l)
);
},
{
closed = 1;
nodes = (
(260,-4,o),
(328,54,o),
(365,103,c),
(345,120,l),
(298,75,o),
(251,40,o),
(196,40,cs),
(137,40,o),
(114,69,o),
(114,143,c),
(81,143,l),
(81,44,o),
(120,-4,o),
(193,-4,cs)
);
},
{
closed = 1;
nodes = (
(384,0,l),
(382,78,l),
(382,448,l),
(334,448,l),
(334,88,l),
(340,0,l)
);
}
);
};
layerId = "11B8FECE-6137-4433-B775-4D081FFAA1D1";
name = "5. Mar 25 at 21:03";
shapes = (
{
closed = 1;
nodes = (
(114,-64,l),
(114,123,l),
(132,103,o),
(159,92,o),
(193,92,cs),
(245,92,o),
(297,127,o),
(335,165,c),
(340,96,l),
(384,96,l),
(382,174,l),
(382,448,l),
(334,448,l),
(334,206,l),
(291,166,o),
(247,136,o),
(196,136,cs),
(137,136,o),
(114,165,o),
(114,239,cs),
(114,448,l),
(66,448,l),
(66,-64,l)
);
}
);
width = 448;
}
);
unicode = 181;
}
{
color = 8;
glyphname = AE;
kernLeft = A;
kernRight = E;
layers = (
{
anchors = (
{
name = bottom;
pos = (328,0);
},
{
name = top;
pos = (376,640);
}
);
background = {
anchors = (
{
name = bottom;
pos = (328,0);
},
{
name = top;
pos = (376,640);
}
);
hints = (
{
horizontal = 1;
options = 4;
origin = (0,7);
target = (0,15);
type = TTStem;
},
{
horizontal = 1;
options = 4;
origin = (0,15);
target = (0,4);
type = TTShift;
},
{
horizontal = 1;
options = 4;
origin = (0,16);
target = (0,19);
type = TTStem;
},
{
horizontal = 1;
origin = (0,14,1,1);
type = TTSnap;
},
{
horizontal = 1;
options = 4;
origin = (0,14,1,1);
target = (0,14,1,3);
type = TTStem;
},
{
horizontal = 1;
origin = (0,0);
type = TTSnap;
},
{
horizontal = 1;
options = 4;
origin = (0,0);
target = (0,3);
type = TTStem;
},
{
horizontal = 1;
options = 4;
origin = (0,16);
target = (0,11);
type = TTShift;
},
{
options = 8;
origin = (0,10);
type = TTSnap;
},
{
options = 4;
origin = (0,10);
target = (0,11);
type = TTStem;
},
{
options = 8;
origin = (0,17);
type = TTSnap;
},
{
origin = (0,16);
type = TTSnap;
},
{
options = 4;
origin = (0,16);
target = (0,19);
type = TTStem;
},
{
options = 4;
origin = (0,19);
target = (0,3);
type = TTShift;
},
{
options = 4;
origin = (0,17);
target = (0,6);
type = TTShift;
}
);
shapes = (
{
closed = 1;
nodes = (
(374,256,l),
(552,256,l),
(552,320,l),
(374,320,l),
(374,576,l),
(606,576,l),
(606,640,l),
(189,640,l),
(108,475,o),
(55,243,o),
(35,0,c),
(109,0,l),
(130,238,o),
(174,439,o),
(234,576,c),
(302,576,l),
(302,0,l),
(616,0,l),
(616,64,l),
(374,64,l)
);
},
{
closed = 1;
nodes = (
(96,192,l),
(337,192,l),
(337,256,l),
(96,256,l)
);
}
);
};
hints = (
{
horizontal = 1;
options = 4;
origin = (0,7);
target = (1,3);
type = TTStem;
},
{
horizontal = 1;
options = 4;
origin = (1,3);
target = (0,4);
type = TTShift;
},
{
horizontal = 1;
options = 4;
origin = (0,16);
target = (0,19);
type = TTStem;
},
{
horizontal = 1;
origin = (0,14);
type = TTSnap;
},
{
horizontal = 1;
options = 4;
origin = (0,14);
target = (1,5);
type = TTStem;
},
{
horizontal = 1;
origin = (0,0);
type = TTSnap;
},
{
horizontal = 1;
options = 4;
origin = (0,0);
target = (0,3);
type = TTStem;
},
{
horizontal = 1;
options = 4;
origin = (0,16);
target = (0,11);
type = TTShift;
},
{
options = 8;
origin = (0,10);
type = TTSnap;
},
{
options = 4;
origin = (0,10);
target = (0,11);
type = TTStem;
},
{
options = 8;
origin = (0,17);
type = TTSnap;
},
{
origin = (0,16);
type = TTSnap;
},
{
options = 4;
origin = (0,16);
target = (0,19);
type = TTStem;
},
{
options = 4;
origin = (0,19);
target = (0,3);
type = TTShift;
},
{
options = 4;
origin = (0,17);
target = (0,6);
type = TTShift;
}
);
layerId = "95FB0C11-C828-4064-8966-34220AA4D426";
shapes = (
{
closed = 1;
nodes = (
(374,256,l),
(552,256,l),
(552,320,l),
(374,320,l),
(374,576,l),
(606,576,l),
(606,640,l),
(189,640,l),
(108,475,o),
(55,243,o),
(35,0,c),
(109,0,l),
(115,68,o),
(123,132,o),
(132,192,c),
(302,192,l),
(302,0,l),
(616,0,l),
(616,64,l),
(374,64,l)
);
},
{
closed = 1;
nodes = (
(166,382,o),
(197,492,o),
(234,576,c),
(302,576,l),
(302,256,l),
(143,256,l)
);
}
);
width = 656;
},
{
anchors = (
{
name = bottom;
pos = (328,0);
},
{
name = top;
pos = (376,640);
}
);
background = {
anchors = (
{
name = bottom;
pos = (328,0);
},
{
name = top;
pos = (376,640);
}
);
shapes = (
{
closed = 1;
nodes = (
(403,248,l),
(573,248,l),
(573,327,l),
(403,327,l),
(403,560,l),
(622,560,l),
(622,640,l),
(153,640,l),
(86,473,o),
(42,243,o),
(25,0,c),
(139,0,l),
(155,234,o),
(189,427,o),
(224,560,c),
(291,560,l),
(291,0,l),
(632,0,l),
(632,80,l),
(403,80,l)
);
},
{
closed = 1;
nodes = (
(96,160,l),
(338,160,l),
(338,240,l),
(96,240,l)
);
}
);
};
layerId = "92967D72-867E-4A8B-929F-F44D834DD4C9";
shapes = (
{
closed = 1;
nodes = (
(403,248,l),
(573,248,l),
(573,327,l),
(403,327,l),
(403,560,l),
(622,560,l),
(622,640,l),
(153,640,l),
(86,473,o),
(42,243,o),
(25,0,c),
(139,0,l),
(143,57,o),
(148,110,o),
(153,160,c),
(291,160,l),
(291,0,l),
(632,0,l),
(632,80,l),
(403,80,l)
);
},
{
closed = 1;
nodes = (
(180,367,o),
(202,476,o),
(224,560,c),
(291,560,l),
(291,240,l),
(163,240,l)
);
}
);
width = 656;
},
{
anchors = (
{
name = bottom;
pos = (328,0);
},
{
name = top;
pos = (376,640);
}
);
background = {
anchors = (
{
name = bottom;
pos = (328,0);
},
{
name = top;
pos = (376,640);
}
);
shapes = (
{
closed = 1;
nodes = (
(358,266,l),
(544,266,l),
(544,310,l),
(358,310,l),
(358,596,l),
(598,596,l),
(598,640,l),
(202,640,l),
(119,476,o),
(63,243,o),
(41,0,c),
(92,0,l),
(115,243,o),
(165,448,o),
(232,596,c),
(310,596,l),
(310,0,l),
(608,0,l),
(608,44,l),
(358,44,l)
);
},
{
closed = 1;
nodes = (
(96,202,l),
(338,202,l),
(338,246,l),
(96,246,l)
);
}
);
};
layerId = "7DDCEF54-C770-4FAD-B154-EE8058BAA7E5";
shapes = (
{
closed = 1;
nodes = (
(358,266,l),
(544,266,l),
(544,310,l),
(358,310,l),
(358,596,l),
(598,596,l),
(598,640,l),
(202,640,l),
(119,476,o),
(63,243,o),
(41,0,c),
(92,0,l),
(99,72,o),
(108,138,o),
(119,202,c),
(310,202,l),
(310,0,l),
(608,0,l),
(608,44,l),
(358,44,l)
);
},
{
closed = 1;
nodes = (
(153,382,o),
(189,501,o),
(232,596,c),
(310,596,l),
(310,246,l),
(127,246,l)
);
}
);
width = 656;
}
);
metricRight = E.ss20;
unicode = 198;
}
{
glyphname = multiply;
layers = (
{
background = {
hints = (
{
horizontal = 1;
options = 4;
place = (0,471);
target = (1,1);
type = TTShift;
},
{
horizontal = 1;
options = 4;
place = (0,102);
target = (0,0);
type = TTShift;
},
{
horizontal = 1;
place = (0,0);
type = TTSnap;
},
{
horizontal = 1;
place = (0,0);
type = TTSnap;
}
);
shapes = (
{
closed = 1;
nodes = (
(363,102,l),
(410,149,l),
(88,471,l),
(41,424,l)
);
},
{
closed = 1;
nodes = (
(407,424,l),
(360,471,l),
(38,149,l),
(85,102,l)
);
}
);
};
hints = (
{
horizontal = 1;
options = 4;
origin = (0,10);
target = (0,8);
type = TTShift;
},
{
horizontal = 1;
options = 4;
origin = (0,2);
target = (0,4);
type = TTShift;
},
{
horizontal = 1;
origin = (0,10);
type = TTSnap;
},
{
horizontal = 1;
origin = (0,2);
type = TTSnap;
}
);
layerId = "95FB0C11-C828-4064-8966-34220AA4D426";
shapes = (
{
closed = 1;
nodes = (
(177,288,l),
(38,149,l),
(85,102,l),
(224,241,l),
(363,102,l),
(410,149,l),
(271,288,l),
(407,424,l),
(360,471,l),
(224,335,l),
(88,471,l),
(41,424,l)
);
}
);
width = 448;
},
{
background = {
shapes = (
{
closed = 1;
nodes = (
(347,92,l),
(420,165,l),
(104,481,l),
(31,408,l)
);
},
{
closed = 1;
nodes = (
(417,408,l),
(344,481,l),
(28,165,l),
(101,92,l)
);
}
);
};
layerId = "92967D72-867E-4A8B-929F-F44D834DD4C9";
shapes = (
{
closed = 1;
nodes = (
(151,288,l),
(28,165,l),
(101,92,l),
(224,215,l),
(347,92,l),
(420,165,l),
(297,288,l),
(417,408,l),
(344,481,l),
(224,361,l),
(104,481,l),
(31,408,l)
);
}
);
width = 448;
},
{
background = {
shapes = (
{
closed = 1;
nodes = (
(380,103,l),
(409,132,l),
(71,470,l),
(42,441,l)
);
},
{
closed = 1;
nodes = (
(406,441,l),
(377,470,l),
(39,132,l),
(68,103,l)
);
}
);
};
layerId = "7DDCEF54-C770-4FAD-B154-EE8058BAA7E5";
shapes = (
{
closed = 1;
nodes = (
(195,288,l),
(39,132,l),
(68,103,l),
(224,259,l),
(380,103,l),
(409,132,l),
(253,288,l),
(406,441,l),
(377,470,l),
(224,317,l),
(71,470,l),
(42,441,l)
);
}
);
width = 448;
}
);
unicode = 215;
}
{
color = 8;
glyphname = ae;
kernLeft = a;
kernRight = e;
layers = (
{
anchors = (
{
name = bottom;
pos = (352,0);
},
{
name = top;
pos = (352,448);
}
);
background = {
anchors = (
{
name = bottom;
pos = (352,0);
},
{
name = top;
pos = (352,448);
}
);
hints = (
{
horizontal = 1;
options = 4;
place = (0,390);
target = (0,57);
type = TTStem;
},
{
horizontal = 1;
options = 4;
place = (0,395);
target = (0,12);
type = TTStem;
},
{
horizontal = 1;
options = 4;
place = (0,53);
target = (0,6);
type = TTStem;
},
{
horizontal = 1;
options = 4;
place = (0,56);
target = (0,31);
type = TTStem;
},
{
horizontal = 1;
other1 = (0,9,0,39);
place = (0,-11);
target = (0,65);
type = TTInterpolate;
},
{
horizontal = 1;
options = 4;
place = (0,263);
target = (0,12,0,17);
type = TTStem;
},
{
horizontal = 1;
options = 4;
place = (0,202);
target = (0,37,0,65);
type = TTShift;
},
{
horizontal = 1;
options = 4;
place = (0,264);
target = (0,21,0,61);
type = TTShift;
},
{
options = 8;
place = (0,0);
type = TTSnap;
},
{
options = 4;
place = (0,130);
target = (0,34);
type = TTStem;
},
{
options = 8;
place = (0,0);
type = TTSnap;
},
{
options = 4;
place = (0,572);
target = (0,15,0,17);
type = TTStem;
},
{
place = (0,630);
target = (0,2);
type = TTShift;
},
{
options = 8;
place = (0,0);
type = TTSnap;
},
{
options = 4;
place = (0,385);
target = (0,9,0,39);
type = TTStem;
},
{
options = 4;
place = (0,312);
target = (0,60);
type = TTShift;
},
{
options = 4;
place = (0,386);
target = (0,12,0,17);
type = TTShift;
},
{
options = 4;
other1 = (0,45,0,50);
place = (0,385);
target = (0,9,0,39);
type = TTInterpolate;
},
{
place = (0,77);
target = (0,53);
type = TTShift;
},
{
options = 4;
other1 = (0,27,0,65);
place = (0,630);
target = (0,2);
type = TTInterpolate;
},
{
options = 4;
other1 = (0,31,0,65);
place = (0,630);
target = (0,2);
type = TTInterpolate;
}
);
shapes = (
{
closed = 1;
nodes = (
(540,-11,o),
(585,-2,o),
(630,18,c),
(616,76,l),
(578,63,o),
(541,53,o),
(501,53,cs),
(414,53,o),
(385,96,o),
(385,224,cs),
(385,350,o),
(413,395,o),
(479,395,cs),
(546,395,o),
(577,342,o),
(571,224,c),
(611,263,l),
(351,263,l),
(345,264,l),
(133,264,o),
(54,212,o),
(54,115,cs),
(54,33,o),
(113,-8,o),
(187,-8,cs),
(258,-8,o),
(316,25,o),
(365,56,c),
(333,107,l),
(288,78,o),
(240,56,o),
(195,56,cs),
(149,56,o),
(130,82,o),
(130,119,cs),
(130,174,o),
(182,202,o),
(345,202,c),
(351,201,l),
(646,201,l),
(658,359,o),
(600,459,o),
(484,459,cs),
(362,459,o),
(319,354,o),
(319,224,c),
(374,224,l),
(374,299,ls),
(374,410,o),
(317,455,o),
(220,455,cs),
(165,455,o),
(116,439,o),
(77,421,c),
(98,363,l),
(135,377,o),
(179,390,o),
(220,390,cs),
(287,390,o),
(312,365,o),
(312,285,cs),
(312,249,l),
(310,224,l),
(310,94,o),
(353,-11,o),
(497,-11,cs)
);
}
);
};
hints = (
{
horizontal = 1;
options = 4;
origin = (0,19);
target = (0,26);
type = TTStem;
},
{
horizontal = 1;
options = 4;
origin = (0,13);
target = (2,2);
type = TTStem;
},
{
horizontal = 1;
options = 4;
origin = (0,42);
target = (0,6);
type = TTStem;
},
{
horizontal = 1;
options = 4;
origin = (0,36);
target = (1,8);
type = TTStem;
},
{
horizontal = 1;
origin = (0,13);
other1 = (0,9);
target = (0,42);
type = TTInterpolate;
},
{
horizontal = 1;
options = 4;
origin = (0,9);
target = (2,6);
type = TTStem;
},
{
horizontal = 1;
options = 4;
origin = (0,9);
target = (1,2);
type = TTShift;
},
{
horizontal = 1;
options = 4;
origin = (2,6);
target = (0,30);
type = TTShift;
},
{
options = 8;
origin = (0,33);
type = TTSnap;
},
{
options = 4;
origin = (0,33);
target = (1,11);
type = TTStem;
},
{
options = 8;
origin = (0,10);
type = TTSnap;
},
{
options = 4;
origin = (0,10);
target = (2,5);
type = TTStem;
},
{
origin = (0,10);
target = (0,2);
type = TTShift;
},
{
options = 8;
origin = (1,2);
type = TTSnap;
},
{
options = 4;
origin = (1,2);
target = (0,9);
type = TTStem;
},
{
options = 4;
origin = (1,2);
target = (0,29);
type = TTShift;
},
{
options = 4;
origin = (0,9);
target = (2,6);
type = TTShift;
},
{
options = 4;
origin = (1,2);
other1 = (0,16);
target = (0,9);
type = TTInterpolate;
},
{
origin = (0,33);
target = (0,22);
type = TTShift;
},
{
options = 4;
origin = (1,2);
other1 = (0,39);
target = (0,2);
type = TTInterpolate;
},
{
options = 4;
origin = (1,2);
other1 = (1,5);
target = (0,2);
type = TTInterpolate;
}
);
layerId = "95FB0C11-C828-4064-8966-34220AA4D426";
shapes = (
{
closed = 1;
nodes = (
(540,-11,o),
(585,-2,o),
(630,18,c),
(616,76,l),
(578,63,o),
(541,53,o),
(501,53,cs),
(419,53,o),
(389,90,o),
(385,201,c),
(646,201,l),
(658,359,o),
(600,459,o),
(484,459,cs),
(423,459,o),
(381,432,o),
(355,389,c),
(331,434,o),
(284,455,o),
(220,455,cs),
(165,455,o),
(116,439,o),
(77,421,c),
(98,363,l),
(135,377,o),
(179,390,o),
(220,390,cs),
(287,390,o),
(312,365,o),
(312,285,cs),
(312,264,l),
(124,258,o),
(54,207,o),
(54,115,cs),
(54,33,o),
(113,-8,o),
(187,-8,cs),
(253,-8,o),
(308,21,o),
(355,50,c),
(385,11,o),
(430,-11,o),
(497,-11,cs)
);
},
{
closed = 1;
nodes = (
(130,170,o),
(174,198,o),
(310,202,c),
(312,165,o),
(317,132,o),
(327,103,c),
(284,76,o),
(238,56,o),
(195,56,cs),
(149,56,o),
(130,82,o),
(130,119,cs)
);
},
{
closed = 1;
nodes = (
(392,360,o),
(420,395,o),
(479,395,cs),
(538,395,o),
(569,355,o),
(572,263,c),
(386,263,l)
);
}
);
width = 704;
},
{
anchors = (
{
name = bottom;
pos = (352,0);
},
{
name = top;
pos = (352,448);
}
);
background = {
anchors = (
{
name = bottom;
pos = (352,0);
},
{
name = top;
pos = (352,448);
}
);
shapes = (
{
closed = 1;
nodes = (
(545,-11,o),
(595,2,o),
(644,22,c),
(625,95,l),
(584,80,o),
(544,69,o),
(501,69,cs),
(434,69,o),
(411,108,o),
(411,224,cs),
(411,338,o),
(431,379,o),
(479,379,cs),
(528,379,o),
(550,331,o),
(546,224,c),
(611,266,l),
(351,266,l),
(345,276,l),
(121,276,o),
(38,222,o),
(38,123,cs),
(38,36,o),
(104,-8,o),
(187,-8,cs),
(255,-8,o),
(310,35,o),
(357,76,c),
(319,132,l),
(282,98,o),
(243,72,o),
(205,72,cs),
(169,72,o),
(154,95,o),
(154,127,cs),
(154,180,o),
(200,207,o),
(345,207,c),
(351,188,l),
(660,188,l),
(673,354,o),
(610,459,o),
(484,459,cs),
(356,459,o),
(311,354,o),
(311,224,c),
(382,224,l),
(382,299,ls),
(382,410,o),
(322,455,o),
(218,455,cs),
(157,455,o),
(101,440,o),
(56,423,c),
(74,345,l),
(111,357,o),
(155,367,o),
(196,367,cs),
(254,367,o),
(276,347,o),
(276,285,cs),
(276,249,l),
(276,224,l),
(276,94,o),
(325,-11,o),
(495,-11,cs)
);
}
);
};
layerId = "92967D72-867E-4A8B-929F-F44D834DD4C9";
shapes = (
{
closed = 1;
nodes = (
(545,-11,o),
(595,2,o),
(644,22,c),
(625,95,l),
(584,80,o),
(544,69,o),
(501,69,cs),
(441,69,o),
(417,99,o),
(412,188,c),
(660,188,l),
(673,354,o),
(610,459,o),
(484,459,cs),
(425,459,o),
(383,436,o),
(356,400,c),
(329,438,o),
(282,455,o),
(218,455,cs),
(157,455,o),
(101,440,o),
(56,423,c),
(74,345,l),
(111,357,o),
(155,367,o),
(196,367,cs),
(254,367,o),
(276,347,o),
(276,285,cs),
(276,274,l),
(105,264,o),
(38,211,o),
(38,123,cs),
(38,36,o),
(104,-8,o),
(187,-8,cs),
(241,-8,o),
(288,20,o),
(327,51,c),
(361,13,o),
(415,-11,o),
(495,-11,cs)
);
},
{
closed = 1;
nodes = (
(154,171,o),
(184,196,o),
(276,204,c),
(278,170,o),
(283,138,o),
(293,110,c),
(265,88,o),
(234,72,o),
(205,72,cs),
(169,72,o),
(154,95,o),
(154,127,cs)
);
},
{
closed = 1;
nodes = (
(417,349,o),
(437,379,o),
(479,379,cs),
(521,379,o),
(543,344,o),
(546,266,c),
(412,266,l)
);
}
);
width = 704;
},
{
anchors = (
{
name = bottom;
pos = (352,0);
},
{
name = top;
pos = (352,448);
}
);
background = {
anchors = (
{
name = bottom;
pos = (352,0);
},
{
name = top;
pos = (352,448);
}
);
shapes = (
{
closed = 1;
nodes = (
(539,-9,o),
(582,-3,o),
(627,14,c),
(618,51,l),
(580,41,o),
(545,33,o),
(506,33,cs),
(409,33,o),
(369,83,o),
(369,224,cs),
(369,364,o),
(404,415,o),
(479,415,cs),
(554,415,o),
(598,359,o),
(595,224,c),
(611,257,l),
(351,257,l),
(345,256,l),
(130,256,o),
(50,201,o),
(50,108,cs),
(50,31,o),
(108,-9,o),
(173,-9,cs),
(249,-9,o),
(310,42,o),
(363,88,c),
(339,118,l),
(292,77,o),
(233,36,o),
(177,36,cs),
(128,36,o),
(102,66,o),
(102,110,cs),
(102,175,o),
(161,213,o),
(345,213,c),
(351,213,l),
(645,213,l),
(652,372,o),
(590,459,o),
(479,459,cs),
(366,459,o),
(324,366,o),
(324,236,c),
(369,236,l),
(369,299,ls),
(369,412,o),
(311,455,o),
(226,455,cs),
(166,455,o),
(108,436,o),
(70,420,c),
(82,382,l),
(128,398,o),
(173,410,o),
(222,410,cs),
(291,410,o),
(320,384,o),
(320,298,cs),
(320,249,l),
(320,224,l),
(320,96,o),
(359,-9,o),
(498,-9,cs)
);
}
);
};
layerId = "7DDCEF54-C770-4FAD-B154-EE8058BAA7E5";
shapes = (
{
closed = 1;
nodes = (
(539,-9,o),
(582,-3,o),
(627,14,c),
(618,51,l),
(580,41,o),
(545,33,o),
(506,33,cs),
(412,33,o),
(371,81,o),
(369,213,c),
(645,213,l),
(652,372,o),
(590,459,o),
(479,459,cs),
(417,459,o),
(377,431,o),
(353,385,c),
(330,435,o),
(284,455,o),
(226,455,cs),
(166,455,o),
(108,436,o),
(70,420,c),
(82,382,l),
(128,398,o),
(173,410,o),
(222,410,cs),
(291,410,o),
(320,384,o),
(320,298,cs),
(320,256,l),
(125,252,o),
(50,197,o),
(50,108,cs),
(50,31,o),
(108,-9,o),
(173,-9,cs),
(242,-9,o),
(299,33,o),
(348,75,c),
(374,23,o),
(420,-9,o),
(498,-9,cs)
);
},
{
closed = 1;
nodes = (
(102,172,o),
(155,209,o),
(320,213,c),
(321,176,o),
(324,144,o),
(333,113,c),
(287,74,o),
(231,36,o),
(177,36,cs),
(128,36,o),
(102,66,o),
(102,110,cs)
);
},
{
closed = 1;
nodes = (
(375,371,o),
(410,415,o),
(479,415,cs),
(548,415,o),
(590,369,o),
(595,257,c),
(370,257,l)
);
}
);
width = 704;
}
);
unicode = 230;
}
{
glyphname = divide;
layers = (
{
hints = (
{
horizontal = 1;
origin = (0,3);
type = TTSnap;
},
{
horizontal = 1;
options = 4;
origin = (0,3);
stem = 0;
target = (0,2);
type = TTStem;
},
{
horizontal = 1;
origin = (0,2);
stem = -1;
target = (2,11);
type = TTStem;
},
{
horizontal = 1;
origin = (2,11);
stem = -1;
target = (2,5);
type = TTStem;
},
{
horizontal = 1;
origin = (0,3);
stem = -1;
target = (1,5);
type = TTStem;
},
{
horizontal = 1;
origin = (1,5);
stem = -1;
target = (1,11);
type = TTStem;
}
);
layerId = "95FB0C11-C828-4064-8966-34220AA4D426";
shapes = (
{
closed = 1;
nodes = (
(424,256,l),
(424,320,l),
(24,320,l),
(24,256,l)
);
},
{
closed = 1;
nodes = (
(259,62,o),
(288,84,o),
(288,126,cs),
(288,167,o),
(259,190,o),
(224,190,cs),
(189,190,o),
(160,167,o),
(160,126,cs),
(160,84,o),
(189,62,o),
(224,62,cs)
);
},
{
closed = 1;
nodes = (
(259,386,o),
(288,408,o),
(288,450,cs),
(288,491,o),
(259,514,o),
(224,514,cs),
(189,514,o),
(160,491,o),
(160,450,cs),
(160,408,o),
(189,386,o),
(224,386,cs)
);
}
);
width = 448;
},
{
layerId = "92967D72-867E-4A8B-929F-F44D834DD4C9";
shapes = (
{
closed = 1;
nodes = (
(424,240,l),
(424,336,l),
(24,336,l),
(24,240,l)
);
},
{
closed = 1;
nodes = (
(270,32,o),
(308,61,o),
(308,116,cs),
(308,170,o),
(270,200,o),
(224,200,cs),
(178,200,o),
(140,170,o),
(140,116,cs),
(140,61,o),
(178,32,o),
(224,32,cs)
);
},
{
closed = 1;
nodes = (
(270,376,o),
(308,405,o),
(308,460,cs),
(308,514,o),
(270,544,o),
(224,544,cs),
(178,544,o),
(140,514,o),
(140,460,cs),
(140,405,o),
(178,376,o),
(224,376,cs)
);
}
);
width = 448;
},
{
layerId = "7DDCEF54-C770-4FAD-B154-EE8058BAA7E5";
shapes = (
{
closed = 1;
nodes = (
(424,268,l),
(424,308,l),
(24,308,l),
(24,268,l)
);
},
{
closed = 1;
nodes = (
(252,74,o),
(276,92,o),
(276,126,cs),
(276,159,o),
(252,178,o),
(224,178,cs),
(196,178,o),
(172,159,o),
(172,126,cs),
(172,92,o),
(196,74,o),
(224,74,cs)
);
},
{
closed = 1;
nodes = (
(252,398,o),
(276,416,o),
(276,450,cs),
(276,483,o),
(252,502,o),
(224,502,cs),
(196,502,o),
(172,483,o),
(172,450,cs),
(172,416,o),
(196,398,o),
(224,398,cs)
);
}
);
width = 448;
}
);
unicode = 247;
}
{
color = 7;
glyphname = thorn;
kernLeft = h;
kernRight = o;
layers = (
{
hints = (
{
horizontal = 1;
origin = (0,0);
type = TTSnap;
},
{
horizontal = 1;
origin = (0,2);
type = TTSnap;
},
{
options = 8;
origin = (0,3);
type = TTSnap;
},
{
options = 4;
origin = (0,3);
target = (0,0);
type = TTStem;
},
{
options = 4;
origin = (0,0);
target = (0,1);
type = TTShift;
}
);
layerId = "95FB0C11-C828-4064-8966-34220AA4D426";
shapes = (
{
closed = 1;
nodes = (
(132,-192,l),
(132,640,l),
(60,640,l),
(60,-192,l)
);
},
{
ref = _part.bowl.descender;
}
);
width = 448;
},
{
layerId = "92967D72-867E-4A8B-929F-F44D834DD4C9";
shapes = (
{
closed = 1;
nodes = (
(162,-192,l),
(162,640,l),
(50,640,l),
(50,-192,l)
);
},
{
ref = _part.bowl.descender;
}
);
width = 448;
},
{
layerId = "7DDCEF54-C770-4FAD-B154-EE8058BAA7E5";
shapes = (
{
closed = 1;
nodes = (
(114,-192,l),
(114,640,l),
(66,640,l),
(66,-192,l)
);
},
{
ref = _part.bowl.descender;
}
);
width = 448;
},
{
associatedMasterId = "95FB0C11-C828-4064-8966-34220AA4D426";
attr = {
coordinates = (
400,
-64,
0
);
};
layerId = "1E310F64-01D3-4CA3-8BEB-82E00BAF1582";
name = "{400, 0, -64}";
shapes = (
{
closed = 1;
nodes = (
(132,-64,l),
(132,640,l),
(60,640,l),
(60,-64,l)
);
},
{
ref = _part.bowl.descender;
}
);
width = 448;
}
);
unicode = 254;
}
{
color = 7;
glyphname = Hbar;
layers = (
{
hints = (
{
horizontal = 1;
origin = (1,0);
type = TTSnap;
},
{
horizontal = 1;
options = 4;
origin = (1,0);
target = (1,3);
type = TTStem;
},
{
horizontal = 1;
options = 4;
origin = (1,0);
target = (1,1);
type = TTShift;
},
{
horizontal = 1;
options = 4;
origin = (1,3);
target = (1,2);
type = TTShift;
}
);
layerId = "95FB0C11-C828-4064-8966-34220AA4D426";
shapes = (
{
ref = H;
},
{
closed = 1;
nodes = (
(10,440,l),
(470,440,l),
(470,500,l),
(10,500,l)
);
}
);
width = 480;
},
{
layerId = "92967D72-867E-4A8B-929F-F44D834DD4C9";
shapes = (
{
ref = H;
},
{
closed = 1;
nodes = (
(0,440,l),
(480,440,l),
(480,516,l),
(0,516,l)
);
}
);
width = 480;
},
{
layerId = "7DDCEF54-C770-4FAD-B154-EE8058BAA7E5";
shapes = (
{
ref = H;
},
{
closed = 1;
nodes = (
(10,452,l),
(470,452,l),
(470,496,l),
(10,496,l)
);
}
);
width = 480;
}
);
metricWidth = H.ss20;
unicode = 294;
}
{
color = 8;
glyphname = idotless;
kernLeft = idotless;
kernRight = u;
layers = (
{
anchors = (
{
name = "#center";
pos = (140,224);
},
{
name = bottom;
pos = (146,0);
},
{
name = bottomAttach;
pos = (170,0);
},
{
name = center;
pos = (140,192);
},
{
name = top;
pos = (142,448);
}
);
layerId = "7DDCEF54-C770-4FAD-B154-EE8058BAA7E5";
shapes = (
{
closed = 1;
nodes = (
(170,0,l),
(170,448,l),
(30,448,l),
(30,410,l),
(122,404,l),
(122,0,l)
);
}
);
width = 288;
},
{
anchors = (
{
name = "#center";
pos = (140,224);
},
{
name = bottom;
pos = (146,0);
},
{
name = bottomAttach;
pos = (182,0);
},
{
name = center;
pos = (136,192);
},
{
name = top;
pos = (142,448);
}
);
hints = (
{
horizontal = 1;
options = 4;
origin = (0,1);
target = (0,4);
type = TTStem;
},
{
horizontal = 1;
origin = (0,5);
type = TTSnap;
},
{
options = 4;
origin = (0,4);
target = (0,1);
type = TTStem;
},
{
options = 8;
origin = (0,4);
type = TTSnap;
},
{
origin = (0,4);
target = (0,3);
type = TTShift;
}
);
layerId = "95FB0C11-C828-4064-8966-34220AA4D426";
shapes = (
{
closed = 1;
nodes = (
(182,0,l),
(182,448,l),
(30,448,l),
(30,390,l),
(110,384,l),
(110,0,l)
);
}
);
width = 288;
},
{
anchors = (
{
name = "#center";
pos = (146,224);
},
{
name = bottom;
pos = (148,0);
},
{
name = bottomAttach;
pos = (204,0);
},
{
name = center;
pos = (132,192);
},
{
name = top;
pos = (144,448);
}
);
layerId = "92967D72-867E-4A8B-929F-F44D834DD4C9";
shapes = (
{
closed = 1;
nodes = (
(204,0,l),
(204,448,l),
(20,448,l),
(20,372,l),
(92,366,l),
(92,0,l)
);
}
);
width = 288;
}
);
metricWidth = "=_pixel*4.5";
unicode = 305;
}
{
color = 8;
glyphname = OE;
kernLeft = O;
kernRight = E;
layers = (
{
anchors = (
{
name = bottom;
pos = (340,0);
},
{
name = top;
pos = (340,640);
}
);
hints = (
{
horizontal = 1;
options = 4;
origin = (0,16);
target = (1,8);
type = TTStem;
},
{
horizontal = 1;
options = 4;
origin = (0,16);
target = (0,2);
type = TTStem;
},
{
horizontal = 1;
options = 4;
origin = (0,10);
target = (1,5);
type = TTStem;
},
{
horizontal = 1;
options = 4;
origin = (0,10);
target = (0,7);
type = TTStem;
},
{
horizontal = 1;
origin = (0,16);
other1 = (0,4);
target = (0,10);
type = TTInterpolate;
},
{
horizontal = 1;
options = 8;
origin = (0,4);
target = (0,5);
type = TTStem;
},
{
options = 8;
origin = (0,13);
type = TTSnap;
},
{
options = 4;
origin = (0,13);
target = (1,2);
type = TTStem;
},
{
options = 8;
origin = lsb;
other1 = (1,7);
target = rsb;
type = TTInterpolate;
},
{
options = 4;
origin = (1,7);
target = (0,2);
type = TTStem;
},
{
options = 4;
origin = (0,2);
target = (0,6);
type = TTShift;
},
{
options = 8;
origin = (0,0);
type = TTSnap;
},
{
options = 4;
origin = (0,0);
target = (0,8);
type = TTShift;
},
{
origin = (0,4);
type = TTSnap;
}
);
layerId = "95FB0C11-C828-4064-8966-34220AA4D426";
shapes = (
{
closed = 1;
nodes = (
(640,0,l),
(640,64,l),
(400,64,l),
(400,256,l),
(576,256,l),
(576,320,l),
(400,320,l),
(400,576,l),
(630,576,l),
(630,640,l),
(274,640,ls),
(114,640,o),
(37,534,o),
(37,319,cs),
(37,109,o),
(114,0,o),
(274,0,cs)
);
},
{
closed = 1;
nodes = (
(157,64,o),
(113,134,o),
(113,319,cs),
(113,506,o),
(157,576,o),
(274,576,cs),
(328,576,l),
(328,64,l),
(274,64,ls)
);
}
);
width = 680;
},
{
anchors = (
{
name = bottom;
pos = (340,0);
},
{
name = top;
pos = (340,640);
}
);
layerId = "92967D72-867E-4A8B-929F-F44D834DD4C9";
shapes = (
{
closed = 1;
nodes = (
(656,0,l),
(656,80,l),
(436,80,l),
(436,248,l),
(592,248,l),
(592,328,l),
(436,328,l),
(436,560,l),
(646,560,l),
(646,640,l),
(274,640,ls),
(113,640,o),
(27,534,o),
(27,319,cs),
(27,109,o),
(113,0,o),
(274,0,cs)
);
},
{
closed = 1;
nodes = (
(179,82,o),
(143,147,o),
(143,319,cs),
(143,493,o),
(179,558,o),
(274,558,cs),
(324,558,l),
(324,82,l),
(274,82,ls)
);
}
);
width = 680;
},
{
anchors = (
{
name = bottom;
pos = (340,0);
},
{
name = top;
pos = (340,640);
}
);
layerId = "7DDCEF54-C770-4FAD-B154-EE8058BAA7E5";
shapes = (
{
closed = 1;
nodes = (
(632,0,l),
(632,44,l),
(378,44,l),
(378,266,l),
(568,266,l),
(568,310,l),
(378,310,l),
(378,596,l),
(622,596,l),
(622,640,l),
(274,640,ls),
(115,640,o),
(43,534,o),
(43,319,cs),
(43,109,o),
(115,0,o),
(274,0,cs)
);
},
{
closed = 1;
nodes = (
(144,44,o),
(95,119,o),
(95,319,cs),
(95,521,o),
(144,596,o),
(274,596,cs),
(330,596,l),
(330,44,l),
(274,44,ls)
);
}
);
width = 680;
}
);
metricLeft = O;
metricRight = E.ss20;
unicode = 338;
}
{
color = 8;
glyphname = oe;
kernLeft = o;
kernRight = e;
layers = (
{
anchors = (
{
name = bottom;
pos = (352,0);
},
{
name = top;
pos = (352,448);
}
);
background = {
anchors = (
{
name = bottom;
pos = (352,0);
},
{
name = top;
pos = (352,448);
}
);
hints = (
{
horizontal = 1;
options = 4;
place = (0,393);
target = (1,5);
type = TTStem;
},
{
horizontal = 1;
options = 4;
place = (0,55);
target = (1,11);
type = TTStem;
},
{
options = 4;
place = (0,126);
target = (1,2);
type = TTStem;
},
{
horizontal = 1;
options = 4;
place = (0,55);
target = (2,9);
type = TTStem;
},
{
horizontal = 1;
options = 4;
place = (0,393);
target = (2,15);
type = TTStem;
},
{
horizontal = 1;
other1 = (2,12,2,22);
place = (0,457);
target = (2,25);
type = TTInterpolate;
},
{
horizontal = 1;
options = 4;
place = (0,263);
target = (2,15,2,20);
type = TTStem;
},
{
options = 4;
place = (0,577);
target = (2,18,2,20);
type = TTStem;
},
{
options = 4;
place = (0,636);
target = (2,5);
type = TTShift;
},
{
options = 8;
place = (0,0);
type = TTSnap;
},
{
options = 8;
place = (0,0);
type = TTSnap;
},
{
options = 8;
place = (0,0);
type = TTSnap;
},
{
options = 4;
place = (0,397);
target = (2,12);
type = TTStem;
},
{
options = 4;
other1 = (0,5,2,28);
place = (0,397);
target = (2,12);
type = TTInterpolate;
},
{
options = 4;
place = (0,359);
target = (0,2,2,2);
type = TTShift;
}
);
shapes = (
{
closed = 1;
nodes = (
(345,-9,o),
(388,95,o),
(388,224,cs),
(388,353,o),
(348,457,o),
(219,457,cs),
(94,457,o),
(50,353,o),
(50,224,cs),
(50,95,o),
(94,-9,o),
(219,-9,cs)
);
},
{
closed = 1;
nodes = (
(155,55,o),
(126,98,o),
(126,224,cs),
(126,348,o),
(155,393,o),
(224,393,cs),
(293,393,o),
(322,348,o),
(322,224,cs),
(322,98,o),
(293,55,o),
(224,55,cs)
);
},
{
closed = 1;
nodes = (
(331,95,o),
(369,-9,o),
(510,-9,cs),
(550,-9,o),
(593,0,o),
(636,20,c),
(622,78,l),
(585,65,o),
(548,55,o),
(509,55,cs),
(425,55,o),
(397,98,o),
(397,224,cs),
(397,348,o),
(424,393,o),
(487,393,cs),
(552,393,o),
(582,340,o),
(576,224,c),
(616,263,l),
(363,263,l),
(363,201,l),
(651,201,l),
(662,358,o),
(606,457,o),
(492,457,cs),
(369,457,o),
(331,353,o),
(331,224,cs)
);
}
);
};
hints = (
{
horizontal = 1;
options = 4;
origin = (0,25);
target = (1,5);
type = TTStem;
},
{
horizontal = 1;
options = 4;
origin = (0,31);
target = (1,11);
type = TTStem;
},
{
options = 4;
origin = (0,28);
target = (1,2);
type = TTStem;
},
{
horizontal = 1;
options = 4;
origin = (0,5);
target = (0,12);
type = TTStem;
},
{
horizontal = 1;
options = 4;
origin = (0,19);
target = (2,2);
type = TTStem;
},
{
horizontal = 1;
origin = (0,5);
other1 = (0,15);
target = (0,19);
type = TTInterpolate;
},
{
horizontal = 1;
options = 4;
origin = (0,15);
target = (2,6);
type = TTStem;
},
{
options = 4;
origin = (0,16);
target = (2,5);
type = TTStem;
},
{
options = 4;
origin = (0,16);
target = (0,8);
type = TTShift;
},
{
options = 8;
origin = (0,28);
type = TTSnap;
},
{
options = 8;
origin = (0,16);
type = TTSnap;
},
{
options = 8;
origin = (1,8);
type = TTSnap;
},
{
options = 4;
origin = (1,8);
target = (0,15);
type = TTStem;
},
{
options = 4;
origin = (1,8);
other1 = (0,22);
target = (0,15);
type = TTInterpolate;
},
{
options = 4;
origin = (0,22);
target = (0,2);
type = TTShift;
}
);
layerId = "95FB0C11-C828-4064-8966-34220AA4D426";
shapes = (
{
closed = 1;
nodes = (
(289,-9,o),
(334,24,o),
(359,74,c),
(385,23,o),
(432,-9,o),
(510,-9,cs),
(550,-9,o),
(593,0,o),
(636,20,c),
(622,78,l),
(585,65,o),
(548,55,o),
(509,55,cs),
(430,55,o),
(401,92,o),
(397,201,c),
(651,201,l),
(662,358,o),
(606,457,o),
(492,457,cs),
(425,457,o),
(383,426,o),
(359,377,c),
(333,427,o),
(290,457,o),
(219,457,cs),
(94,457,o),
(50,353,o),
(50,224,cs),
(50,95,o),
(94,-9,o),
(219,-9,cs)
);
},
{
closed = 1;
nodes = (
(155,55,o),
(126,98,o),
(126,224,cs),
(126,348,o),
(155,393,o),
(224,393,cs),
(293,393,o),
(322,348,o),
(322,224,cs),
(322,98,o),
(293,55,o),
(224,55,cs)
);
},
{
closed = 1;
nodes = (
(404,358,o),
(431,393,o),
(487,393,cs),
(544,393,o),
(574,353,o),
(577,263,c),
(398,263,l)
);
}
);
width = 704;
},
{
anchors = (
{
name = bottom;
pos = (352,0);
},
{
name = top;
pos = (352,448);
}
);
background = {
anchors = (
{
name = bottom;
pos = (352,0);
},
{
name = top;
pos = (352,448);
}
);
shapes = (
{
closed = 1;
nodes = (
(353,-10,o),
(400,94,o),
(400,223,cs),
(400,352,o),
(357,456,o),
(217,456,cs),
(82,456,o),
(34,352,o),
(34,223,cs),
(34,94,o),
(82,-10,o),
(217,-10,cs)
);
},
{
closed = 1;
nodes = (
(173,70,o),
(152,109,o),
(152,223,cs),
(152,335,o),
(173,376,o),
(222,376,cs),
(271,376,o),
(291,335,o),
(291,223,cs),
(291,109,o),
(271,70,o),
(222,70,cs)
);
},
{
closed = 1;
nodes = (
(319,94,o),
(360,-10,o),
(513,-10,cs),
(558,-10,o),
(607,0,o),
(656,21,c),
(637,94,l),
(601,81,o),
(568,70,o),
(531,70,cs),
(450,70,o),
(423,109,o),
(423,223,cs),
(423,335,o),
(443,376,o),
(490,376,cs),
(540,376,o),
(563,328,o),
(558,223,c),
(616,265,l),
(363,265,l),
(363,187,l),
(672,187,l),
(685,353,o),
(623,456,o),
(495,456,cs),
(361,456,o),
(319,352,o),
(319,223,cs)
);
}
);
};
layerId = "92967D72-867E-4A8B-929F-F44D834DD4C9";
shapes = (
{
closed = 1;
nodes = (
(285,-10,o),
(330,15,o),
(359,57,c),
(388,16,o),
(437,-10,o),
(513,-10,cs),
(558,-10,o),
(607,0,o),
(656,21,c),
(637,94,l),
(601,81,o),
(568,70,o),
(531,70,cs),
(459,70,o),
(430,100,o),
(424,187,c),
(672,187,l),
(685,353,o),
(623,456,o),
(495,456,cs),
(430,456,o),
(387,432,o),
(359,391,c),
(330,432,o),
(285,456,o),
(217,456,cs),
(82,456,o),
(34,352,o),
(34,223,cs),
(34,94,o),
(82,-10,o),
(217,-10,cs)
);
},
{
closed = 1;
nodes = (
(173,70,o),
(152,109,o),
(152,223,cs),
(152,335,o),
(173,376,o),
(222,376,cs),
(271,376,o),
(291,335,o),
(291,223,cs),
(291,109,o),
(271,70,o),
(222,70,cs)
);
},
{
closed = 1;
nodes = (
(429,346,o),
(449,376,o),
(490,376,cs),
(533,376,o),
(556,340,o),
(558,265,c),
(424,265,l)
);
}
);
width = 704;
},
{
anchors = (
{
name = bottom;
pos = (352,0);
},
{
name = top;
pos = (352,448);
}
);
background = {
anchors = (
{
name = bottom;
pos = (352,0);
},
{
name = top;
pos = (352,448);
}
);
shapes = (
{
closed = 1;
nodes = (
(341,-9,o),
(388,95,o),
(388,224,cs),
(388,353,o),
(346,457,o),
(221,457,cs),
(96,457,o),
(54,353,o),
(54,224,cs),
(54,95,o),
(96,-9,o),
(221,-9,cs)
);
},
{
closed = 1;
nodes = (
(144,33,o),
(105,83,o),
(105,224,cs),
(105,363,o),
(141,415,o),
(221,415,cs),
(301,415,o),
(337,363,o),
(337,224,cs),
(337,83,o),
(298,33,o),
(221,33,cs)
);
},
{
closed = 1;
nodes = (
(338,95,o),
(379,-9,o),
(510,-9,cs),
(553,-9,o),
(593,-1,o),
(628,14,c),
(619,51,l),
(585,40,o),
(550,33,o),
(519,33,cs),
(417,33,o),
(388,105,o),
(388,224,cs),
(388,353,o),
(418,413,o),
(492,413,cs),
(567,413,o),
(600,343,o),
(594,224,c),
(634,257,l),
(350,257,l),
(350,213,l),
(646,213,l),
(653,369,o),
(595,457,o),
(492,457,cs),
(378,457,o),
(338,353,o),
(338,224,cs)
);
}
);
};
layerId = "7DDCEF54-C770-4FAD-B154-EE8058BAA7E5";
shapes = (
{
closed = 1;
nodes = (
(292,-9,o),
(337,28,o),
(362,83,c),
(387,27,o),
(433,-9,o),
(510,-9,cs),
(553,-9,o),
(593,-1,o),
(628,14,c),
(619,51,l),
(585,40,o),
(550,33,o),
(519,33,cs),
(420,33,o),
(390,100,o),
(388,213,c),
(646,213,l),
(653,369,o),
(595,457,o),
(492,457,cs),
(426,457,o),
(385,423,o),
(362,369,c),
(337,423,o),
(293,457,o),
(221,457,cs),
(96,457,o),
(54,353,o),
(54,224,cs),
(54,95,o),
(96,-9,o),
(221,-9,cs)
);
},
{
closed = 1;
nodes = (
(144,33,o),
(105,83,o),
(105,224,cs),
(105,363,o),
(141,415,o),
(221,415,cs),
(301,415,o),
(337,363,o),
(337,224,cs),
(337,83,o),
(298,33,o),
(221,33,cs)
);
},
{
closed = 1;
nodes = (
(394,363,o),
(425,413,o),
(492,413,cs),
(560,413,o),
(593,357,o),
(595,257,c),
(389,257,l)
);
}
);
width = 704;
}
);
unicode = 339;
}
